<?xml version="1.0" standalone="no"?><!DOCTYPE svg PUBLIC "-//W3C//DTD SVG 1.1//EN" "http://www.w3.org/Graphics/SVG/1.1/DTD/svg11.dtd"><svg t="1533566182640" class="icon" style="" viewBox="0 0 1026 1024" version="1.1" xmlns="http://www.w3.org/2000/svg" p-id="28816" xmlns:xlink="http://www.w3.org/1999/xlink" width="200.390625" height="200"><defs><style type="text/css"></style></defs><path d="M510.987846 0.51013C229.226305 0.51013 0.008105 229.728329 0.008105 511.659914c0 281.761541 229.2182 511.149784 511.149785 511.149784 281.761541 0 511.149784-229.2182 511.149784-511.149784C1022.13763 229.728329 792.919431 0.51013 510.987846 0.51013z m0 936.937894C276.158222 937.448024 85.199736 746.489538 85.199736 511.659914c0-234.829625 191.128529-425.958153 425.958154-425.958154s425.958153 191.128529 425.958153 425.958154c-0.170043 234.829625-191.298572 425.78811-426.128197 425.78811z m198.100299-300.636334l-176.674859-102.195948V256.085022c0-23.465958-19.044836-42.510794-42.510793-42.510794s-42.510794 19.044836-42.510794 42.510794v298.085685c0 15.814015 19.554965 29.077383 32.478246 36.38924 3.570907 5.271338 13.263368 10.202591 19.214879 13.603454l175.6546 106.447027c20.405181 11.732979 42.510794 4.761209 54.243773-15.643972 11.392893-20.405181 0.51013-46.421787-19.895052-58.154766z m0 0" fill="#ffffff" p-id="28817"></path></svg>