<?xml version="1.0" standalone="no"?><!DOCTYPE svg PUBLIC "-//W3C//DTD SVG 1.1//EN" "http://www.w3.org/Graphics/SVG/1.1/DTD/svg11.dtd"><svg t="1533566069197" class="icon" style="" viewBox="0 0 1024 1024" version="1.1" xmlns="http://www.w3.org/2000/svg" p-id="27334" xmlns:xlink="http://www.w3.org/1999/xlink" width="200" height="200"><defs><style type="text/css"></style></defs><path d="M614.22592 0.87552h-408.89856c-56.4224 0-101.77024 45.80352-101.77024 102.22592l-0.45568 817.80224c0 56.4224 45.23008 102.22592 101.77024 102.22592h613.80608c56.4224 0 102.22592-45.80352 102.22592-102.22592V307.54816l-306.67776-306.67264z m-5.66784 694.33344c-23.93088 22.28224-56.55552 33.42336-97.792 33.42336-41.26208 0-73.4464-11.55584-96.55808-34.6624-23.13216-23.10656-34.6624-51.9936-34.6624-86.65088v-17.3312h56.94464v14.85312c0 24.76032 7.42912 43.74016 22.28224 56.94464 14.85312 13.20448 32.18432 19.80416 51.9936 19.80416 26.38336 0 45.80352-7.0144 58.18368-21.0432 12.38016-14.0288 18.57024-30.94528 18.57024-50.75456 0-16.50688-7.42912-31.77472-22.28224-45.80352-14.85312-14.0288-36.31104-26.82368-64.36864-38.3744-39.61344-14.85312-68.08576-31.36-85.41696-49.51552-17.3312-18.15552-25.99424-39.61344-25.99424-64.36864 0-34.6624 11.96544-62.72 35.90144-84.17792 23.90528-21.43232 52.3776-32.18432 85.41696-32.18432 42.91584 0 73.86112 12.78976 92.84096 38.3744 18.95424 25.61024 28.47232 53.22752 28.47232 82.93888h-56.94464c1.62304-18.15552-3.328-34.6624-14.85312-49.51552-11.55584-14.85312-28.0832-22.28224-49.51552-22.28224-19.80416 0-35.51232 5.36576-47.04256 16.09216-11.55584 10.7264-17.3312 25.16992-17.3312 43.32544 0 14.85312 4.54144 27.648 13.6192 38.3744 9.05216 10.7264 32.57344 23.52128 70.55872 38.3744 36.28544 14.85312 64.36864 32.59904 84.17792 53.22752 19.80416 20.6336 29.71136 44.14976 29.71136 70.55872-0.01536 37.96992-12.0064 68.09088-35.91168 90.37312z" fill="#ffffff" p-id="27335"></path></svg>