<?xml version="1.0" standalone="no"?><!DOCTYPE svg PUBLIC "-//W3C//DTD SVG 1.1//EN" "http://www.w3.org/Graphics/SVG/1.1/DTD/svg11.dtd"><svg t="1532705326044" class="icon" style="" viewBox="0 0 1024 1024" version="1.1" xmlns="http://www.w3.org/2000/svg" p-id="838" xmlns:xlink="http://www.w3.org/1999/xlink" width="200" height="200"><defs><style type="text/css"></style></defs><path d="M964.424 935.376H57.904V110.312h906.52v825.064z m-834.52-72h762.52V182.312H129.904v681.064z" p-id="839" fill="#ffffff"></path><path d="M217.856 734.296l-56.064-45.184 188.416-233.776 217.304 159.16 164.336-236.92 59.16 41.04-206.432 297.608-221.44-162.184z" p-id="840" fill="#ffffff"></path><path d="M832.504 409.408c0 4.4-3.6 8-8 8H548.52c-4.4 0-8-3.6-8-8v-67.424c0-4.4 3.6-8 8-8h275.976c4.4 0 8 3.6 8 8v67.424z" p-id="841" fill="#ffffff"></path><path d="M757.08 625.96c-4.4 0-8-3.6-8-8V341.984c0-4.4 3.6-8 8-8h67.424c4.4 0 8 3.6 8 8v275.976c0 4.4-3.6 8-8 8h-67.424z" p-id="842" fill="#ffffff"></path></svg>