<?xml version="1.0" standalone="no"?><!DOCTYPE svg PUBLIC "-//W3C//DTD SVG 1.1//EN" "http://www.w3.org/Graphics/SVG/1.1/DTD/svg11.dtd"><svg t="1533566018052" class="icon" style="" viewBox="0 0 1024 1024" version="1.1" xmlns="http://www.w3.org/2000/svg" p-id="25907" xmlns:xlink="http://www.w3.org/1999/xlink" width="200" height="200"><defs><style type="text/css"></style></defs><path d="M638.2 400.7l-110 87.9c-8.4-4.3-17.9-6.6-27.9-6.6-34.8 0-63 28.8-63 64.5s28.2 64.5 63 64.5 63-28.8 63-64.5c0-4.2-0.3-8.2-1.1-12.2l110.5-88.5c12.2-9.8 14.4-27.8 4.8-40.2-9.5-12.4-27.1-14.6-39.3-4.9z" p-id="25908" fill="#ffffff"></path><path d="M512 96C264.5 96 64 301.3 64 554.5c0 150 70.4 283.2 179.2 366.8 5.4 4 12.2 6.6 19.4 6.6 17.4 0 31.5-14.4 31.5-32.2 0-11.8-6.2-22.1-15.5-27.8-33.1-25.8-61.9-57-85.3-92.3l38.7-22.8c13.4-7.9 17.9-25.4 10.2-39.1-7.7-13.7-24.8-18.4-38.2-10.5L165.3 726c-20.7-43.7-33.8-92-37.3-142.8h44.5c15.5 0 28-12.8 28-28.7 0-15.9-12.5-28.7-28-28.7H128c3.6-51 16.7-99.4 37.5-143.3l38.5 22.7c13.4 7.9 30.5 3.2 38.2-10.5 7.7-13.7 3.2-31.3-10.2-39.1l-38.4-22.7c27.3-41 61.9-76.5 102-104.4l22.1 39.3c7.7 13.7 24.8 18.4 38.2 10.5 13.4-7.9 17.9-25.4 10.2-39.1L344 199.9c42.8-21.3 90-34.7 140-38.3v45.5c0 15.9 12.5 28.7 28 28.7s28-12.8 28-28.7v-45.5c49.7 3.7 96.9 17 139.6 38.2l-22.3 39.6c-7.7 13.7-3.1 31.3 10.2 39.1 13.4 7.9 30.5 3.2 38.2-10.5l22.3-39.6c40.2 27.9 75 63.5 102.4 104.7L792 355.7c-13.4 7.9-17.9 25.4-10.2 39.1 7.7 13.7 24.8 18.4 38.2 10.5l38.5-22.7c20.8 43.8 33.9 92.2 37.5 143.3h-44.4c-15.5 0-28 12.8-28 28.7 0 15.9 12.5 28.7 28 28.7H896c-3.6 51-16.6 99.1-37.3 142.8L820 703.2c-13.4-7.9-30.5-3.2-38.2 10.5-7.7 13.7-3.2 31.3 10.2 39.1l38.7 22.8c-24 36.2-53.6 68-87.7 94.1-7.4 6.2-12.2 15.5-12.2 26 0 17.8 14.1 32.2 31.5 32.2 8.8 0 16.7-3.7 22.5-9.7C891.3 834.6 960 702.8 960 554.5 960 301.3 759.4 96 512 96z" p-id="25909" fill="#ffffff"></path></svg>