<?xml version="1.0" standalone="no"?><!DOCTYPE svg PUBLIC "-//W3C//DTD SVG 1.1//EN" "http://www.w3.org/Graphics/SVG/1.1/DTD/svg11.dtd"><svg t="1533563229883" class="icon" style="" viewBox="0 0 1025 1024" version="1.1" xmlns="http://www.w3.org/2000/svg" p-id="5666" xmlns:xlink="http://www.w3.org/1999/xlink" width="200.1953125" height="200"><defs><style type="text/css"></style></defs><path d="M1025.417279 187.844226v-13.072737l-4.157693-3.914146-2.723018-12.128225-16.164145-4.714372-28.051892 22.74605-1.130754 5.202489-1.348717 0.25378-4.469802 3.396353-4.620227 0.687662-0.582261-0.441045-0.173962-8.295943-5.974062-5.475712-2.958378-7.890714-11.69332-1.995447-14.560624-9.070586-4.620228 2.174525-2.075265-2.685155-15.407921-0.642636-1.880837 2.586918-1.089821-7.264451-3.882424-3.142573-1.110287-7.587816-9.398044-7.67275-1.170662-5.556552-9.363252-12.922311-1.647523-7.002484-22.402219-24.068162-19.500123-1.245364-0.360204 0.560772-3.423982-2.981914-21.620414 1.093914-5.547343 3.081175-14.275121 2.2656-4.294816 5.930059-8.931417 2.419096-19.919678 27.686573 17.634635 11.500938-6.445805 7.633864-1.107218 10.122545-2.712784 1.809206-1.27504 10.388604-1.404999 0.877997-6.470365 14.709003 3.196808 3.089362-5.241374 6.714935-4.677533 3.864004-2.027169 0.038886-3.406587-2.597151-16.405645-1.366114-16.965393 54.775534 10.124591 18.632359 16.48444-0.783852 2.405793-3.848655 0.904602 3.880377 22.346961-4.295839 1.639337-7.960299 12.983709 9.559726-10.737552-0.282432-34.359552 24.674982-1.659803 10.327206-7.786337 5.461386-9.833972 0.213871-15.265682 16.368806-8.54256-0.098238-15.134699-8.440229-18.85544 22.493293-0.403183 15.71082 6.947226 7.05979-7.756661 5.541203-4.487198 8.760524-6.229888 7.05979-8.446369 4.768606-10.863419 2.316766-11.498891-0.627287-3.263324 1.523703-0.329505-0.163729-11.702529 0.333598-13.148462 6.684236-21.46487 11.268648-0.618077-1.500167-15.647375-2.980891-3.388167 3.629667-2.617618-0.051165-11.057846-4.786003-7.419994-2.213412-2.279926-3.421936-11.05887-7.805779-15.125489 0.737803-3.466961-2.533706-10.903328-2.632967-7.684006 3.072989-15.709797-0.295736-10.751878-3.77293-15.002692 0.190335-5.316076-1.518586-1.589194-2.119267-4.786003-10.067286-4.158717-10.126639-7.730055-15.781428-9.143241-2.964518-9.020444-7.872294-15.998369-10.886955-20.320814-2.963495-3.811816-0.283456-0.741897-1.188058-7.794523-3.225461-0.002047-0.001024 2.622734-2.622733 2.082428-9.995655-0.940418-4.112668 1.925862-2.768043 1.068331-14.962783-5.922896-7.677867-2.756787-15.481599-10.270924-6.91755-3.801583-8.868995h-9.812483l-1.350764-5.40715-6.252401-4.263094 0.073678-0.775666-1.440815-2.489704 8.083096-16.168238-22.059412-0.537235-5.183046-2.991124-16.650215 0.756223-1.591241 14.583136-0.587378 0.215918-10.519588-0.956791-10.351765 17.251919 0.759293 9.601682-0.462534 4.907777-1.832742 0.203638-0.691755 0.48607-11.431353-1.632173-4.872984-1.01512-5.267981-6.244215-15.968693-2.279926-8.075932 16.798595-4.976338 10.124591-10.295484 14.254656-1.49505-0.802272-43.100634 3.12313 7.445576 21.090341 1.174755 0.530072-0.804318 17.952884 2.029216 1.660826-0.336668 7.140631-11.491729 9.851369-1.059121 9.41544h-2.840698l-2.527567 3.88754-1.479701 0.044003-20.060894 3.920286-8.046257 7.374967h-4.574179l-2.99317-2.826371-18.204618-1.40193-5.022386 9.327436-1.455142 1.258667-11.030217-14.706957-5.840009 7.459902-9.295713-0.357134-9.025561 6.296403-14.908548 2.662643-1.991354 7.537674-6.151093-0.636497-2.77316 15.257496-0.951675 0.25378-0.931209 25.157982 13.129019 6.56451 1.068332 6.765077-9.135055-2.8847-3.296069 21.956058 11.903098 11.530614 6.806009 2.041496 2.424213 2.931772-1.739621 15.659655 10.512425 12.615318 4.466731 0.424673 4.751211 4.75121 12.970406 8.253988 2.091638 0.410346-0.115634 1.896186-3.861957 1.654686 2.109034 18.980284 6.637164 1.658779 0.305968 24.181749 2.016937 2.313695-13.626346-2.043542-2.823301 20.326954 2.515286 6.965645-0.588401 6.831592-3.682879 9.578146 13.948687 15.805988 1.99647-1.535983 3.830235 6.04774 6.253425 2.00261 1.373277 1.207502 0.951674 6.665816 6.438643 3.466962 3.433192 2.709714 0.169869 0.642637 4.810562 12.026917 18.334578 2.749624 1.107217-2.63092 19.814278 18.267039 0.705058 1.76418 0.647753 7.452739 15.714913 12.086269 0.24764-0.388856 9.840112 7.731078 3.350305 1.144057 1.6465 8.640797 10.896164 2.390443v5.734608l15.291265 6.499018 11.43033 1.905396 2.802835 2.729158h10.06217l4.219092 1.917676 10.497075-0.26913 0.431835 8.202823 16.738219 9.692756 9.822717-12.0525 6.641257-7.423064 2.302439-0.328481 3.678786-2.355651 7.680936 5.976108 11.582803 1.102101 0.053212-0.044002 7.980765 10.109242 15.386432 0.415462 0.488117-0.316201 1.322111 0.735757 14.07967-3.377934 2.883677-6.590092 10.926864-3.885494 0.218987-6.815219 10.925841-0.148379 6.624884-8.282641 2.006703-0.803295 0.494257 0.649799 15.574721 7.374968 6.252401-4.894473 3.019776 16.916274 14.541181 1.65264 7.825223 3.612271h9.697873l-0.208755 1.614777 2.506077 2.892887-1.223874 11.423167 12.32777 1.23513-1.139964 19.761066-0.832971 5.412267-18.269085 17.377786-1.079588 5.933129-4.764514 2.073218-1.524726 14.47569 0.737803 0.884136-0.127913 0.056282v19.631106l21.221324 2.923586 2.466168-3.285836 3.447519 2.929726 0.291642 6.989181 7.936763 12.851703-0.51063 1.823531-0.25378 0.181125-0.397043 2.139734-0.580214 2.075265 0.183171 0.074701-3.334954 18.010189h17.322527l2.077311 1.269923 0.106424 0.027629 0.118704 2.488681 5.497201 9.348925 13.858636 3.716648 9.126868-0.883113 1.331321 3.043313 11.714809 4.02671 14.784728 1.406022 3.822049-16.921391-1.409093-13.237489 1.90335 0.206708 4.870937-4.01136 1.683339 2.432399 14.18814 1.014096 2.760881-4.14132h2.086521l6.596232 2.309602 0.533142-2.309602h7.05979l2.891863-2.746554 3.212158 0.558725 7.702426-5.237281 6.481621-3.239787 2.495844-3.871168 14.625092 12.595876 3.242858-5.486968h0.652869l-0.210801 5.67935 2.873444 14.932084h11.084452l2.369978 2.054799 7.893784 7.233751 8.719592-0.757246 13.045107 4.602831 5.65172-6.277984 16.508999 4.445243 0.418532 9.776667 4.411473 4.411473 0.749061 6.356778 16.480346 5.332449 15.311731-5.30175 0.689708-15.247262-3.415796-4.840238 0.788969-0.379647 2.675946-4.529153 1.413185-0.837065 4.948709-1.446955 12.365632-0.376576 1.306762-3.92131 2.27788-0.075724 3.340071-3.339048 11.871376-0.431836 3.76065-5.266957 7.121188-2.191922 0.199544-0.765433 8.196683 1.130754v-9.100262l0.88209-0.313132h12.399401l6.021134-8.02886 1.174755 0.927115 9.815553-7.009647 13.110599 4.142343 1.455142-7.766894 7.504928-0.313132 3.702321-4.810562 8.67252-0.334621 1.019213-6.367011 1.898233-0.474814 1.166569-3.693113 5.134951-1.415232 2.316765-6.488785 16.278755-19.151175 2.568499-6.610558 7.363711-0.751107 1.604544-11.233855 1.998517-5.450129 0.25685-1.537006 5.186116-2.006704 0.289596-1.12666 10.577916-11.388374-2.25639-10.524705-0.708128-4.241604 1.11438-4.64274-1.094937-6.576789 12.317536-15.188934-0.976234-1.419326 3.697205-2.956331-0.36839-8.449439 1.285273-6.138814 0.556678-1.797949 1.308809 0.391926 11.82328-9.19543 0.579191-15.045671-1.861394-1.675152v-4.373611l1.929956-0.927115 5.907546-12.472056-5.115507-8.100492 2.204201-9.367345-14.921851-4.003174-1.209548-1.257643 5.030574-2.812045 1.689478-17.455557 1.848091-0.27834-11.04352-25.336038-7.123235-1.695618-1.703805-5.282307-9.687639-3.042289-0.166799-0.147356-1.413186-6.747681-10.379395-14.10116-2.777253-7.219425-8.804527-12.066827-8.443299-0.72757-0.341784-1.082658-2.359744-1.125637 1.046842-6.011924 7.866155-9.593496 0.12382-1.175779 11.835559-5.4972-2.076288-10.036588 12.224416-7.335058 0.835018-1.167593h13.893428l1.363044-20.447704-3.704369-13.227256-16.598026-2.593058-7.266498 4.01443-4.133133-0.413416-6.769171-5.26491-14.537088 3.751441-11.269671 14.276144-0.254803 0.484024-2.367931-8.962116-11.409864-7.486508-8.836249-1.415232 4.369518-4.367471 12.459776-0.674359 0.874927-15.160281 13.282514-12.846586 2.717901-1.985214-4.095271 5.38873 10.003841 5.792937-7.963368 10.621918 19.846 11.907191 17.706267-14.700817 3.936659-8.462742 7.870248-7.869225 8.222265-5.992481 16.7198-2.966565 1.865488-11.941983 3.191692-6.266727 8.760524-7.250125 11.745509-8.54256 1.154289-9.477862 2.794649-3.780093 0.499374-2.164292 11.907191 1.816368 16.612352-5.14109 3.164063-18.361183 6.881734-4.129041 1.518587-6.836709 6.607488-4.184299 0.121773-3.464914 2.855025 1.903349 18.276248-22.414499 1.152243-14.214746-6.303566-8.948813-0.941442-12.228509-5.392824-7.240915 1.026377-0.843204 2.047635-4.465708 16.819061 0.841157 7.384177-9.40316 2.600222-19.389606 2.048659-4.552689-0.438999-15.169491V200.438055l-1.152243-6.418176 0.15759-1.038656 4.707208-5.136997zM843.019089 483.960387l1.766227 1.373277 2.268669 0.227174-1.395789 0.838088-5.997598 1.817391 3.358491-4.25593z m39.07904 190.504822l-0.868786 0.868787-2.400677-0.14224 3.269463-0.726547zM841.866846 411.589103l-2.778276 3.032056-1.859347 2.371 1.369183-6.723121 5.477758-4.956896 0.298806 0.217965-2.508124 6.058996z m156.951635-185.543834l-1.648546 12.296048-17.600867-0.880044-6.124487 13.360286-7.465019 6.131651 0.554632 13.284561 7.739265 10.381441 0.915859 11.912308 4.76963 6.771217-17.814738 2.036379-2.958378 12.4301-0.207731 5.900384-4.53427 2.871397-1.451048 6.53381-1.883907 1.12973-13.43908 3.02387-0.74906 7.747451-16.175401 3.081175-6.271844 10.977006-1.52268 6.596232-3.51915 4.761443-0.700964 5.748935-4.319376 3.140526-13.057387 10.778485-6.80294 13.355169-6.330172 1.122567-11.740392 8.556886 1.237177-13.607926-19.113313-13.994735-13.282514 2.214434-16.743336 15.148002-1.914606 9.395997-2.01489 1.473561-20.513196 19.836791-0.090051 1.556449-3.421936-5.560646-20.300348 21.86396 1.342577 17.436114 14.939248 21.220301 12.909007-2.041496 1.475608 5.584182 7.507997 11.68104h22.539343l-4.502547 3.603062-0.876974 8.340968-7.361665 8.976442-1.147126 6.595209-3.873214 2.446725-1.998517 17.983583 10.903328 5.204535 1.888 5.974062 13.098319 1.12973 1.220804 1.674129 2.794649 7.264451 9.3039 12.638854 1.930979 9.219989 2.535753 2.232854-5.978155-0.085957 9.329483 26.944675h12.230555l1.178849 0.969071-2.850931 0.87902-3.543709 8.743128-17.337877 1.121544 8.241708 23.355941 7.766894 0.803295 3.054569 3.76065 11.676947-0.584308-3.057639 14.513552-3.452635-0.204661 0.871857 17.866926-1.842975 5.954619-1.558495 7.209192-11.423167-0.497327 3.400446 14.449084-11.149944 1.296529v18.590404l4.601808 4.820795 0.00921 0.055259-0.946558 3.939728-0.873904-0.317224-3.27458 12.735045-6.328125 2.448772-1.970888 11.832489-0.798179 2.176573-4.02671 0.410346-15.083533 9.839089 5.396917 9.591449-3.539616 4.162809-11.100826-5.552459-2.664689 17.739013-1.482771 0.408299-1.061169 3.363607-4.043082 1.010004-0.467651 2.918469-0.983397 0.037862-3.367701 4.376681-8.966209-1.991354-2.285043 3.196809-12.744255-1.109264-1.302669 3.909029-7.323802 4.707209-3.267417 1.885953-0.856507-1.198291-24.338315-4.483105v19.044752l-1.27811 0.453324-3.708461-0.510629-2.03024 7.776103-2.535752 0.77976-1.807159 2.531659-9.670244 0.312109-3.346211 3.347234-8.863878 0.293689-1.304716 3.910053-10.15836 2.971681-8.614192 5.105275-0.509606 0.864694-3.339049-4.55269-11.759834-6.785543-6.051833 2.824325-5.624091-0.375553-1.612731-4.233418-18.929118 2.700505-0.460488 2.302439-13.55062-0.64673-0.223081 0.364298-3.637853-3.154854 1.439791-0.653892 0.998747-17.947768-18.816554-7.167236-0.353041-1.411139h-13.847379l-9.846253-10.980076-14.143115 6.702656-4.098341 7.611351-1.856277 2.874467-2.431376 1.215688-1.582031 1.076518-2.691296-0.468674-0.874926-3.784186-16.274662 4.749164-3.387144-1.186012-4.062525 4.062525-8.534374-5.3918-12.843516 6.766101-0.840134 2.277879-2.15713-0.23536-12.938683-0.666173-5.011131 16.857947-4.234441 0.632403-6.28003 4.91494-0.419556-8.803504-11.098779-2.937912 0.546446-1.639336 0.715291-0.134053 0.236384-2.721995 2.079358-6.238074-1.483794-0.611937 1.272993-14.638396-14.335497-0.286525-0.402159-9.654894-1.280156-1.087775 5.16565-21.982664-21.937639 8.324596-5.053086-0.777712-0.051165-0.062422 1.566682-8.614192 10.346649-9.842159 7.189749-1.436722 3.0208-19.639292 2.0241-34.230616-10.300601-12.722766-2.793626 0.75213 0.604774-4.690835-6.285146-7.070023-8.360412-8.707312-13.814634 0.601704 0.90665-2.417049-7.348362-7.349386 0.001023-5.481851-12.756535-11.69025-13.872962 4.621251-5.695722 5.177929-6.467295-10.574846-15.453971 5.693676-2.316765 3.669576-4.955872 1.982144-3.77293 4.716418-14.075577 0.192382-7.785313 11.41805-0.048095 1.478678-5.78475 2.056845-0.974188 2.226714-1.910513-1.061168-4.758373 3.080152-5.764284-7.30129-8.749268-5.52483-8.452509 1.585101-6.430457-5.053086-14.032597-0.73985-5.604648 3.587711-5.496178 0.785899-1.040702 1.162476-5.114485-6.045693-10.18906 1.329275-12.160971 2.527566-0.776689 1.122567-3.329838-1.512447h-5.906524l-3.347234-3.25923-11.57564-14.735609-5.094018 8.798387-7.549953-5.808286-2.948146-0.647753-1.325181-6.958482-11.875468-4.053316-3.695159-2.90312-3.062756-9.570983-12.215206-8.652054-0.294712-0.738827-24.965601-23.015179-6.052856-7.629771-14.693654-3.67674-0.778736 0.924046-5.925966-4.678556-0.598634-4.189416-10.881839-9.562796-3.031033-0.970094-0.521886-0.823762-3.228531-11.839652-4.470825-0.426719 0.075725-0.874927 2.588965 0.431835 16.298198-8.924253 1.166569-14.399965-2.447749-11.016914-5.500271-6.309706-0.060375-4.700046 1.748831-1.165546 5.870707-14.410198-8.349155-9.463535-4.596691-2.838652 1.547239-25.267476-16.848737-3.304256-7.456832-4.745071-7.397481-7.39748-2.024099-16.199961-10.159384-12.285814 2.88163-5.762237-2.043543-12.947894 5.42557-2.518356-2.862188-15.267729-11.279904-9.206685 3.186576-12.061711 5.89015-1.051958 4.903684-3.41989 3.020799 3.340072 0.029676 0.298805 0.27527 0.038886 4.425799 4.891403 3.009544-3.845584 17.611099 2.477424 10.631128-9.195429 0.014327-0.01228 1.656732 1.564635h21.794376l9.779737-8.964162 12.249999-2.394537 11.147897-0.328481 2.301416-3.539616h10.528797l2.282997-20.295232 2.710738-2.322905 9.15552-2.615571 1.558496-33.035394-2.054799-1.681292 0.016373-0.373507 5.535063-2.62171-1.641383-7.108908 4.25593-0.308015 6.859222 3.679809 2.293229 0.171915 0.11154 0.363274 18.930142 7.2798 7.359618-29.437449-3.573386-1.78567 3.39533-4.702092 4.714372-9.591449 11.777231 2.452865 1.249457 4.106528 14.465456 2.408863 8.243755-5.792936 7.404644-0.822739 7.602142-11.824303 1.266853-13.438057-0.311085-3.938705 1.367137 0.124843 9.587355-3.51608 4.093225-3.314489-0.304945 3.197832 9.594519 6.105045 0.500397 0.341784 0.474814 1.899256 3.664459 10.717086 17.622356 6.293333 2.768043 1.863441 2.071172 11.629875 4.103458 5.319146-0.045025 0.636496-4.015454 5.773494 1.871627 8.188496-4.968151 4.968151V314.086441l12.80156 7.958253 2.976798 1.23206 2.971681 4.754281 13.704117 0.89437 14.899338 2.173502 10.743692 7.310499 11.405771 9.954723 4.598738 1.491981 3.179412 6.469341 4.131087 10.0591 6.095835 12.859889 7.324826 9.765411 15.481599 4.42273 14.337543-0.182149 10.416234 3.65525 23.657816 0.446161 5.257748-2.102894 6.113231 4.467755 15.32708-0.748037 1.568728 1.107218 4.405334 6.606464 13.749142 4.100388 13.824866 5.983272 12.036128 0.23229 0.091074 0.222058 11.30958 8.65103 11.884678-6.880711 3.203972-4.449335 19.929912-10.463306 8.705266-4.425799 1.294482-0.036839 4.872984 2.434445 7.875364-3.675716 8.928347 0.487094 16.990976-3.62455 14.57802-8.230452 10.484796-11.882632 3.312442-6.466272 3.237741-2.313695 11.042497-4.358261 4.154623-16.618493-12.021801-12.215206 1.743713-2.080381 4.177136 2.329045 23.768333 0.273222 15.561418-16.685007 7.249101-0.157589 20.809955-14.594393 1.681292-10.469446 20.977777-15.064091 2.13871 0.056282 7.942903 2.03638 11.305486-1.168616 10.754949-11.127432 1.855254-16.682961-29.356608-21.573341-7.606235-6.2831-11.619642 1.290389-8.894578 4.561899-13.504572 2.111081 5.891174-19.022239 15.014972-0.288572 12.407588-10.250459 3.809769-4.882194 8.547676-0.884136 4.609995-20.161179-2.319836-2.242064 1.266854-10.326183 2.858094-1.906419 1.493004-13.644765 7.072069-8.375761 1.381463-13.116739-6.294356-15.585977 7.66047-2.074241 3.505847-4.841262 9.121751-1.447978 4.481058-2.489704 7.717775-0.390903 5.369288 4.676509 16.044418 0.502444 0.757247-1.177826 11.249205 12.087293 1.324158 5.626137 9.205662 12.703324 1.801019 8.556886 8.79941 7.182586 1.117451 7.638981 3.917216 3.171226 0.976234 6.503111 10.78974 11.870352 19.345604 1.209548 0.010233-0.014327 0.183172 0.236384 12.476149-0.890276 8.318456 5.182022 3.5345 0.603751 0.38374 1.022283 2.939958 2.695388 0.199545 9.531074 7.207146 5.461385 2.714831 11.534708 15.414061-5.929036 10.310834-1.535983 4.816702-3.660366 10.532891-1.974981 2.583848-11.881608 5.810332-4.711302-1.530866 10.109242 1.446955 8.064676v10.16757l0.302899 10.614756-1.292436 2.876513z" fill="#ffffff" p-id="5667"></path><path d="M423.899476 661.829424c4.480035 9.452279 42.976814 18.418488 46.046732 42.976813s7.674796 35.302017 10.743692 66.00018c3.069919 30.698163 27.27418 30.698163 35.893488 21.488407 8.618285-9.209756 36.246529-6.139837 54.665018-15.34857 18.418488-9.209756 28.682249 3.300162 41.441854 20.713765s42.976814 28.402887 61.395302 22.263049c18.418488-6.139837 101.302197-1.534959 107.442034-33.767058 17.201777-90.309842-31.098275-160.866804-150.418848-119.364575-17.651009 6.139837-59.653635 10.387581-69.070098-26.449395-9.41544-36.836977-72.02336-47.836495-95.046727-44.766576-23.023366 3.067872-53.837162 43.586704-43.092447 66.25396z" fill="#ffffff" p-id="5668"></path><path d="M713.992457 453.085192c-27.111474-4.337795-27.628244-12.278651-47.581691 21.488407s-26.093285 48.372707 6.139837 90.558505c32.232099 42.184775 25.272593 34.07712 52.852742 56.790425 111.826901 92.093465 86.821391 49.116651 89.891309 3.069918s-9.209756-73.673953-50.650587-96.697319c-41.441854-23.023366-25.455765-69.070098-29.163203-75.208912" fill="#ffffff" p-id="5669"></path></svg>