<?xml version="1.0" standalone="no"?><!DOCTYPE svg PUBLIC "-//W3C//DTD SVG 1.1//EN" "http://www.w3.org/Graphics/SVG/1.1/DTD/svg11.dtd"><svg t="1533563417739" class="icon" style="" viewBox="0 0 1024 1024" version="1.1" xmlns="http://www.w3.org/2000/svg" p-id="9018" xmlns:xlink="http://www.w3.org/1999/xlink" width="200" height="200"><defs><style type="text/css"></style></defs><path d="M34.816 148.48h240.128v240.64H34.816z" fill="" p-id="9019"></path><path d="M274.432 148.48h240.128v240.64H274.432z" fill="#6C6C6C" p-id="9020"></path><path d="M514.56 148.48h240.128v240.64h-240.128z" fill="" p-id="9021"></path><path d="M34.816 389.12h240.128v240.64H34.816z" fill="#606060" p-id="9022"></path><path d="M274.432 389.12h240.128v240.64H274.432z" fill="#8F8F8F" p-id="9023"></path><path d="M514.56 389.12h240.128v240.64h-240.128z" fill="#C5C5C5" p-id="9024"></path><path d="M754.688 148.48h240.128v240.64h-240.128z" fill="#A2A2A2" p-id="9025"></path><path d="M754.688 389.12h240.128v240.64h-240.128z" fill="#6C6C6C" p-id="9026"></path><path d="M34.816 629.76h240.128v240.64H34.816z" fill="#C5C5C5" p-id="9027"></path><path d="M274.432 629.76h240.128v240.64H274.432z" fill="#6C6C6C" p-id="9028"></path><path d="M514.56 629.76h240.128v240.64h-240.128z" fill="#A2A2A2" p-id="9029"></path><path d="M754.688 629.76h240.128v240.64h-240.128z" fill="#8F8F8F" p-id="9030"></path></svg>