<?xml version="1.0" standalone="no"?><!DOCTYPE svg PUBLIC "-//W3C//DTD SVG 1.1//EN" "http://www.w3.org/Graphics/SVG/1.1/DTD/svg11.dtd"><svg t="1533563730649" class="icon" style="" viewBox="0 0 1024 1024" version="1.1" xmlns="http://www.w3.org/2000/svg" p-id="15568" xmlns:xlink="http://www.w3.org/1999/xlink" width="200" height="200"><defs><style type="text/css"></style></defs><path d="M324.254835 42.237782c5.32409-1.774697 10.985373-1.490745 16.522427-1.366517 0.141976 31.48312-0.461421 62.983986 0.319445 94.467106-1.082565 0.141976-3.229948 0.461421-4.312513 0.603397-61.102808 9.547868-122.276603 18.758544-183.397158 28.128943-8.199099 1.366516-16.55792 1.952166-24.63279 3.97532-1.881179 7.719931-0.887348 15.759307-1.011577 23.621213 0.106482 73.383709-0.035494 146.785165 0.070988 220.168874-0.088735 25.928319 0 51.838891-0.053241 77.76721 0.106482 131.54052-0.124229 263.063293 0.124229 394.603812 22.006239-3.318683 43.923744-7.205269 65.894488-10.807903 18.208388-2.875009 36.381282-6.016222 54.554177-9.175182 30.844229-5.306343 61.865927-9.689844 92.603674-15.652824-0.514662 21.207626 0.053241 42.415251-0.319445 63.622876-0.159723 7.861906 0.159723 15.74156 1.472998 23.514732l0.195217 1.331022c-12.724575-0.248458-25.200693 2.963744-37.80104 4.436742-76.59591 10.559445-153.067591 22.414419-229.716742 32.317227-8.234593-1.863432-17.409775-3.442912-22.822599-10.612686-8.181352-6.229185-9.24617-16.948354-10.807903-26.336499-0.017747-268.493865 0.035494-536.98773-0.035494-805.499342-0.656638-8.234593 0.851854-16.32721 1.792443-24.473067 3.762357-11.500035 12.973033-22.503154 25.608874-24.082635 85.185442-13.98461 170.530607-26.744679 255.751542-40.551819zM941.458856 45.237019c18.776291-2.804021 39.362773 12.973033 38.138232 32.743154 0.035494 276.320277 0 552.640555 0.017747 828.960832 0.851854 10.949879-5.022392 22.325685-14.499272 27.951473-6.193692 4.844922-14.321802 5.199861-21.740034 6.548631-67.811161 9.547868-135.604575 19.344194-203.39799 29.016291-19.521664 2.200624-38.830364 6.708354-58.494003 7.347245-0.017747-31.873553 0.035494-63.747106-0.035494-95.602912v-1.721456c16.451438-0.976083 32.654419-4.170537 48.963882-6.31792 25.839584-3.762357 51.661421-7.684437 77.518752-11.358059 15.439861-2.253865 30.844229-4.685199 46.28409-6.921317a2538.171231 2538.171231 0 0 0 40.125893-5.785511c0.230711-178.019827 0.070988-356.021906 0.088734-534.041733 0-24.526308 0.106482-49.052617-0.088734-73.578926 0.106482-33.488527 0.266205-66.977054-0.053241-100.46558-51.519445 6.90357-103.003397 14.108839-154.505096 21.154384-19.397435 2.324853-38.652894 6.08721-58.192305 7.276257-0.124229-29.5487-0.301698-59.0974 0.088735-88.646101 86.587452-12.138925 173.192652-24.490815 259.780104-36.558752z" fill="#ffffff" p-id="15569" data-spm-anchor-id="a313x.7781069.0.i11" class="selected"></path><path d="M340.777262 40.871265c36.931438 2.253865 73.241733 8.820243 109.942461 12.511612 71.821976 9.65435 143.732686 18.048666 215.501421 27.614281 5.040139 1.277782 10.310988 0.479168 15.457608 0.798613-0.390433 29.5487-0.212964 59.0974-0.088735 88.646101v1.455251c-4.685199-0.088735-9.370399 0-14.037851 0.017747-2.786274-2.076395-6.335667-2.413588-9.583362-1.366516-1.153553-0.106482-3.442912-0.283951-4.578717-0.390434-4.028562-2.182877-8.642773-2.360347-13.044021-1.40201-0.674385-0.106482-2.005407-0.301698-2.679792-0.40818-2.910503-1.98766-6.530884-2.360347-9.849567-1.331023l-4.596464-0.425927c-4.064055-2.147383-8.678267-2.324853-13.079515-1.402011l-2.626551-0.425927c-3.584887-2.023154-7.737678-2.289359-11.695252-1.313275-0.656638-0.088735-1.969913-0.283951-2.626551-0.372687-4.117296-2.147383-8.767002-2.360347-13.22149-1.419757-0.656638-0.124229-1.969913-0.337192-2.608804-0.461421-3.56714-2.023154-7.702184-2.271612-11.624264-1.295529l-2.697539-0.283951c-2.804021-2.076395-6.388908-2.520069-9.672097-1.472998l-6.442149-0.532409c-3.478406-2.040901-7.524714-2.271612-11.358059-1.277782-0.674385-0.053241-2.023154-0.195217-2.697539-0.266205-2.821768-2.076395-6.388908-2.520069-9.672097-1.472998-2.147383-0.195217-4.294766-0.372686-6.442149-0.532409-3.478406-2.040901-7.524714-2.253865-11.358059-1.260035l-2.715286-0.283951c-2.839515-2.076395-6.442149-2.502322-9.778579-1.490745-1.153553-0.088735-3.442912-0.248458-4.596464-0.337193-4.028562-2.200624-8.642773-2.466828-13.044021-1.455251l-2.697539-0.283951c-2.875009-2.076395-6.49539-2.484575-9.83182-1.472999-1.153553-0.088735-3.442912-0.248458-4.596464-0.337192-4.028562-2.200624-8.625026-2.449081-13.044021-1.455251-0.656638-0.088735-2.005407-0.248458-2.679792-0.337193-2.892756-2.040901-6.49539-2.431334-9.83182-1.419757l-4.614211-0.354939c-4.028562-2.16513-8.625026-2.431334-13.026274-1.455252-0.674385-0.070988-2.023154-0.248458-2.697539-0.319445-2.892756-2.040901-6.49539-2.431334-9.83182-1.419757l-4.596464-0.35494c-4.028562-2.182877-8.642773-2.431334-13.044021-1.437504-0.674385-0.088735-2.005407-0.266205-2.679792-0.337193-2.892756-2.040901-6.513137-2.431334-9.849567-1.419757-1.153553-0.088735-3.442912-0.248458-4.596464-0.337192-3.92208-2.094142-8.358821-2.449081-12.689082-1.881179-4.631958-0.124229-9.263917 0.088735-13.860381 0.727626-0.780867-31.48312-0.17747-62.983986-0.319445-94.467106zM340.936984 848.571231c14.091092-3.265442 28.466135-1.1713 42.415252 1.668214 89.338232 11.340312 178.711958 22.503154 268.05019 33.82572 10.044783 1.260035 20.107314-0.40818 30.045616-1.863432 0.070988 31.855806 0.017747 63.729359 0.035494 95.602912-10.044783 0.638891-19.787868-1.721456-29.72617-2.360347-10.310988-2.271612-20.941421-2.395841-31.30565-4.15279-88.379896-11.038614-176.742045-22.165962-265.175182-33.098094-4.277019-1.384263-8.696014-2.253865-13.185997-2.484575-1.313276-7.773172-1.632721-15.652825-1.472998-23.514732 0.372686-21.207626-0.195217-42.415251 0.319445-63.622876z" fill="#F4F5F9" p-id="15570"></path><path d="M341.096707 135.338371c4.596464-0.638891 9.228423-0.851854 13.860381-0.727626 3.638128 2.875009 8.341075 3.283189 12.689082 1.881179 1.153553 0.088735 3.442912 0.248458 4.596464 0.337192 2.821768 2.200624 6.513137 2.591057 9.849567 1.419757 0.674385 0.070988 2.005407 0.248458 2.679792 0.337193 3.975321 2.378094 8.625026 2.733033 13.044021 1.437504l4.596464 0.35494c2.821768 2.200624 6.49539 2.591057 9.83182 1.419757 0.674385 0.070988 2.023154 0.248458 2.697539 0.319445 3.957574 2.395841 8.625026 2.768527 13.026274 1.455252l4.614211 0.354939c2.804021 2.200624 6.49539 2.591057 9.83182 1.419757 0.674385 0.088735 2.023154 0.248458 2.679792 0.337193 3.975321 2.378094 8.642773 2.733033 13.044021 1.455251 1.153553 0.088735 3.442912 0.248458 4.596464 0.337192 2.821768 2.182877 6.477643 2.608804 9.83182 1.472999l2.697539 0.283951c3.975321 2.378094 8.625026 2.715286 13.044021 1.455251 1.153553 0.088735 3.442912 0.248458 4.596464 0.337193 2.786274 2.200624 6.459896 2.626551 9.778579 1.490745l2.715286 0.283951c3.389671 2.271612 7.542461 2.679792 11.358059 1.260035 2.147383 0.159723 4.294766 0.337192 6.442149 0.532409 2.733033 2.218371 6.371161 2.644298 9.672097 1.472998 0.674385 0.070988 2.023154 0.212964 2.697539 0.266205 3.389671 2.289359 7.542461 2.697539 11.358059 1.277782l6.442149 0.532409c2.733033 2.218371 6.371161 2.644298 9.672097 1.472998l2.697539 0.283951c3.496153 2.253865 7.702184 2.644298 11.624264 1.295529 0.638891 0.124229 1.952166 0.337192 2.608804 0.461421 4.028562 2.360347 8.749255 2.733033 13.22149 1.419757 0.656638 0.088735 1.969913 0.283951 2.626551 0.372687 3.531646 2.236118 7.755425 2.626551 11.695252 1.313275l2.626551 0.425927c3.975321 2.395841 8.66052 2.768527 13.079515 1.402011l4.596464 0.425927c2.821768 2.16513 6.513137 2.555563 9.849567 1.331023 0.674385 0.106482 2.005407 0.301698 2.679792 0.40818 3.975321 2.360347 8.642773 2.733033 13.044021 1.40201 1.135806 0.106482 3.425165 0.283951 4.578717 0.390434 2.715286 2.218371 6.335667 2.626551 9.583362 1.366516 4.667452-0.017747 9.352652-0.106482 14.037851-0.017747-0.195217 50.933795-0.159723 101.867591-0.017747 152.801387v1.40201c-8.163605 2.484575-16.14974 5.679029-24.686031 6.619619-2.999237-1.774697-6.743847-1.721456-9.405892 0.63889-3.993068 0.283951-7.986135 0.567903-11.979203 0.798614-3.070225-1.490745-6.726101-1.331023-9.334905 0.99383-4.028562 0.283951-8.057123 0.550156-12.067937 0.798614-3.460659-1.366516-8.163605-2.200624-10.559446 1.437504-4.117296-0.053241-8.234593 0.124229-12.351889 0.248458-3.087972-1.472998-6.726101-1.1713-9.263917 1.206793-4.010815 0.248458-8.021629 0.479168-12.014696 0.692132-3.070225-1.57948-6.743847-1.331023-9.299411 1.082565-4.010815 0.248458-8.003882 0.479168-12.014697 0.674385-3.052478-1.561733-6.743847-1.313276-9.299411 1.082565-3.993068 0.248458-8.003882 0.479168-11.996949 0.692131-3.070225-1.561733-6.743847-1.331023-9.299411 1.064818-4.010815 0.266205-8.003882 0.496915-11.99695 0.709879-3.070225-1.543986-6.743847-1.331023-9.317158 1.047071-3.993068 0.266205-7.986135 0.514662-11.979202 0.727626-3.070225-1.543986-6.761594-1.366516-9.334905 1.011577-3.993068 0.266205-7.986135 0.532409-11.979203 0.76312-3.070225-1.543986-6.743847-1.366516-9.334904 1.011577-3.993068 0.266205-7.986135 0.514662-11.961456 0.745372-3.070225-1.526239-6.761594-1.366516-9.334905 1.011577-3.993068 0.283951-7.986135 0.532409-11.961456 0.76312-3.070225-1.526239-6.743847-1.366516-9.334904 1.011577-3.993068 0.266205-7.986135 0.532409-11.979203 0.76312-3.070225-1.526239-6.743847-1.348769-9.317158 1.011577-4.010815 0.266205-8.003882 0.514662-11.99695 0.745372-3.070225-1.490745-6.708354-1.331023-9.317157 1.011578-3.993068 0.266205-7.986135 0.532409-11.979203 0.763119-3.070225-1.490745-6.708354-1.331023-9.334905 0.958336-2.271612 0.195217-4.525477 0.40818-6.779341 0.603397-0.035494-62.806516-0.017747-125.613033-0.017747-188.419549-0.017747-11.145095 0.532409-22.325685-0.621144-33.435286l-3.33643-0.99383c1.082565-0.141976 3.229948-0.461421 4.312513-0.603397z" fill="#5C9BEA" p-id="15571"></path><path d="M354.957088 134.610745c4.33026-0.567903 8.767002-0.212964 12.689082 1.881179-4.348007 1.40201-9.050953 0.99383-12.689082-1.881179z" fill="#8299B8" p-id="15572"></path><path d="M153.387036 164.070711c61.120555-9.370399 122.29435-18.581075 183.397158-28.128943l3.33643 0.99383c1.153553 11.109601 0.603397 22.290191 0.621144 33.435286 0 62.806516-0.017747 125.613033 0.017747 188.419549-1.792444 0.514662-3.549393 1.029324-5.32409 1.526239-2.395841-0.940589-4.277019-0.337192-5.625789 1.827938l-1.419757-0.248457c-2.413588-0.81636-4.277019-0.159723-5.590295 2.005407l-1.455251-0.230711c-2.413588-0.798614-4.294766-0.141976-5.643536 2.005407l-1.437504-0.212963c-2.413588-0.81636-4.312513-0.159723-5.643536 1.98766l-1.455251-0.212963c-2.413588-0.81636-4.294766-0.141976-5.643535 2.005407l-1.455252-0.230711c-2.413588-0.81636-4.294766-0.141976-5.643535 2.005408l-1.437505-0.230711c-2.431334-0.81636-4.312513-0.141976-5.643535 2.005407l-1.455251-0.23071c-2.413588-0.798614-4.294766-0.141976-5.643536 2.005407l-1.455251-0.212964c-2.413588-0.81636-4.294766-0.159723-5.643536 1.987661l-1.455251-0.212964c-2.413588-0.81636-4.294766-0.141976-5.643536 2.005407l-1.455251-0.23071c-2.413588-0.81636-4.294766-0.141976-5.643535 2.005407l-1.437505-0.23071c-2.413588-0.81636-4.294766-0.141976-5.661282 1.98766l-1.437505-0.212964c-2.431334-0.81636-4.312513-0.141976-5.661282 2.005408l-1.508492-0.195217c-0.976083 0.461421-2.92825 1.366516-3.904333 1.827937l-3.300936-0.141975c-0.940589 0.496915-2.857262 1.508492-3.797851 2.023154-0.81636-0.053241-2.449081-0.141976-3.265442-0.195217-0.958336 0.496915-2.875009 1.490745-3.833345 1.969914-0.81636-0.035494-2.449081-0.141976-3.265442-0.195217-0.940589 0.496915-2.857262 1.490745-3.815598 1.98766l-3.265442-0.212963c-0.958336 0.496915-2.857262 1.490745-3.815597 1.98766-0.81636-0.035494-2.449081-0.141976-3.247695-0.195217-0.958336 0.496915-2.875009 1.490745-3.833345 1.969914-0.81636-0.035494-2.449081-0.141976-3.265442-0.195217-0.958336 0.496915-2.857262 1.490745-3.815598 1.969913-0.81636-0.035494-2.449081-0.141976-3.265442-0.195216-0.958336 0.496915-2.875009 1.490745-3.815598 1.98766l-3.265442-0.212963c-0.958336 0.514662-2.857262 1.508492-3.815598 2.005407-0.81636-0.035494-2.449081-0.124229-3.265442-0.159723-0.958336 0.461421-2.910503 1.366516-3.886586 1.827938l-1.508492-0.195217c-2.413588-0.798614-4.294766-0.124229-5.625788 2.023154l-1.437505-0.23071c-2.413588-0.81636-4.294766-0.159723-5.625788 1.98766l-1.455252-0.212964c-2.413588-0.81636-4.294766-0.141976-5.643535 2.005408l-1.455251-0.230711c-2.413588-0.81636-4.294766-0.141976-5.643536 2.005407l-1.455251-0.212963c-2.395841-0.834107-4.294766-0.195217-5.714524 1.881178l-1.490745-0.177469c-2.644298-0.798614-4.348007 0.035494-5.093379 2.502322l-5.537054-0.425927c-0.106482-73.383709 0.035494-146.785165-0.070988-220.168874 0.124229-7.861906-0.869601-15.901282 1.011577-23.621213 8.07487-2.023154 16.433692-2.608804 24.63279-3.97532zM739.782322 163.165615c51.501698-7.045546 102.98565-14.250815 154.505096-21.154384 0.319445 33.488527 0.159723 66.977054 0.053241 100.46558-58.298787 21.846516-116.011924 45.29026-174.097747 67.75792-12.902045 4.773934-25.413657 10.64818-38.670642 14.463779-0.141976-50.933795-0.17747-101.867591 0.017747-152.801387v-1.455251c19.539411-1.189047 38.79487-4.951404 58.192305-7.276257z" fill="#558DD3" p-id="15573"></path><path d="M372.242634 136.829116c3.33643-1.011577 6.956811-0.621144 9.849567 1.419757-3.33643 1.1713-7.027799 0.780867-9.849567-1.419757z" fill="#8496B0" p-id="15574"></path><path d="M384.771993 138.586066c4.401248-0.99383 9.015459-0.745373 13.044021 1.437504-4.418995 1.295529-9.0687 0.940589-13.044021-1.437504z" fill="#849AB9" p-id="15575"></path><path d="M402.412478 140.37851c3.33643-1.011577 6.939064-0.621144 9.83182 1.419757-3.33643 1.1713-7.010052 0.780867-9.83182-1.419757z" fill="#8497B0" p-id="15576"></path><path d="M414.941837 142.117712c4.401248-0.976083 8.997712-0.709879 13.026274 1.455252-4.401248 1.313276-9.0687 0.940589-13.026274-1.455252z" fill="#849BB9" p-id="15577"></path><path d="M432.582322 143.927903c3.33643-1.011577 6.939064-0.621144 9.83182 1.419757-3.33643 1.1713-7.027799 0.780867-9.83182-1.419757z" fill="#8597B0" p-id="15578"></path><path d="M445.093934 145.684853c4.418995-0.99383 9.015459-0.745373 13.044021 1.455251-4.401248 1.277782-9.0687 0.922842-13.044021-1.455251z" fill="#859CB9" p-id="15579"></path><path d="M462.734419 147.477296c3.33643-1.011577 6.956811-0.603397 9.83182 1.472999-3.354177 1.135806-7.010052 0.709879-9.83182-1.472999z" fill="#8597B0" p-id="15580"></path><path d="M475.263778 149.234246c4.401248-1.011577 9.015459-0.745373 13.044021 1.455251-4.418995 1.260035-9.0687 0.922842-13.044021-1.455251z" fill="#869CB9" p-id="15581"></path><path d="M492.904263 151.02669c3.33643-1.011577 6.939064-0.58565 9.778579 1.490745-3.318683 1.135806-6.992305 0.709879-9.778579-1.490745z" fill="#8698B0" p-id="15582"></path><path d="M505.398128 152.801386c3.833345-0.99383 7.879653-0.780867 11.358059 1.260035-3.815598 1.419757-7.968388 1.011577-11.358059-1.260035z" fill="#7C94B5" p-id="15583"></path><path d="M523.198336 154.59383c3.283189-1.047071 6.850329-0.603397 9.672097 1.472998-3.300936 1.1713-6.939064 0.745373-9.672097-1.472998z" fill="#8798B1" p-id="15584"></path><path d="M535.567972 156.333033c3.833345-0.99383 7.879653-0.76312 11.358059 1.277782-3.815598 1.419757-7.968388 1.011577-11.358059-1.277782zM565.737816 159.900173c3.92208-0.976083 8.057123-0.727626 11.624264 1.295529-3.92208 1.348769-8.128111 0.958336-11.624264-1.295529z" fill="#7D95B5" p-id="15585"></path><path d="M553.36818 158.143224c3.283189-1.047071 6.868076-0.603397 9.672097 1.472998-3.300936 1.1713-6.939064 0.745373-9.672097-1.472998z" fill="#8798B0" p-id="15586"></path><path d="M579.970884 161.657123c4.454489-0.940589 9.104194-0.727626 13.22149 1.419757-4.472236 1.313276-9.192929 0.940589-13.22149-1.419757z" fill="#7E97B8" p-id="15587"></path><path d="M595.818925 163.449567c3.957574-0.976083 8.110364-0.709879 11.695252 1.313275-3.939827 1.313276-8.163605 0.922842-11.695252-1.313275z" fill="#7E95B5" p-id="15588"></path><path d="M610.140728 165.188769c4.401248-0.922842 9.015459-0.745373 13.079515 1.402011-4.418995 1.366516-9.104194 0.99383-13.079515-1.402011z" fill="#7E97B7" p-id="15589"></path><path d="M627.816707 167.016707c3.318683-1.029324 6.939064-0.656638 9.849567 1.331023-3.33643 1.224541-7.027799 0.834107-9.849567-1.331023z" fill="#8296B1" p-id="15590"></path><path d="M640.346066 168.75591c4.401248-0.958336 9.015459-0.780867 13.044021 1.40201-4.401248 1.331023-9.0687 0.958336-13.044021-1.40201z" fill="#7F97B7" p-id="15591"></path><path d="M657.968804 170.548354c3.247695-1.047071 6.797088-0.709879 9.583362 1.366516-3.247695 1.260035-6.868076 0.851854-9.583362-1.366516z" fill="#8396B1" p-id="15592"></path><path d="M720.242912 310.234731c58.085823-22.46766 115.79896-45.911404 174.097747-67.75792 0.195217 24.526308 0.088735 49.052617 0.088734 73.578926-44.828839 18.261629-89.764159 36.239307-134.770468 54.039514 15.262392 81.547314 31.71383 162.899411 47.437643 244.375737 15.688319 80.464749 31.48312 160.929497 47.118198 241.411993-15.439861 2.236118-30.844229 4.667452-46.28409 6.921317-0.798614-0.17747-2.395841-0.496915-3.194454-0.656638-28.590364-158.622392-55.583501-317.564229-84.173865-476.18662-12.99078 4.702946-25.750849 9.973795-38.564159 15.15591-1.100312-24.98773-0.372686-50.010953-0.425928-75.01643v-1.40201c13.256984-3.815598 25.768596-9.689844 38.670642-14.463779zM335.435425 360.316672c1.774697-0.496915 3.531646-1.011577 5.32409-1.526239-0.106482 26.584957 0.248458 53.18766-0.230711 79.75487v1.490746c-9.42364 1.153553-18.616568 3.584887-27.827244 5.767764-61.635217 14.676742-123.376915 28.892062-184.941144 43.799515 0.053241-25.928319-0.035494-51.838891 0.053241-77.76721l5.537054 0.425927c2.289359 0.425927 3.993068-0.40818 5.093379-2.502322l1.490745 0.177469c2.413588 0.869601 4.312513 0.230711 5.714524-1.881178l1.455251 0.212963c2.413588 0.798614 4.294766 0.124229 5.643536-2.005407l1.455251 0.230711c2.413588 0.798614 4.294766 0.124229 5.643535-2.005408l1.455252 0.212964c2.395841 0.81636 4.277019 0.141976 5.625788-1.98766l1.437505 0.23071c2.413588 0.798614 4.294766 0.124229 5.625788-2.023154l1.508492 0.195217c0.976083-0.461421 2.92825-1.366516 3.886586-1.827938 0.81636 0.035494 2.449081 0.124229 3.265442 0.159723 0.958336-0.496915 2.857262-1.490745 3.815598-2.005407l3.265442 0.212963c0.940589-0.496915 2.857262-1.490745 3.815598-1.98766 0.81636 0.053241 2.449081 0.159723 3.265442 0.195216 0.958336-0.479168 2.857262-1.472998 3.815598-1.969913 0.81636 0.053241 2.449081 0.159723 3.265442 0.195217 0.958336-0.479168 2.875009-1.472998 3.833345-1.969914 0.798614 0.053241 2.431334 0.159723 3.247695 0.195217 0.958336-0.496915 2.857262-1.490745 3.815597-1.98766l3.265442 0.212963c0.958336-0.496915 2.875009-1.490745 3.815598-1.98766 0.81636 0.053241 2.449081 0.159723 3.265442 0.195217 0.958336-0.479168 2.875009-1.472998 3.833345-1.969914 0.81636 0.053241 2.449081 0.141976 3.265442 0.195217 0.940589-0.514662 2.857262-1.526239 3.797851-2.023154l3.300936 0.141975c0.976083-0.461421 2.92825-1.366516 3.904333-1.827937l1.508492 0.195217c2.413588 0.780867 4.294766 0.106482 5.661282-2.005408l1.437505 0.212964c2.413588 0.81636 4.294766 0.141976 5.661282-1.98766l1.437505 0.23071c2.413588 0.798614 4.294766 0.124229 5.643535-2.005407l1.455251 0.23071c2.413588 0.798614 4.294766 0.124229 5.643536-2.005407l1.455251 0.212964c2.413588 0.798614 4.294766 0.141976 5.643536-1.987661l1.455251 0.212964c2.413588 0.798614 4.294766 0.141976 5.643536-2.005407l1.455251 0.23071c2.395841 0.798614 4.277019 0.124229 5.643535-2.005407l1.437505 0.230711c2.413588 0.798614 4.294766 0.124229 5.643535-2.005408l1.455252 0.230711c2.413588 0.798614 4.294766 0.124229 5.643535-2.005407l1.455251 0.212963c2.395841 0.798614 4.277019 0.141976 5.643536-1.98766l1.437504 0.212963c2.413588 0.798614 4.294766 0.141976 5.643536-2.005407l1.455251 0.230711c2.395841 0.798614 4.259272 0.124229 5.590295-2.005407l1.419757 0.248457c2.3426 0.851854 4.206031 0.230711 5.625789-1.827938zM319.658371 695.840832c6.726101-7.471473 12.99078-15.439861 20.852686-21.757782 0.337192 23.284021 0.301698 46.585789 0.266205 69.86981l-0.141976 2.786273c-10.577192 11.553276-19.645893 24.366586-29.353484 36.647487-20.976915 26.957643-41.829601 54.004021-62.948492 80.837435-18.172894 3.15896-36.345789 6.300173-54.554177 9.175182 5.182114-16.628908 10.364229-33.257816 15.652825-49.833483 2.644298-9.317158 10.24-15.74156 16.380451-22.751612 31.323397-34.961525 62.540312-69.994038 93.845962-104.97331z" fill="#DCA93E" p-id="15593"></path><path d="M759.658925 370.095251c45.006308-17.800208 89.941629-35.777886 134.770468-54.039514-0.017747 178.019827 0.141976 356.021906-0.088734 534.041733a2538.171231 2538.171231 0 0 1-40.125893 5.785511c-15.635078-80.482496-31.429879-160.947244-47.118198-241.411993-15.723813-81.476326-32.175251-162.828423-47.437643-244.375737zM312.70156 445.803813c9.210676-2.182877 18.403605-4.614211 27.827244-5.767764 0.319445 77.536499 0.390433 155.072998 0 232.59175l-0.017747 1.455251c-7.861906 6.31792-14.126586 14.286308-20.852686 21.757782-31.30565 34.979272-62.522565 70.011785-93.845962 104.97331-6.140451 7.010052-13.736153 13.434454-16.380451 22.751612-5.288596 16.575667-10.470711 33.204575-15.652825 49.833483-21.970745 3.602634-43.88825 7.48922-65.894488 10.807903-0.248458-131.54052-0.017747-263.063293-0.124229-394.603812 61.564229-14.907452 123.305927-29.122773 184.941144-43.799515z" fill="#42BA9D" p-id="15594"></path><path d="M656.886239 332.720139c8.536291-0.940589 16.522426-4.135043 24.686031-6.619619 0.053241 25.005477-0.674385 50.0287 0.425928 75.01643-0.496915 0.212964-1.526239 0.638891-2.023155 0.851854a78.150544 78.150544 0 0 1-32.157504 7.897401c-47.757088 4.383501-95.49643 8.873484-143.218024 13.452201-14.339549 66.817331-28.235425 133.723397-42.184541 200.611715-2.040901 8.376568-2.040901 18.474593-9.388146 24.295598-25.80409 22.094974-51.483951 44.331924-77.181559 66.568874-11.730745 9.65435-22.485407 20.568735-35.068007 29.158267 0.035494-23.284021 0.070988-46.585789-0.266205-69.86981l0.017747-1.455251c19.415182-12.298648 37.375113-26.744679 56.382115-39.664471 4.614211-3.549393 11.074107-6.566378 11.730745-13.097262 11.091854-63.445407 22.361179-126.873068 33.382045-190.336222-13.57643 1.100312-27.15286 2.449081-40.72929 3.655875-3.105719-1.189047-6.548631-0.834107-9.263916 1.100312-17.196811 1.047071-34.269393 3.655875-51.501699 4.259272 0.479168-26.56721 0.124229-53.169913 0.230711-79.75487 2.253865-0.195217 4.50773-0.40818 6.779341-0.603397 3.105719 1.189047 6.548631 0.887348 9.334905-0.958336 3.993068-0.230711 7.986135-0.496915 11.979203-0.763119 3.105719 1.135806 6.530884 0.81636 9.317157-1.011578 3.993068-0.230711 7.986135-0.479168 11.99695-0.745372 3.105719 1.118059 6.513137 0.780867 9.317158-1.011577 3.993068-0.230711 7.986135-0.496915 11.979203-0.76312 3.105719 1.100312 6.530884 0.780867 9.334904-1.011577 3.975321-0.230711 7.968388-0.479168 11.961456-0.76312 3.105719 1.100312 6.513137 0.780867 9.334905-1.011577 3.975321-0.230711 7.968388-0.479168 11.961456-0.745372 3.123466 1.082565 6.530884 0.780867 9.334904-1.011577 3.993068-0.230711 7.986135-0.496915 11.979203-0.76312 3.105719 1.082565 6.530884 0.780867 9.334905-1.011577 3.993068-0.212964 7.986135-0.461421 11.979202-0.727626 3.123466 1.064818 6.513137 0.745373 9.317158-1.047071 3.993068-0.212964 7.986135-0.443674 11.99695-0.709879 3.105719 1.047071 6.513137 0.745373 9.299411-1.064818 3.993068-0.212964 8.003882-0.443674 11.996949-0.692131 3.123466 1.047071 6.513137 0.727626 9.299411-1.082565 4.010815-0.195217 8.003882-0.425927 12.014697-0.674385 3.123466 1.029324 6.513137 0.709879 9.299411-1.082565 3.993068-0.212964 8.003882-0.443674 12.014696-0.692132 3.123466 1.047071 6.530884 0.709879 9.263917-1.206793 4.117296-0.124229 8.234593-0.301698 12.351889-0.248458 3.584887 0.532409 7.223016 0.053241 10.559446-1.437504 4.010815-0.248458 8.039376-0.514662 12.067937-0.798614 3.105719 1.153553 6.530884 0.834107 9.334905-0.99383 3.993068-0.230711 7.986135-0.514662 11.979203-0.798614 3.087972 1.135806 6.477643 0.887348 9.405892-0.63889z" fill="#F4BA42" p-id="15595"></path><path d="M647.480347 333.359029c2.662045-2.360347 6.406655-2.413588 9.405892-0.63889-2.92825 1.526239-6.31792 1.774697-9.405892 0.63889z" fill="#7C827E" p-id="15596"></path><path d="M626.166239 335.151473c2.608804-2.324853 6.264679-2.484575 9.334905-0.99383-2.804021 1.827938-6.229185 2.147383-9.334905 0.99383z" fill="#7E837F" p-id="15597"></path><path d="M603.538856 337.387591c2.395841-3.638128 7.098787-2.804021 10.559446-1.437504-3.33643 1.490745-6.974558 1.969913-10.559446 1.437504z" fill="#7B8588" p-id="15598"></path><path d="M581.92305 338.842842c2.537816-2.378094 6.175945-2.679792 9.263917-1.206793-2.733033 1.916672-6.140451 2.253865-9.263917 1.206793z" fill="#6F7C86" p-id="15599"></path><path d="M560.608943 340.617539c2.555563-2.413588 6.229185-2.662045 9.299411-1.082565-2.786274 1.792444-6.175945 2.111889-9.299411 1.082565z" fill="#6F7B84" p-id="15600"></path><path d="M539.294835 342.374489c2.555563-2.395841 6.246932-2.644298 9.299411-1.082565-2.786274 1.810191-6.175945 2.129636-9.299411 1.082565z" fill="#707B83" p-id="15601"></path><path d="M517.998475 344.131438c2.555563-2.395841 6.229185-2.626551 9.299411-1.064818-2.786274 1.810191-6.193692 2.111889-9.299411 1.064818z" fill="#707B82" p-id="15602"></path><path d="M496.684367 345.888388c2.57331-2.378094 6.246932-2.591057 9.317158-1.047071-2.804021 1.792444-6.193692 2.111889-9.317158 1.047071z" fill="#717B80" p-id="15603"></path><path d="M475.37026 347.627591c2.57331-2.378094 6.264679-2.555563 9.334905-1.011577-2.804021 1.792444-6.229185 2.094142-9.334905 1.011577z" fill="#727B7F" p-id="15604"></path><path d="M454.056153 349.402288c2.591057-2.378094 6.264679-2.555563 9.334904-1.011577-2.804021 1.792444-6.211438 2.094142-9.334904 1.011577z" fill="#737C7E" p-id="15605"></path><path d="M432.759792 351.159237c2.57331-2.378094 6.264679-2.537816 9.334905-1.011577-2.821768 1.792444-6.229185 2.111889-9.334905 1.011577z" fill="#767D7D" p-id="15606"></path><path d="M411.463432 352.933934c2.591057-2.378094 6.264679-2.537816 9.334904-1.011577-2.804021 1.792444-6.229185 2.111889-9.334904 1.011577z" fill="#777E7D" p-id="15607"></path><path d="M390.167071 354.708631c2.57331-2.360347 6.246932-2.537816 9.317158-1.011577-2.804021 1.792444-6.211438 2.129636-9.317158 1.011577z" fill="#797F7D" p-id="15608"></path><path d="M368.852964 356.465581c2.608804-2.3426 6.246932-2.502322 9.317157-1.011578-2.786274 1.827938-6.211438 2.147383-9.317157 1.011578z" fill="#7C817E" p-id="15609"></path><path d="M347.538856 358.187036c2.626551-2.289359 6.264679-2.449081 9.334905-0.958336-2.786274 1.845685-6.229185 2.147383-9.334905 0.958336z" fill="#7E827F" p-id="15610"></path><path d="M329.809636 362.14461c1.348769-2.16513 3.229948-2.768527 5.625789-1.827938-1.419757 2.058648-3.283189 2.679792-5.625789 1.827938zM161.302184 404.701837c1.331023-2.147383 3.212201-2.804021 5.625788-1.98766-1.348769 2.129636-3.229948 2.804021-5.625788 1.98766z" fill="#877F65" p-id="15611"></path><path d="M322.799584 363.90156c1.313276-2.16513 3.176707-2.821768 5.590295-2.005407-1.331023 2.129636-3.194454 2.804021-5.590295 2.005407zM147.10461 408.268977c1.348769-2.147383 3.229948-2.821768 5.643536-2.005407-1.348769 2.129636-3.229948 2.804021-5.643536 2.005407z" fill="#847D66" p-id="15612"></path><path d="M315.700797 365.676256c1.348769-2.147383 3.229948-2.804021 5.643536-2.005407-1.348769 2.147383-3.229948 2.804021-5.643536 2.005407zM139.934835 409.937192c1.419757-2.076395 3.318683-2.715286 5.714524-1.881178-1.40201 2.111889-3.300936 2.75078-5.714524 1.881178z" fill="#847E67" p-id="15613"></path><path d="M308.619757 367.450953c1.331023-2.147383 3.229948-2.804021 5.643536-1.98766-1.366516 2.129636-3.247695 2.786274-5.643536 1.98766zM133.350711 412.262045c0.745373-2.466828 2.449081-3.300936 5.093379-2.502322-1.100312 2.094142-2.804021 2.92825-5.093379 2.502322z" fill="#827D68" p-id="15614"></path><path d="M301.520971 369.243397c1.348769-2.147383 3.229948-2.821768 5.643535-2.005407-1.348769 2.129636-3.229948 2.804021-5.643535 2.005407z" fill="#817D69" p-id="15615"></path><path d="M294.422184 371.018094c1.348769-2.147383 3.229948-2.821768 5.643535-2.005408-1.348769 2.129636-3.229948 2.804021-5.643535 2.005408z" fill="#807C6B" p-id="15616"></path><path d="M287.341144 372.79279c1.331023-2.147383 3.212201-2.821768 5.643535-2.005407-1.366516 2.129636-3.247695 2.804021-5.643535 2.005407z" fill="#7F7D6D" p-id="15617"></path><path d="M280.242357 374.567487c1.348769-2.147383 3.229948-2.804021 5.643536-2.005407-1.348769 2.147383-3.229948 2.804021-5.643536 2.005407z" fill="#7D7D6F" p-id="15618"></path><path d="M273.14357 376.342184c1.348769-2.147383 3.229948-2.804021 5.643536-1.987661-1.348769 2.129636-3.229948 2.786274-5.643536 1.987661z" fill="#7B7C70" p-id="15619"></path><path d="M266.044783 378.134627c1.348769-2.147383 3.229948-2.821768 5.643536-2.005407-1.348769 2.129636-3.229948 2.804021-5.643536 2.005407z" fill="#7A7B71" p-id="15620"></path><path d="M258.945997 379.909324c1.348769-2.147383 3.229948-2.821768 5.643535-2.005407-1.348769 2.129636-3.229948 2.804021-5.643535 2.005407z" fill="#7A7B73" p-id="15621"></path><path d="M251.84721 381.666274c1.366516-2.129636 3.247695-2.804021 5.661282-1.98766-1.366516 2.129636-3.247695 2.804021-5.661282 1.98766z" fill="#787B74" p-id="15622"></path><path d="M244.748423 383.458718c1.348769-2.147383 3.229948-2.821768 5.661282-2.005408-1.366516 2.111889-3.247695 2.786274-5.661282 2.005408z" fill="#787D77" p-id="15623"></path><path d="M239.335598 385.091438c0.976083-0.461421 2.92825-1.366516 3.904333-1.827937-0.976083 0.461421-2.92825 1.366516-3.904333 1.827937z" fill="#837C64" p-id="15624"></path><path d="M232.236811 386.972617c0.940589-0.514662 2.857262-1.526239 3.797851-2.023154-0.940589 0.496915-2.857262 1.508492-3.797851 2.023154z" fill="#817B65" p-id="15625"></path><path d="M225.138024 388.747314c0.958336-0.479168 2.875009-1.472998 3.833345-1.969914-0.958336 0.496915-2.875009 1.490745-3.833345 1.969914z" fill="#7D7864" p-id="15626"></path><path d="M681.998198 401.11695c12.81331-5.182114 25.57338-10.452964 38.564159-15.15591 28.590364 158.622392 55.583501 317.564229 84.173865 476.18662 0.798614 0.159723 2.395841 0.479168 3.194454 0.656638-25.857331 3.673622-51.679168 7.595702-77.518752 11.358059-16.309463 2.147383-32.512444 5.341837-48.963882 6.31792-0.017747-145.010468 0.017747-290.020936-0.017747-435.031404-0.212964-14.499272 1.135806-29.122773-1.455252-43.480069 0.496915-0.212964 1.526239-0.638891 2.023155-0.851854zM311.281802 783.38662c9.707591-12.280901 18.776291-25.094211 29.353484-36.647487 0.283951 33.932201-0.159723 67.882149 0.301698 101.832098-30.737747 5.962981-61.759445 10.346482-92.603674 15.652824 21.118891-26.833414 41.971577-53.879792 62.948492-80.837435z" fill="#D8C9C0" p-id="15627"></path><path d="M218.056984 390.539757c0.958336-0.496915 2.875009-1.490745 3.815598-1.98766-0.940589 0.496915-2.857262 1.490745-3.815598 1.98766z" fill="#7B7765" p-id="15628"></path><path d="M210.975945 392.314454c0.958336-0.496915 2.857262-1.490745 3.815597-1.98766-0.958336 0.496915-2.857262 1.490745-3.815597 1.98766z" fill="#797665" p-id="15629"></path><path d="M203.894905 394.089151z" fill="#787567" p-id="15630"></path><path d="M196.813865 395.863847c0.958336-0.479168 2.857262-1.472998 3.815598-1.969913-0.958336 0.496915-2.857262 1.490745-3.815598 1.969913z" fill="#777568" p-id="15631"></path><path d="M189.732825 397.656291z" fill="#777569" p-id="15632"></path><path d="M182.651785 399.448735z" fill="#767469" p-id="15633"></path><path d="M175.499757 401.11695c0.976083-0.461421 2.92825-1.366516 3.886586-1.827938-0.958336 0.461421-2.910503 1.366516-3.886586 1.827938z" fill="#74756A" p-id="15634"></path><path d="M168.365477 402.944887c1.331023-2.147383 3.212201-2.821768 5.625788-2.023154-1.331023 2.147383-3.212201 2.821768-5.625788 2.023154z" fill="#887F63" p-id="15635"></path><path d="M647.817539 409.866205c11.180589-0.301698 22.094974-2.999237 32.157504-7.897401 2.591057 14.357296 1.242288 28.980797 1.455252 43.480069 0.035494 145.010468 0 290.020936 0.017747 435.031404v1.721456c-9.938302 1.455251-20.000832 3.123466-30.045616 1.863432-89.338232-11.322565-178.711958-22.485407-268.05019-33.82572-13.949116-2.839515-28.324159-4.933657-42.415252-1.668214-0.461421-33.949948-0.017747-67.899896-0.301698-101.832098l0.141976-2.786273c12.5826-8.589532 23.337262-19.503917 35.068007-29.158267 25.697608-22.23695 51.37747-44.473899 77.181559-66.568874 7.347244-5.821005 7.347244-15.919029 9.388146-24.295598 13.949116-66.888319 27.844991-133.794385 42.184541-200.611715 47.721594-4.578718 95.460936-9.0687 143.218024-13.452201z" fill="#F0DDD3" p-id="15636"></path><path d="M154.203397 406.494281c1.348769-2.147383 3.229948-2.821768 5.643535-2.005408-1.348769 2.129636-3.229948 2.804021-5.643535 2.005408z" fill="#877F65" p-id="15637"></path><path d="M401.294419 433.185719c13.57643-1.206794 27.15286-2.555563 40.72929-3.655875-11.020867 63.463154-22.290191 126.890815-33.382045 190.336222-0.656638 6.530884-7.116534 9.547868-11.730745 13.097262-19.007002 12.919792-36.966932 27.365823-56.382115 39.664471 0.390433-77.518752 0.319445-155.055251 0-232.59175v-1.490746c17.232305-0.603397 34.304887-3.212201 51.501699-4.259272 3.070225 1.472998 6.655113 1.135806 9.263916-1.100312z" fill="#47CDAD" p-id="15638"></path><path d="M392.030503 434.286031c2.715286-1.934419 6.158198-2.289359 9.263916-1.100312-2.608804 2.236118-6.193692 2.57331-9.263916 1.100312z" fill="#86B285" p-id="15639"></path></svg>