<?xml version="1.0" standalone="no"?><!DOCTYPE svg PUBLIC "-//W3C//DTD SVG 1.1//EN" "http://www.w3.org/Graphics/SVG/1.1/DTD/svg11.dtd"><svg t="1533563096745" class="icon" style="" viewBox="0 0 1024 1024" version="1.1" xmlns="http://www.w3.org/2000/svg" p-id="4247" xmlns:xlink="http://www.w3.org/1999/xlink" width="200" height="200"><defs><style type="text/css"></style></defs><path d="M905.853671 570.540278C760.492002 422.065711 775.247054 365.465622 796.687366 306.21517 818.128701 246.963695 766.139629-13.903661 573.51554 87.538729c-192.624089 101.441367-135.216611 237.235123-272.624121 231.125985-137.40751-5.994528-306.284755 67.780733-205.535143 339.714122 39.423895 106.283652 114.237811 209.338772 230.089375 224.209458 115.850541 14.869662 306.169121-23.054065 422.019663 34.58161C863.315856 974.923258 1051.213293 719.012797 905.853671 570.540278zM716.2248 848.928682c-97.751325-45.533033-257.753435-18.790972-355.967294-29.626761-98.213859-10.833743-173.949774-79.421864-206.226898-165.187203C71.379189 434.630888 231.150032 372.612393 347.808986 376.071168c116.541273 3.457752 67.088978-132.336004 231.586472-216.486566 164.497495-84.149539 174.986383 133.718491 156.198481 182.019567-21.787212 55.792701-19.828604 108.589161 107.435894 232.739738C964.872856 693.308369 813.978171 894.462738 716.2248 848.928682z" p-id="4248" fill="#ffffff"></path><path d="M227.576647 520.16496c-52.91107 45.532009-7.492648 153.313781 60.633962 175.448918 68.243267 22.132066 135.678122-2.191922 188.588169-48.415686 52.912094-46.224788 45.87891-205.189266-42.075281-163.921373S335.474053 427.253874 227.576647 520.16496z" p-id="4249" fill="#ffffff"></path><path d="M611.326704 214.340693c-63.171762 16.253172-122.653481 122.30658-97.178273 169.45439 25.476231 47.031153 80.462566 130.721227 62.48103 191.356212-17.984606 60.519352-4.612041 133.946688 55.677067 155.735947 60.288085 21.787212 189.04968 14.522762 190.663434-48.992831 1.613754-63.514569-152.046928-131.066081-156.426679-234.815003C662.27712 343.333556 713.919291 187.942463 611.326704 214.340693z" p-id="4250" fill="#ffffff"></path></svg>