<?xml version="1.0" standalone="no"?><!DOCTYPE svg PUBLIC "-//W3C//DTD SVG 1.1//EN" "http://www.w3.org/Graphics/SVG/1.1/DTD/svg11.dtd"><svg t="1533561533980" class="icon" style="" viewBox="0 0 1024 1024" version="1.1" xmlns="http://www.w3.org/2000/svg" p-id="11789" xmlns:xlink="http://www.w3.org/1999/xlink" width="200" height="200"><defs><style type="text/css"></style></defs><path d="M831.5 251.2c4.7 0.7 9.2 2.4 13.2 5.1 12.1 8.7 15.8 25.1 8.6 38.2-2.9 5-7.2 9-12.3 11.7-54.9 24.3-112.7 41.4-167.8 64.9-23.9 10.8-43.6 29.2-56 52.3-22.4 43.9-41.4 89.6-62.8 134-9.1 18.1-21.2 34.5-35.8 48.6-37.2 35.3-87.8 52.6-138.8 47.5-18.7-2-36.9-7-54.1-14.6-9.5-4.4-18.9-9.3-28.5-13.5-55.9-23.3-120.4-0.1-148.7 53.5-11 21.6-21 45.4-30.7 66.5-2.1 4.3-5.1 8-8.8 11-7 5.2-15.9 7-24.4 5-8.5-2-15.6-7.7-19.5-15.4-3.3-7-3.7-14.9-1.3-22.2 9.2-23.1 20.4-45.4 31.1-67.9 8.5-16.8 19.2-32.4 32.6-45.9 36.3-36.5 86.6-55.3 137.9-51.5 20.3 1.6 39.9 6.8 58.6 15 9.6 4.4 18.9 9.3 28.5 13.5 11.6 4.7 23.7 7.9 36.2 8.9 31.8 2.5 64-8.6 87.6-30 9.9-9.1 18.2-19.9 24.6-31.7 22.5-43.9 41.4-89.6 62.8-134.1 14.1-27.4 34.4-51 60.2-68.1 9.3-6.2 19.3-11.3 29.6-15.7 54.4-21.7 109.3-42.2 164-63.2 2.7-0.9 5.5-1.6 8.4-1.9 2.8-0.2 2.8-0.2 5.6 0z" fill="#ffffff" p-id="11790"></path><path d="M987 949.1l-912.2 0.4-0.4-912.3C74.4 16.7 57.7 0 37.2 0 16.7 0 0 16.7 0 37.3l0.4 949.5c0 20.5 16.7 37.2 37.3 37.2 0.7 0 1.4 0 2.2-0.1h0.3l946.9-0.4c20.5-0.1 37.2-16.8 37.2-37.3-0.1-20.4-16.8-37.1-37.3-37.1z" fill="#ffffff" p-id="11791"></path><path d="M143.5 648.7h119.8v249.8H143.5zM354.6 421.2h119.8v477.1H354.6zM565.8 518.6h119.8v379.7H565.8zM776.8 209.9h119.8v688.3H776.8z" fill="#ffffff" p-id="11792"></path></svg>