<?xml version="1.0" standalone="no"?><!DOCTYPE svg PUBLIC "-//W3C//DTD SVG 1.1//EN" "http://www.w3.org/Graphics/SVG/1.1/DTD/svg11.dtd"><svg t="1533561440288" class="icon" style="" viewBox="0 0 1024 1024" version="1.1" xmlns="http://www.w3.org/2000/svg" p-id="10171" xmlns:xlink="http://www.w3.org/1999/xlink" width="200" height="200"><defs><style type="text/css"></style></defs><path d="M960.969728 898.400256H97.370112V257.664c0-15.377408 12.480512-27.858944 27.85792-27.858944 15.377408 0 27.85792 12.480512 27.85792 27.858944v585.018368h807.883776c15.378432 0 27.862016 12.480512 27.862016 27.85792s-12.483584 27.859968-27.862016 27.859968z m-32.259072-145.420288c-2.507776 5.961728-6.351872 11.200512-10.696704 15.880192-1.339392 1.391616-2.731008 2.505728-4.179968 3.787776a56.022016 56.022016 0 0 1-11.700224 7.9104c-1.727488 0.837632-3.34336 1.783808-5.18144 2.45248-6.12864 2.33984-12.593152 3.955712-19.5584 3.955712h-55.714816c-30.754816 0-55.71584-24.96-55.71584-55.71584V229.805056c0-30.754816 24.961024-55.71584 55.71584-55.71584h55.714816c30.75584 0 55.717888 24.961024 55.717888 55.71584v501.444608c0 3.176448-1.282048 5.906432-1.783808 8.915968-0.722944 4.34688-0.946176 8.858624-2.617344 12.814336z m-51.315712-523.174912h-55.714816v222.865408h55.714816V229.805056zM626.67264 778.441728c-2.115584 1.282048-3.844096 3.176448-6.183936 4.123648-1.39264 0.612352-3.175424 0.499712-4.625408 0.946176-5.458944 1.783808-11.030528 3.453952-17.048576 3.453952h-55.71584c-30.754816 0-55.71584-24.96-55.71584-55.71584V229.805056c0-30.754816 24.961024-55.71584 55.71584-55.71584h55.71584c30.75584 0 55.716864 24.961024 55.716864 55.71584v501.444608c0 7.69024-1.560576 15.043584-4.402176 21.673984-4.624384 11.032576-13.2608 19.444736-23.456768 25.51808zM598.81472 229.805056h-55.71584V341.23776h55.71584V229.805056zM341.909504 782.5664c-6.6304 2.839552-13.985792 4.400128-21.673984 4.400128h-55.716864c-30.753792 0-55.714816-24.96-55.714816-55.71584V229.805056c0-30.754816 24.961024-55.71584 55.714816-55.71584h55.716864c30.75584 0 55.71584 24.961024 55.71584 55.71584v501.444608c0 23.066624-14.042112 42.902528-34.041856 51.316736z m-21.675008-552.761344h-55.716864v334.297088h55.716864V229.805056z" p-id="10172" fill="#ffffff"></path></svg>