<?xml version="1.0" standalone="no"?><!DOCTYPE svg PUBLIC "-//W3C//DTD SVG 1.1//EN" "http://www.w3.org/Graphics/SVG/1.1/DTD/svg11.dtd"><svg t="1533561120873" class="icon" style="" viewBox="0 0 1024 1024" version="1.1" xmlns="http://www.w3.org/2000/svg" p-id="4982" xmlns:xlink="http://www.w3.org/1999/xlink" width="200" height="200"><defs><style type="text/css"></style></defs><path d="M1008.752226 972.45709l-72.346725 0 0-49.116651c0-2.797719-2.281973-5.080715-5.079692-5.080715-2.807952 0-5.080715 2.281973-5.080715 5.080715l0 49.116651-91.436502 0 0-49.116651c0-2.797719-2.28095-5.080715-5.079692-5.080715-2.807952 0-5.079692 2.281973-5.079692 5.080715l0 49.116651-91.436502 0 0-49.116651c0-2.797719-2.28095-5.080715-5.079692-5.080715-2.807952 0-5.079692 2.281973-5.079692 5.080715l0 49.116651-91.436502 0 0-49.116651c0-2.797719-2.281973-5.080715-5.080715-5.080715-2.806929 0-5.079692 2.281973-5.079692 5.080715l0 49.116651-91.436502 0 0-49.116651c0-2.797719-2.281973-5.080715-5.079692-5.080715-2.807952 0-5.080715 2.281973-5.080715 5.080715l0 49.116651-91.445712 0 0-49.116651c0-2.797719-2.27174-5.080715-5.079692-5.080715-2.797719 0-5.079692 2.281973-5.079692 5.080715l0 49.116651-91.436502 0 0-49.116651c0-2.797719-2.272763-5.080715-5.079692-5.080715-2.797719 0-5.079692 2.281973-5.079692 5.080715l0 49.116651-91.436502 0 0-49.116651c0-2.797719-2.27174-5.080715-5.079692-5.080715-2.797719 0-5.079692 2.281973-5.079692 5.080715l0 49.116651L30.505269 972.45709 30.505269 857.31263l40.797172 0c2.797719 0 5.079692-2.272763 5.079692-5.080715s-2.281973-5.080715-5.079692-5.080715L30.505269 847.151199l0-91.436502 40.797172 0c2.797719 0 5.079692-2.272763 5.079692-5.078669 0-2.807952-2.281973-5.080715-5.079692-5.080715L30.505269 745.555313 30.505269 654.120858l40.797172 0c2.797719 0 5.079692-2.272763 5.079692-5.080715s-2.281973-5.078669-5.079692-5.078669L30.505269 643.961474l0-91.436502 40.797172 0c2.797719 0 5.079692-2.272763 5.079692-5.080715s-2.281973-5.080715-5.079692-5.080715L30.505269 542.363542l0-91.435479 40.797172 0c2.797719 0 5.079692-2.276856 5.079692-5.079692 0-2.802836-2.281973-5.079692-5.079692-5.079692L30.505269 440.768679l0-91.436502 40.797172 0c2.797719 0 5.079692-2.276856 5.079692-5.079692 0-2.802836-2.281973-5.079692-5.079692-5.079692L30.505269 339.172793l0-91.436502 40.797172 0c2.797719 0 5.079692-2.276856 5.079692-5.079692 0-2.802836-2.281973-5.079692-5.079692-5.079692L30.505269 237.576907 30.505269 146.141428l40.797172 0c2.797719 0 5.079692-2.276856 5.079692-5.079692 0-2.802836-2.281973-5.079692-5.079692-5.079692L30.505269 135.982044 30.505269 53.009308c0-8.422833-6.825452-15.240099-15.239076-15.240099s-15.240099 6.816243-15.240099 15.240099l0 934.685835c0 8.414647 6.826476 15.240099 15.240099 15.240099l993.467613 0c8.413624 0 15.239076-6.825452 15.239076-15.240099C1023.971859 979.282542 1017.16585 972.45709 1008.752226 972.45709z" p-id="4983"></path><path d="M480.337371 455.04994 621.312126 620.316961 822.886051 358.198102 822.886051 453.538517 873.641015 453.538517 873.641015 240.385882 687.750281 310.967404 705.78196 358.411973 780.517081 330.030575 619.269607 539.713178 483.133044 380.136763 162.85867 703.180204 198.903607 738.901777Z" p-id="4984"></path></svg>