<?xml version="1.0" standalone="no"?><!DOCTYPE svg PUBLIC "-//W3C//DTD SVG 1.1//EN" "http://www.w3.org/Graphics/SVG/1.1/DTD/svg11.dtd"><svg t="1533561930332" class="icon" style="" viewBox="0 0 1101 1024" version="1.1" xmlns="http://www.w3.org/2000/svg" p-id="7181" xmlns:xlink="http://www.w3.org/1999/xlink" width="215.0390625" height="200"><defs><style type="text/css"></style></defs><path d="M478.890667 208.059183l-5.10899 0.88086c-2.752688 0.836817-2.268215 3.149075-2.268215 6.540387-5.064946-1.838796 0.836817-0.275269-4.228129-2.114064-1.079054 3.95286-4.82271 3.545462-7.267096 6.496344-0.154151 0.165161-0.275269 0.44043-0.440431 0.638623-0.110108 0.198194-0.275269 0.484473-0.385376 0.638624l-4.591484 7.02486h-8.456258c-0.319312-1.277247-0.836817-3.633548-1.431398-4.910795-1.915871-4.184086-3.314237-3.710624-5.153032-7.531355-1.706667-3.710624-2.466409-5.230108-10.52628-1.398366-2.433376 1.156129-3.303226 4.349247-6.463311 4.029936-3.468387-0.363355-1.948903-0.770753-4.987871-2.840775-4.459355 6.110968-14.556215-1.827785-14.798452 9.535312-10.008774-2.356301-2.34529 1.596559-13.763441 4.228129-4.38228 18.828387-10.085849 8.808602-17.782365 20.303828l-7.344172 8.533334c-1.233204 0.990968-0.517505 0.363355-1.871828 1.32129l-11.241979 7.817634c-9.975742 5.70357-11.605333-3.996903-17.837419-4.107011-6.771613 1.585548-2.34529 2.950882-10.570323 1.068044-1.266237 5.428301-0.671656 2.873806-3.578494 4.866752l-8.456258 5.307183c-5.747613 3.303226-9.810581-0.077075-15.833463 6.342194-2.752688 2.906839-6.826667 5.747613-10.900645 7.17901-3.303226 1.156129-4.415312-0.154151-7.729548-0.44043-4.305204 6.463312-8.852645 4.514409-14.159828 9.094882-10.052817 8.731527 6.419269 7.498323-2.642581 20.62314-2.972903 4.349247-2.895828 5.175054-9.645419 5.175053v4.23914c-5.813677-0.484473-2.147097-1.871828-6.177033-1.684645-3.303226 0.165161-6.58443 2.598538-8.258064 5.186065-2.477419 3.743656-1.431398 6.628473-6.705549 7.068903 0.847828 3.105032 0.44043 1.706667 2.125076 4.217118-5.428301 0.121118-3.038968-0.957935-5.307183 2.114065 4.261161 1.001978 3.193118 0.28628 4.228129 3.193118-4.789677 2.312258-5.505376 1.156129-9.777548 5.031914l-4.426323 2.950882c-2.036989 1.915871-2.796731 5.780645-4.261161 7.377204l-3.281205 4.107011c-4.38228 5.747613-5.41729 6.540387-3.633548 14.358021-1.31028 1.838796-1.101075 1.277247-2.466409 2.796731-4.029935 4.514409-6.573419 2.752688-12.332043 1.431398 0.088086-3.985892 0.572559-3.391312 0.682667-6.419269l0.165161-3.743656 0.154151-0.638623 0.242236-1.761721c-0.077075-3.985892-0.792774-8.258065 0.880861-11.726451-5.549419-0.110108-5.461333-1.915871-6.540387-6.144l-1.59656-3.699613c-0.121118-0.209204-0.28628-0.44043-0.396387-0.682667-0.121118-0.242237-0.242237-0.484473-0.330322-0.715699-1.981935-5.230108-0.275269-5.835699-5.945807-8.852645 1.244215-2.554495 1.926882-7.817634 0.209205-10.735484-3.545462-6.022882-4.426323 1.354323-4.426323-9.337118-1.871828-0.88086-3.435355-1.233204-5.307183-2.114065 0-0.836817 0.077075-2.34529-0.044043-3.105032-0.913892-6.144-11.726452-15.194839-9.326107-22.131613 0.077075-0.28628 0.759742-1.563527 0.957935-2.081032 8.169978-19.059613-6.265118-10.085849-16.317935-13.521204a6.110968 6.110968 0 0 1-0.759742-0.319312l-2.829764-1.398366c-0.198194-0.110108-0.473462-0.231226-0.682666-0.352344l-9.689463-4.029935c-4.426323-1.838796-9.931699-8.258065-12.045763-12.243957-3.864774 1.035011-2.235183 1.112086-5.307183 3.193118 0.165161-6.826667 3.710624-6.110968 1.486452-13.003699-1.684645-5.230108-3.116043-6.58443-8.896688-7.057892-0.165161 6.452301-4.426323 8.169978-8.940732 11.164903l-2.554494 1.673634c-0.110108 0.077075-2.34529 1.233204-2.829764 1.431398-4.029935 1.596559-7.696516 0.924903-10.526279 3.237161-3.908817 3.193118-1.838796 5.615484-9.050839 5.780646-1.486452 6.386237-4.866753 10.493247-8.456258 15.877505 5.219097 1.398366 0.715699 1.948903 7.410236 2.114064-0.990968 4.701591 2.598538 6.099957 3.743656 9.733506 1.60757 5.020903-1.783742-1.475441 0.484474 4.029935 1.398366 1.475441 6.265118 1.431398 8.808602 2.785721 2.719656 1.431398-1.266237 0.330323 2.796731 1.431398 0 7.31114 0.990968 23.893333-8.456258 26.447828 0 5.945806-1.32129 6.386237 0.770752 10.933677 1.101075 2.389333 1.783742-0.792774 0.473463 4.029935-2.752688 10.162925 0.759742-0.044043-1.959914 14.996646-1.079054 6.055914-0.033032 7.696516-5.615484 9.204989 1.387355 5.945806 0.88086 4.437333 5.296172 7.421247-3.303226 4.987871 0.242237 3.435355-1.189161 7.377204-1.838796 4.987871-0.165161 4.514409 0.792774 9.931699 0.638624 3.556473-0.550538 4.228129-0.638624 8.059871 4.349247 1.156129 4.228129 4.910796 7.663484 7.145979 4.140043 2.708645 6.738581 1.035011 8.214022 6.573419-3.710624 2.477419-7.267097 0.638624-7.938753 4.426323-0.484473 2.675613 1.431398 2.433376 3.270194 6.540387l3.589505 10.173935c-4.305204 2.279226-4.107011 1.035011-5.142022 6.496344-1.519484 8.059871-0.198194 4.195097-6.221075 6.551398-1.959914 0.748731-1.640602-1.211183-2.675613 2.224172l1.079054 8.863656c0 1.354323 0.275269 3.710624 0.275269 5.505377l-4.349248 0.748731c-3.787699 0.682667-5.142022 0.605591-8.335139 1.365333-1.079054 5.020903 0.605591 6.055914 1.079053 11.638366-5.175054 1.871828-6.177032 2.642581-6.342193 9.535312-5.307183 0-4.305204 0.044043-7.421247 2.114064 2.433376 4.624516-0.792774 2.642581 4.228129 3.193118-0.638624 2.422366-8.654452 11.759484-10.889635 12.365076-4.899785 1.277247-6.298151-1.596559-7.377204 4.10701-0.550538 2.862796 0.550538 4.470366-0.715699 9.975742-5.26314-1.244215-3.666581-2.873806-4.228129 2.114065-4.82271-0.407398-8.412215-2.202151-12.684387-3.193118-2.587527 4.866753-3.831742 4.305204-5.307183 10.570322 4.668559 3.424344 7.377204 5.307183 13.763441 5.307183-0.330323 14.677333-13.796473 7.410237-19.026581 7.410236 0 6.496344-0.44043 12.970667-2.356301 19.819355-0.836817 2.994925-1.233204 2.521462-2.829763 4.558452-4.228129 5.384258-2.070022 9.722495 0.363355 12.111828l1.541505 1.651613c2.917849 2.587527-1.024 1.871828 5.395269 1.981935l-2.158108 4.184086c8.059871 0.682667 8.302108 5.12 12.365076 9.94271 5.791656 6.859699 8.533333 0.550538 13.080774 9.138925l1.32129-0.770753c0.110108-0.033032 0.473462-0.231226 0.638624-0.275269 3.468387-0.913892 2.983914 1.717677 7.575398 2.070022 1.079054-2.983914 4.151054-5.461333 7.421247-6.331183l3.193118 3.193118c-0.957935 3.622538-3.589505 5.571441-6.342193 7.410237 1.387355 5.230108 1.948903 0.715699 2.114064 7.421247 15.194839 0 12.276989-0.957935 10.570323 6.342194 6.099957 9.138925 9.083871 10.768516 21.21772 8.533333 5.538409-1.035011 16.031656 0.913892 22.406882-0.88086 4.624516-1.32129 2.114065-1.354323 6.066925-2.389334l2.950881 3.391312c-0.517505 2.510452 0.638624 0.957935-1.871828 1.871828 0.110108 5.340215 0.88086 4.547441 3.468387 8.136946a6.055914 6.055914 0 0 0 0.440431 0.638624l4.54744 3.908817c0 9.535312 0.396387 12.805505-3.193118 16.912516 5.064946 7.542366 0.957935 3.985892 4.954839 12.992689l2.697634 4.756645c2.719656 3.105032 1.915871 1.629591 3.996903 5.538408-8.500301 12.684387-2.477419 8.896688 3.193119 7.421248 1.431398 3.95286 2.939871 1.552516 4.217118 6.342193h8.456258c0 11.968688 2.521462 12.365075-2.114064 21.140645 1.992946 1.354323 4.349247 3.303226 4.470365 5.10899 0.275269 5.945806-3.303226-1.277247 1.915871 6.496344 6.177032 0 9.931699-3.424344 10.603355 4.184086 0.28628 3.160086-0.319312 4.668559 0.407398 8.059871 0.715699 3.468387 1.354323 2.917849 1.673634 6.782623 18.222796 0 16.306925-7.817634 17.11071-10.405161 0.792774-2.598538-0.077075-0.88086 1.475441-2.752688 4.228129-5.064946 10.24-5.945806 17.110709-7.223054 9.447226-1.794753 20.502022-4.470366 29.035355-9.017806 3.95286-2.114065 6.936774-5.780645 10.096861-8.929721 1.706667-1.717677 3.060989-3.347269 4.657548-4.866752 5.064946-4.668559 19.224774-2.279226 26.249634-2.279226 13.323011-19.89643 6.342194-8.125935 6.342194-25.357764 3.149075-0.836817 4.305204-2.554495 6.980817-4.668559 7.652473-6.055914 10.449204-17.507097 18.542108-19.500043 6.099957-1.519484 4.228129-0.44043 9.216-3.479398 2.906839-1.794753 5.142022-2.587527 7.17901-5.538408 6.617462-9.612387 5.736602-17.275871 9.491269-27.526882 1.32129-3.633548 2.554495-4.734624 5.41729-7.256086 7.861677-6.980817 7.101935-5.26314 15.117764-10.24 1.244215-0.803785 12.72843-10.702452 13.488172-11.891613 4.503398-6.749591-1.32129-10.052817 8.885677-16.472086 1.398366-0.88086 1.915871-1.079054 3.314237-1.959914 2.158108-1.32129 2.235183-1.629591 3.743656-2.587527 2.917849-1.76172 5.747613-2.356301 9.65643-3.038968 15.084731-2.664602 6.980817-1.673634 21.305806-0.110107 12.199914 1.31028 51.288086-3.193118 59.82142 2.543484 1.959914 1.32129 1.035011 1.365333 3.556473 2.796731 12.992688 7.421247 3.743656 7.101935 16.868473 14.842495 13.917591 8.169978 11.286022 7.773591 19.378925 18.740301 4.349247 5.85772 2.158108 1.277247 6.980817 3.51243 0 8.577376 1.244215 11.286022 3.677591 18.498064 0.715699 2.158108 1.541505 3.996903 2.389334 6.066925 7.300129 18.751312 0.550538 17.837419-2.752688 29.442753-1.431398 5.020903 1.32129 0.88086-2.554495 4.855742l-1.112086 1.001978-0.561549 0.517505-5.461333 7.223054c-2.752688 7.101935 1.948903 6.099957-5.549419 10.328086-7.134968 4.029935-9.733505 9.612387-14.280946 16.395011l-19.103656 28.473806c-5.582452 9.249032 0.330323 13.840516-14.91957 15.756388-6.298151 0.803785-21.019527 2.752688-25.765162 5.989849-4.107011 2.78572-6.254108 2.19114-9.447225 5.384258-1.123097 1.112086-0.330323 0.352344-1.475441 1.706667a64.853333 64.853333 0 0 0-14.005678 30.389677c-2.312258 12.72843-13.521204 16.714323-21.581075 24.939355-1.387355 1.431398-2.224172 2.389333-3.743656 3.666581-4.668559 4.029935-6.859699 8.291097-8.610408 14.644301-1.046022 3.743656-1.596559 10.24-1.475441 13.234924 0.231226 5.747613 1.541505 8.291097 2.543484 13.047742 0.28628 1.387355 0.836817 4.503398 1.47544 5.945807 2.036989 4.624516 7.817634 8.324129 11.374108 11.913634 3.985892 4.029935 5.064946 3.743656 10.603355 5.274151 4.591484 1.266237 7.02486 2.950882 9.612387 6.254107 1.992946 2.554495 2.312258 6.099957 3.875785 11.968689-9.138925 6.694538 1.431398 8.214022-30.510796 17.033634-3.556473 0.990968-10.019785 1.948903-13.16886 3.787699-8.577376 4.987871-0.990968 24.333763-13.356043 26.800172-3.391312 0.682667-3.479398 0.594581-6.903742 1.596559-5.70357 1.629591-8.059871 1.915871-12.199914 4.701591 0 18.784344 10.482237 18.982538 18.14572 32.591828 7.300129 12.959656 6.099957 13.554237 9.138925 19.378925l3.699613 3.710624c1.398366 0.638624 2.862796 1.123097 4.426323 1.398365h9.337118c6.903742-1.277247 12.992688-5.175054 14.435097-10.570322 7.300129 0 3.985892 0.165161 8.456258 3.193118 2.235183-1.640602 2.708645-2.994925 4.228129-5.307183 6.782624 0 13.047742 1.794753 18.740301 3.556473 4.547441 1.387355 5.505376 0.836817 9.182968-1.001978 3.545462-1.794753 4.701591-3.468387 7.013849-4.624516 3.116043-1.563527 4.514409-0.770753 8.092903-2.47742 2.235183-1.035011 4.954839-3.027957 7.101936-4.54744 7.740559-5.41729 11.495226-11.330065 21.779269-12.045764 8.302108-0.550538 18.71828-5.142022 21.735225-13.157849 2.598538-6.903742 1.156129-12.72843 5.901764-17.352947 6.066925-5.85772 6.496344-5.549419 17.793376-5.461333 6.826667 0.033032 15.393032-0.605591 21.93342 0.275269 4.910796 0.682667 15.833462 1.76172 21.426924 1.838796l45.474409 1.03501c15.899527 0 82.074151 1.629591 89.891785-2.114064 2.829763-2.796731-0.682667-24.730151-2.202151-29.508817l-4.657548-12.254968c-2.433376-4.943828-3.787699-6.540387-3.743656-13.15785 0.110108-21.504-1.001978-20.865376 4.855742-40.684731 1.277247-4.349247 1.596559-4.745634 2.994925-8.654451 1.035011-2.906839 1.277247-6.496344 2.64258-9.017807 0.308301-0.594581 1.739699-2.34529 2.312258-2.983914 2.708645-3.237161-0.528516-0.836817 3.303226-3.038968 10.24-5.945806 7.333161-6.738581 12.596301-15.95458 2.312258-4.107011 3.391312-4.294194 9.337119-4.38228 2.752688-0.044043 5.747613 0.077075 8.533333 0.077075h48.667527c8.973763 0 21.614108 0.396387 30.070365 1.673635 11.12086 1.673634 21.250753-0.594581 31.270538-0.594581 0-9.458237 2.114065-19.422968 2.114065-29.596903 6.022882-0.110108 3.468387-0.517505 7.421247-3.193118 0-25.963355 15.635269-9.414194 21.812301-23.651097 1.640602-3.743656 3.864774-7.927742 4.624516-11.208946l-6.099957-6.57342c2.433376-5.351226-1.398366-2.114065 3.51243-6.58443 2.752688-2.510452 2.906839-2.917849 4.668559-5.945806 4.459355-7.773591 6.298151-3.105032 8.533334-12.607312 9.612387-0.198194 7.179011-1.75071 9.535311-7.377204 0.913892-2.19114 10.008774-7.377204 18.178753-15.668301 4.470366-4.547441 5.70357-3.270194 11.616344-5.307183 9.568344-3.270194 2.752688-9.931699 10.008774-15.36 4.073978-3.027957 1.596559-0.671656 6.099957-2.356301 3.347269-1.233204 7.101935-5.097978 9.337119-7.575398 2.950882-3.347269 4.778667-7.487312 8.214021-9.766538-0.715699 3.391312-1.079054 1.629591 0 4.228129 10.052817 2.34529 5.020903-0.363355 11.649377-2.114064 2.983914 0.715699 9.050839 4.657548 10.405161-0.209205 0.759742-2.664602-0.715699-3.589505-2.147097-4.822709-3.193118-2.675613-1.717677 0.077075-5.064946-3.424344 3.193118-6.022882 12.992688-7.784602 21.581075-14.369033 4.062968-3.105032 6.166022-4.855742 11.957677-5.978838 6.177032-1.200172 8.731527-1.200172 8.731527-9.249033 6.661505 0 3.831742 0.836817 7.938753 1.673635 5.659527 1.156129 1.596559-0.275269 6.859699-1.673635 4.866753 3.270194 1.717677 4.228129 9.535312 4.22813-0.363355-4.073978-1.079054-3.391312-1.079054-8.456259 8.368172 1.948903 5.307183-0.803785 7.982796-6.826666 0.792774-1.794753 1.508473-2.147097 2.587527-3.743656h9.535311c0.836817-3.666581 1.717677-7.542366 3.193119-10.570323 6.221075 0.517505 1.541505 2.389333 9.447226 2.19114 4.624516-0.110108 4.910796-1.112086 10.647397-1.112086-0.396387-4.83372-3.270194-5.395269-7.410236-6.342193 0.396387-4.987871 6.694538-9.017806 10.570322-11.649377-0.72671-3.027957-1.123097-6.419269-2.961892-8.654451-1.035011-1.32129-2.224172-2.036989-3.468387-2.873807-2.675613-1.838796-0.836817-1.32129-4.151054-2.20215-1.233204 4.67957-3.908817 2.917849-9.524301 4.239139v-6.342193c3.072-1.640602 4.778667-3.083011 9.524301-3.193118 2.356301-10.129892 1.596559-5.230108 6.342194-7.421248-1.112086-13.201892 3.116043-5.142022 7.586408-19.89643 0.638624-2.158108 0.792774-0.484473 0.88086-4.426322h-4.239139c1.398366-5.230108 6.386237-6.232086 9.777548-11.40714 2.202151-3.35828 1.717677 1.233204 1.871828-5.54942-4.184086 0-4.305204-0.319312-7.421247-1.079053 0.165161-7.410237 2.994925-5.26314 3.193118-12.684387-2.070022-0.990968-7.45428-2.025978-10.570323-2.114065-0.077075-4.140043 0.28628-2.466409-1.068043-5.307183-3.270194 0.770753-3.083011 1.365333-6.342193 2.125075l-0.28628-13.245935c-0.319312-7.179011-2.708645-6.859699-10.284043-6.859699 0.352344-4.107011 0.957935-2.752688 1.068043-7.421247-2.950882-1.398366-2.025978-1.079054-6.342193-1.079054 1.244215-2.554495-0.792774-8.412215-1.035011-11.649376l-2.862796-6.650495c-5.549419-7.267097-3.237161-3.193118-2.477419-10.217978-0.990968-0.473462-1.475441-0.319312-2.268215-0.913893-2.642581-1.992946-6.232086-11.693419-6.232086-17.066667 3.116043-0.770753 1.519484 0.110108 3.193118-2.125075l-2.675613-6.815656c-1.431398-3.468387-5.505376-7.45428-12.992688-4.745634l-4.073978 1.32129c-1.629591 0.352344-2.036989 0.550538-4.547441 0.748731 0.803785-3.424344 3.270194-11.241978 2.554494-14.269935l-1.156129-2.91785a180.356129 180.356129 0 0 1-0.957935-3.347268c-3.864774-16.439054-5.142022-2.279226-3.589506-21.735226 0.550538-6.936774 0.044043-11.054796 7.377205-11.649377v-3.193118c-9.050839-0.198194 0.165161-1.156129-7.421248-3.193118v-3.193118c4.184086-0.44043 3.633548-1.508473 7.465291-4.184086 0.198194-0.110108 0.473462-0.275269 0.638623-0.396388 2.147097-1.640602 2.466409-3.985892 8.577377-11.528258 1.541505-1.948903 1.981935-2.356301 2.224172-5.175053 0.44043-5.945806-2.268215-3.721634 0.803785-5.670538 2.312258-1.475441 1.981935 0.638624 6.099957-2.235183 4.029935-2.829763-0.638624-2.114065 4.899785-3.589505v-3.193118c-4.580473-1.233204-1.794753-1.629591-4.701592-2.389334-2.862796-0.759742-0.715699 0.594581-5.461333-0.110107-5.747613-0.88086-5.108989-4.23914-8.896688-6.991828-4.184086 3.985892-2.510452 9.337118-10.570323 9.535312 0.473462-5.549419 2.829763-8.092903 0.715699-13.323011-2.554495-6.298151-3.027957-5.142022-4.151054-10.845592-1.189161-6.188043 1.32129-1.079054 1.321291-9.689462-4.910796-1.156129-2.389333-2.081032-7.817635-1.563527a103.501075 103.501075 0 0 1-11.252989 0.484473c1.001978-4.272172 2.114065-6.188043 0-10.570322 1.915871-0.957935 1.32129-0.792774 4.228129-1.079054v-4.228129c-4.701591-1.915871 0.803785-2.829763-0.990968-8.368172-1.354323-4.151054-3.589505-4.987871-8.500301-5.395269 4.305204-6.419269-1.508473-5.659527-5.505376-9.282064l-1.552516-1.59656c-1.233204-1.079054-1.398366-1.079054-2.422366-1.794752 0.066065-0.242237 0.352344-0.88086 0.42942-0.715699l0.88086-2.003957c0.352344-2.224172 0.077075-0.715699-0.88086-2.785721-1.233204-2.642581-1.079054-0.330323-0.759742-3.303225 0.484473-4.756645 1.640602-3.875785 2.036989-7.75157l0.15415-2.070022 0.165162-0.594581c0.517505-2.312258 1.794753-4.272172 0.352344-6.419268-2.554495-3.875785-6.342194 0.957935-10.24-0.44043-5.351226-1.915871 0.473462-4.789677-3.160086-9.414194a42.611613 42.611613 0 0 0-2.906839-1.838796c-1.32129-0.275269-1.123097 0.077075-4.029935 0.330323 5.505376-4.800688 2.510452-4.404301 1.079053-10.570323 1.673634-1.805763 1.915871-1.959914 4.228129-3.193118-5.351226-7.938753 4.701591-16.516129-13.763441-16.912516-0.242237 2.862796-0.484473 2.862796-1.079053 5.296172h-5.307183c-0.913892-10.845591-5.582452-8.698495-0.913893-28.396731 0.836817-3.633548 0.110108-2.147097 0.638624-5.945807l0.473462-3.66658c0-0.154151-0.077075-0.473462-0.110107-0.638624l-2.202151-7.850667c-1.068043-5.307183-0.990968-2.081032-2.114064-6.342193 6.463312-2.598538 7.267097-15.040688 7.421247-21.140645-6.099957 1.629591 0 1.76172-6.73858 1.552516-4.668559-0.110108-4.029935 0.550538-9.138925 0.550537-1.871828 3.919828-2.268215 5.868731-5.901764 8.907699-5.85772 4.899785-6.386237-1.959914-10.361118 8.654452l-3.479398 8.258064c-1.871828 4.657548-3.589505 5.340215-5.505376 10.08585l-3.985893 4.624516c-1.354323 2.202151 0.198194 0.924903-2.235182 4.151054-3.633548 4.745634-8.610409 4.073978-8.731527 10.295054-1.838796-0.88086-1.948903-1.431398-4.701592-0.561549-0.121118 0.044043-4.272172 2.829763-4.514408 3.027957-6.738581 6.265118 3.35828 4.910796-4.547441 7.02486 0-5.945806-1.706667-6.661505-2.114065-11.649376h-10.570322l-1.189162-4.184086c2.950882-3.875785 0.517505-0.682667 3.94185-2.554495l4.426323-3.027957c5.593462-4.437333 3.556473-2.036989 3.391311-9.249032-11.363097-2.642581-10.603355 2.025978-16.912516-7.432258 5.626495-1.508473 14.313978-11.957677 14.798452-17.980559-3.710624-0.88086-11.759484-9.689462-15.635269-12.926624l-5.384258-4.228129a8.114925 8.114925 0 0 1-0.792774-1.233204c-1.398366-2.675613-0.396387-10.09686-0.396387-14.402065-5.505376-0.44043-9.249032 0.682667-10.570323-4.228129-4.029935 0.957935-3.666581 1.915871-7.057892 1.673635-1.717677-0.110108-5.428301-0.638624-8.808603-0.638624 0-11.40714-4.602495-8.456258-15.888516-8.456258-5.097978-7.575398-8.169978-15.635269-19.01557-15.866495 0.88086-10.372129 0.198194-2.873806-7.421247-11.649376 1.354323-5.020903 5.824688-4.073978 1.398366-9.733505-3.556473-4.547441-4.789677-1.200172-8.808602-7.179011l-6.066925 2.510452c-4.184086 2.081032-3.083011 2.873806-3.556473 6.309161-0.319312 2.312258-0.077075 3.149075-2.03699 4.866753-7.487312 6.661505-3.820731 11.891613-3.853763 20.413935 0 2.510452 0 2.433376 1.739699 5.064946-10.647398 0.88086 2.917849 3.237161-6.342194 4.228129v2.114065c5.593462 0 1.596559 0 3.193119 1.079054l-2.752688 0.396387c-0.198194 0.088086-0.550538 0.165161-0.792775 0.286279a6.188043 6.188043 0 0 0-0.715699 0.352344l-1.717677 1.475441c-1.552516 1.563527-0.517505 0.484473-1.431398 1.761721 5.41729 0.594581 2.983914 2.025978 4.217118 7.410236-4.38228 2.114065-4.778667-0.517505-5.296172 5.307183 3.710624 0.330323 2.543484-0.077075 2.785721 2.081032 0.198194 1.981935-1.981935 4.459355-2.422366 6.815656-0.924903 4.514409-2.400344 13.873548-5.153032 17.903484-1.233204 1.838796-2.235183 2.356301-3.633548 3.875785l4.228129 3.193118c-8.610409 0.715699-6.177032 2.664602-7.410237 8.456258-2.356301-1.123097-2.950882-0.605591-4.910796-1.475441l-6.782623-3.875784c-4.503398-2.268215-5.020903-2.78572-10.845592-0.275269-0.319312 0.110108-1.200172 0.517505-1.475441 0.638623l-16.428043 5.780646c-5.70357 0.957935-8.059871 0.198194-10.900645 3.908817l-7.090924 7.740559c-4.712602 4.426323-2.554495 10.085849-4.393291 15.789419-0.154151 0.550538-0.352344 0.363355-0.671656 2.235183a14.644301 14.644301 0 0 0-0.088086 1.233204c-0.154151 5.186065 4.514409 2.158108 7.586409 6.342194-3.677591 0-4.866753 0.242237-7.344172 2.158107l-14.897549 7.256086c-1.32129 0.792774-1.200172 1.156129-2.356301 1.904861-2.554495 1.684645-1.035011 1.684645-5.70357 1.079053-9.094882-1.156129-4.459355-1.948903-10.922666 2.356301-5.582452-1.32129-7.817634-2.114065-13.763441-2.114064 0 3.027957 0.44043 4.987871-0.990968 7.45428l-3.237161 3.116043c-2.906839-0.759742-4.789677-2.510452-6.738581-4.866753-4.987871-5.945806-2.081032-2.598538-8.456258-6.342194-5.307183-3.149075-10.206968-3.072-15.525161-1.398365-4.294194 1.354323-7.685505-0.319312-11.56129-2.158108-1.189161-5.70357-0.154151-4.97686-3.193119-9.524301-5.505376 0-34.904086-5.186065-32.856086 4.426323l3.270194 9.326107h10.570322c0.110108 5.108989 1.508473 6.232086-2.036989 9.579355-3.787699 3.589505-5.868731 1.035011-4.305204 8.412215-8.103914 0-4.107011 1.673634-10.570323 3.193118-4.151054-0.077075-2.829763-2.114065-5.901763-3.633548-1.992946-0.990968-2.598538-0.275269-5.351226-2.070021-4.547441-2.994925-1.596559-6.298151-9.931699-6.980818v9.535312c-2.114065-0.990968-7.046882-0.165161-11.803527-1.915871-6.661505-2.433376-4.228129-5.340215-11.451183-5.505376-2.025978 7.542366-13.234925 1.838796-17.308903 8.059871-3.270194 4.987871 1.32129 1.629591-4.899785 4.624516l-0.110107 5.70357c-0.055054 0.110108-0.209204 0.396387-0.253248 0.517505-1.596559 5.031914 0 1.244215 1.398366 6.463312-2.510452 1.673634-1.112086 1.277247-4.228129 2.114065 1.32129 2.477419 1.838796 2.752688 2.114064 6.342193-1.398366 0.957935-2.147097 1.354323-3.633548 2.708645-2.312258 2.114065-1.068043 0.517505-2.708645 3.633549l-0.121118-0.363355z" fill="#ffffff" p-id="7182"></path></svg>