<?xml version="1.0" standalone="no"?><!DOCTYPE svg PUBLIC "-//W3C//DTD SVG 1.1//EN" "http://www.w3.org/Graphics/SVG/1.1/DTD/svg11.dtd"><svg t="1533565996950" class="icon" style="" viewBox="0 0 1024 1024" version="1.1" xmlns="http://www.w3.org/2000/svg" p-id="25106" xmlns:xlink="http://www.w3.org/1999/xlink" width="200" height="200"><defs><style type="text/css"></style></defs><path d="M887.296 51.2H136.704C117.76 51.2 0 51.2 0 187.904v648.704C0 972.8 136.704 972.8 136.704 972.8h751.104c136.704 0 136.704-136.704 136.704-136.704V187.904C1024 51.2 906.24 51.2 887.296 51.2m68.608 784.896s0 68.096-68.096 68.096L629.76 636.416l-140.288 121.856L279.04 563.2l-210.432 195.072V187.904c0-68.096 49.152-68.096 68.096-68.096h751.104c18.944 0 68.096 0 68.096 68.096v648.192zM682.496 229.888c-70.656 0-128 57.344-128 128s57.344 128 128 128 128-57.344 128-128c0-70.144-57.344-128-128-128z" fill="#ffffff" p-id="25107"></path></svg>