<?xml version="1.0" standalone="no"?><!DOCTYPE svg PUBLIC "-//W3C//DTD SVG 1.1//EN" "http://www.w3.org/Graphics/SVG/1.1/DTD/svg11.dtd"><svg t="1533562186992" class="icon" style="" viewBox="0 0 1024 1024" version="1.1" xmlns="http://www.w3.org/2000/svg" p-id="14207" xmlns:xlink="http://www.w3.org/1999/xlink" width="200" height="200"><defs><style type="text/css"></style></defs><path d="M439.442286 1024C197.485714 1024 0 826.514286 0 584.557714c0-228.205714 178.029714-420.571429 405.577143-438.125714 8.777143-0.731429 17.554286 2.413714 23.844571 8.045714a31.744 31.744 0 0 1 10.020572 23.259429v406.820571h406.820571c8.777143 0 16.969143 3.730286 23.259429 10.020572 5.632 6.290286 8.777143 15.067429 8.045714 23.844571-17.554286 227.474286-209.92 405.577143-438.125714 405.577143z m550.619428-512H544.036571A31.670857 31.670857 0 0 1 512 479.963429V34.011429c0-16.676571 12.8-30.72 29.476571-32.036572C552.96 0.731429 564.443429 0 576 0A448.512 448.512 0 0 1 1024 448c0 11.556571-0.658286 23.04-1.901714 34.596571a31.597714 31.597714 0 0 1-32.036572 29.403429z" p-id="14208" fill="#ffffff"></path></svg>