<?xml version="1.0" standalone="no"?><!DOCTYPE svg PUBLIC "-//W3C//DTD SVG 1.1//EN" "http://www.w3.org/Graphics/SVG/1.1/DTD/svg11.dtd"><svg t="1533562132417" class="icon" style="" viewBox="0 0 1024 1024" version="1.1" xmlns="http://www.w3.org/2000/svg" p-id="11547" xmlns:xlink="http://www.w3.org/1999/xlink" width="200" height="200"><defs><style type="text/css"></style></defs><path d="M945.230768 551.384615C945.230768 812.402885 733.633653 1024 472.615385 1024 211.597115 1024 0 812.402885 0 551.384615 0 290.366346 211.597115 78.769231 472.615385 78.769231L472.615385 256C309.478966 256 177.230769 388.248197 177.230769 551.384615 177.230769 714.521034 309.478966 846.769232 472.615385 846.769232 635.751803 846.769232 768 714.521034 768 551.384615L945.230768 551.384615Z" p-id="11548" fill="#ffffff"></path><path d="M1020.343508 413.538461C993.685182 199.755776 824.244224 30.314816 610.461539 3.656493L610.461539 183.139532C726.200933 206.633389 817.366608 297.799067 840.860467 413.538461L1020.343508 413.538461Z" p-id="11549" fill="#ffffff"></path></svg>