<svg width="400" height="297.487" xmlns="http://www.w3.org/2000/svg"><path d="M72.917 4.018c0 .507-.166.529-3.371.456-2.129-.049-2.342-.001-2.49.563-.143.55-.387.618-2.21.618-1.622 0-2.048.093-2.048.446 0 .322-.331.447-1.188.447-.866 0-1.289.161-1.56.595-.248.397-.694.595-1.342.595-.664 0-.97.141-.97.447 0 .297-.298.446-.893.446s-.893.149-.893.446c0 .312-.314.447-1.041.447-.844 0-1.042.113-1.042.595s-.198.595-1.042.595c-.727 0-1.041.135-1.041.447 0 .294-.294.446-.861.446-.491 0-.935.192-1.033.447-.094.245-.376.446-.627.446-.257 0-.455.259-.455.595 0 .482-.199.595-1.042.595-.728 0-1.042.135-1.042.447a.448.448 0 0 1-.446.446c-.248 0-.447.265-.447.596 0 .396-.198.595-.595.595-.331 0-.595.198-.595.446 0 .265-.273.447-.671.447-.404 0-1.018.415-1.54 1.041-.478.573-1.046 1.042-1.264 1.042-.217 0-.394.201-.394.446a.448.448 0 0 1-.447.447.442.442 0 0 0-.446.436c0 .24-.278.585-.618.767-.341.182-.548.514-.462.739.104.271.005.35-.292.236-.293-.112-.507.049-.615.462-.091.348-.351.634-.578.634a.407.407 0 0 0-.411.4c0 .22-.268.643-.595.939-.328.296-.596.719-.596.939 0 .22-.201.4-.446.4-.248 0-.447.265-.447.595 0 .336-.198.596-.453.596-.267 0-.528.369-.633.893-.098.491-.363.892-.588.892-.225 0-.409.254-.409.564 0 .31-.201.64-.446.735-.261.1-.447.546-.447 1.073 0 .704-.131.902-.595.902-.463 0-.595.199-.595.893 0 .595-.149.893-.447.893-.309 0-.446.31-.446 1.007 0 .757-.148 1.046-.595 1.163-.434.113-.596.405-.596 1.076 0 .62-.145.921-.446.921-.331 0-.446.348-.446 1.348 0 .924-.141 1.403-.447 1.52-.275.106-.446.558-.446 1.181 0 .662-.142 1.01-.412 1.01-.509 0-.769.914-.775 2.721-.002.951-.143 1.436-.45 1.553-.353.136-.447.758-.447 2.977 0 2.218-.093 2.84-.446 2.976-.379.145-.446 1.191-.446 6.877 0 5.762.062 6.706.446 6.706.365 0 .446.512.446 2.825 0 2.403.081 2.875.539 3.161.377.235.501.592.413 1.191-.191 1.297.2 2.942.699 2.942.305 0 .433.344.433 1.169 0 .643.201 1.37.446 1.616.246.245.447.8.447 1.233 0 .432.2.987.446 1.233.246.245.446.75.446 1.123 0 .372.268.919.596 1.215.332.301.595.917.595 1.395 0 .486.193.93.446 1.027.246.094.447.395.447.669s.268.691.595.927c.327.236.595.667.595.958 0 .292.201.53.447.53.298 0 .446.299.446.902 0 .528.186.974.447 1.074.245.094.446.358.446.586 0 .228.268.414.595.414.397 0 .595.199.595.595 0 .331.199.596.447.596.275 0 .446.279.446.729 0 .401.178.836.395.967.217.131.48.473.586.759.105.286.396.521.647.521s.456.201.456.446c0 .246.201.447.446.447.248 0 .446.264.446.595 0 .397.199.595.596.595.33 0 .595.199.595.447 0 .245.201.446.446.446.246 0 .447.149.447.33 0 .457 1.257 1.742 1.711 1.748.205.003.372.206.372.452 0 .245.134.446.298.446.163 0 .565.268.893.595.327.328.863.596 1.19.596.331 0 .595.198.595.446 0 .246.201.447.447.447.245 0 .446.2.446.446 0 .248.265.446.595.446.328 0 .596.192.596.427 0 .46 1.016.907 1.451.638.147-.091.336.101.421.427.111.423.407.592 1.041.592.636 0 .93.168 1.042.595.086.327.355.595.598.595s.52.201.614.447c.094.245.514.446.934.446.419 0 .84.201.934.446.094.246.492.447.883.447.392 0 .98.268 1.308.595.361.361.992.595 1.605.595.623 0 1.075.171 1.181.447.117.306.596.446 1.52.446 1 0 1.349.116 1.349.447 0 .337.362.446 1.477.446 1.173 0 1.544.123 1.796.595.275.514.624.596 2.541.596 1.776 0 2.221.089 2.221.446 0 .387 1.207.446 9.078.446 7.87 0 9.077-.059 9.077-.446 0-.36.466-.446 2.409-.446 2.158 0 2.425-.062 2.564-.596.129-.492.406-.595 1.609-.595 1.094 0 1.454-.11 1.454-.446 0-.338.364-.447 1.488-.447s1.488-.109 1.488-.446c0-.31.311-.447 1.017-.447 1.311 0 1.959-.256 1.959-.776 0-.254.319-.414.827-.414.455 0 1.047-.258 1.317-.573.313-.365.715-.515 1.108-.412.349.091.617.019.617-.167 0-.18.469-.524 1.042-.763.573-.24 1.042-.576 1.042-.748 0-.173.267-.313.595-.313.33 0 .595-.199.595-.447 0-.295.295-.446.873-.446.611 0 .929-.178 1.062-.595.103-.328.38-.596.615-.596a.438.438 0 0 0 .426-.446c0-.246.259-.446.574-.446.316 0 .751-.175.967-.389.217-.214.628-.478.915-.586.286-.109.52-.402.52-.653s.201-.456.447-.456a.448.448 0 0 0 .446-.446c0-.248.265-.447.596-.447.33 0 .595-.198.595-.446 0-.246.201-.447.446-.447.248 0 .447-.264.447-.595 0-.397.198-.595.595-.595.331 0 .595-.198.595-.446 0-.246.201-.447.447-.447.248 0 .446-.264.446-.595 0-.331.198-.595.446-.595a.448.448 0 0 0 .447-.447c0-.248.264-.446.595-.446.327 0 .595-.187.595-.415 0-.228.201-.491.447-.586.245-.094.446-.376.446-.627 0-.25.201-.456.447-.456.311 0 .446-.314.446-1.041 0-.843.113-1.042.595-1.042.331 0 .595-.198.595-.446 0-.246.201-.447.447-.447.312 0 .446-.314.446-1.041 0-.844.114-1.042.596-1.042.327 0 .595-.187.595-.415 0-.228.201-.491.446-.586.261-.1.447-.546.447-1.073 0-.604.147-.902.446-.902.312 0 .447-.314.447-1.042 0-.727.134-1.042.446-1.042.245 0 .457-.1.469-.223.094-.922.302-1.405.703-1.629.31-.174.465-.69.465-1.553 0-.875.144-1.348.446-1.464.315-.121.447-.612.447-1.669 0-1.299.079-1.497.595-1.497.529 0 .595-.199.595-1.795 0-1.321.118-1.841.447-1.967.347-.133.446-.723.446-2.669 0-1.937.093-2.498.415-2.498.7 0 .765-.678.764-8.037-.001-7.363-.065-8.034-.764-8.034-.322 0-.415-.563-.415-2.509 0-1.833-.12-2.629-.446-2.955-.28-.279-.447-1.011-.447-1.956 0-1.31-.078-1.509-.595-1.509-.516 0-.595-.198-.595-1.488 0-1.124-.109-1.488-.447-1.488-.32 0-.446-.327-.446-1.154 0-.635-.187-1.309-.415-1.499-.229-.189-.503-.808-.609-1.376-.116-.615-.368-1.031-.627-1.031-.283 0-.432-.311-.432-.902 0-.527-.186-.973-.447-1.073-.245-.094-.446-.358-.446-.586 0-.228-.201-.415-.447-.415-.3 0-.446-.3-.446-.92 0-.671-.162-.964-.595-1.077-.415-.108-.596-.406-.596-.982 0-.46-.198-.902-.446-.997-.246-.095-.447-.377-.447-.628 0-.257-.259-.455-.595-.455-.397 0-.595-.199-.595-.596 0-.33-.198-.595-.446-.595-.277 0-.447-.28-.447-.733 0-.429-.247-.866-.595-1.052-.327-.176-.595-.515-.595-.755a.443.443 0 0 0-.447-.436.448.448 0 0 1-.446-.446.448.448 0 0 0-.447-.447c-.245 0-.446-.148-.446-.33 0-.457-1.258-1.742-1.711-1.748-.205-.003-.372-.206-.372-.452a.448.448 0 0 0-.447-.446c-.245 0-.446-.213-.446-.474s-.268-.545-.595-.63c-.328-.086-.596-.341-.596-.568 0-.226-.201-.411-.446-.411a.448.448 0 0 1-.447-.447c0-.312-.314-.446-1.041-.446-.843 0-1.042-.114-1.042-.595 0-.331-.198-.596-.446-.596a.448.448 0 0 1-.447-.446c0-.248-.264-.447-.595-.447-.331 0-.595-.198-.595-.446 0-.395-.563-.601-1.291-.473-.137.024-.32-.228-.406-.56-.12-.457-.404-.604-1.165-.604-.697 0-1.007-.137-1.007-.446 0-.248-.265-.447-.596-.447-.327 0-.595-.185-.595-.411 0-.432-.872-.768-2.009-.775-.395-.003-.669-.187-.669-.451 0-.311-.314-.446-1.042-.446s-1.042-.135-1.042-.446c0-.309-.31-.447-1.007-.447-.756 0-1.045-.148-1.162-.595-.127-.486-.406-.595-1.523-.595-1.017 0-1.367-.115-1.367-.447 0-.354-.43-.446-2.084-.446-1.884 0-2.083-.057-2.083-.595 0-.548-.198-.596-2.498-.596-1.946 0-2.536-.098-2.669-.446-.258-.672-14.773-.672-14.773 0m119.75 0c-.131.342-.701.447-2.446.45-2.668.005-3.614.208-3.614.775 0 .309-.487.412-1.944.412-1.453 0-1.987.112-2.115.446-.099.259-.545.447-1.06.447-.639 0-.933.167-1.045.595-.126.482-.406.595-1.469.595-.894 0-1.369.143-1.485.447-.096.249-.538.446-1.001.446-.462 0-.905.197-1 .446-.095.246-.523.447-.953.447-.531 0-.831.191-.937.595-.111.424-.406.595-1.023.595-.497 0-.941.191-1.039.447-.094.245-.358.446-.586.446-.228 0-.414.201-.414.447 0 .3-.301.446-.921.446-.67 0-.963.162-1.076.595a.794.794 0 0 1-.748.595c-.405 0-.538.142-.421.447.129.337-.053.446-.741.446-.661 0-.954.164-1.067.596-.086.329-.406.595-.716.595-.308 0-.56.201-.56.446a.448.448 0 0 1-.447.447.448.448 0 0 0-.446.446.448.448 0 0 1-.447.447c-.248 0-.446.264-.446.595 0 .397-.198.595-.595.595-.331 0-.595.198-.595.446a.448.448 0 0 1-.447.447.448.448 0 0 0-.446.446c0 .246-.214.447-.475.447-.26 0-.544.268-.63.595-.085.327-.341.595-.567.595-.226 0-.412.201-.412.447a.448.448 0 0 1-.446.446c-.248 0-.447.265-.447.595 0 .397-.198.596-.595.596-.33 0-.595.198-.595.446a.448.448 0 0 1-.446.446c-.246 0-.447.254-.447.564 0 .31-.201.64-.446.734-.246.095-.447.511-.447.925 0 .555-.156.754-.595.754-.397 0-.595.198-.595.595 0 .33-.199.595-.447.595-.293 0-.446.294-.446.858 0 .608-.174.904-.595 1.014-.434.113-.596.406-.596 1.076 0 .62-.145.921-.446.921-.245 0-.446.254-.446.563 0 .31-.201.641-.447.735-.272.105-.446.556-.446 1.157 0 .644-.206 1.134-.595 1.414-.34.245-.596.771-.596 1.224 0 .438-.201.873-.446.967-.306.118-.447.596-.447 1.52 0 1-.115 1.349-.446 1.349-.343 0-.446.38-.446 1.637 0 1.438-.073 1.636-.596 1.636-.533 0-.595.199-.595 1.903 0 1.417-.114 1.947-.446 2.074-.386.148-.447 1.639-.447 10.904 0 9.266.061 10.757.447 10.905.331.127.446.655.446 2.054 0 1.621.083 1.908.595 2.071.49.155.596.45.596 1.657 0 1.107.11 1.468.446 1.468.337 0 .446.364.446 1.488 0 1.125.11 1.488.447 1.488.31 0 .446.313.446 1.027 0 .67.248 1.293.714 1.796.442.477.655.991.561 1.351-.095.364.027.65.328.765.289.111.481.528.481 1.046 0 .567.152.861.446.861.246 0 .446.238.446.529 0 .291.268.723.596.959.327.236.595.734.595 1.107 0 .405.18.678.446.678a.45.45 0 0 1 .447.45c0 .247.268.678.595.959.327.28.595.748.595 1.039 0 .291.201.529.447.529.245 0 .446.201.446.446 0 .246.187.446.414.446.228 0 .5.343.605.761.105.418.856 1.432 1.669 2.254.814.822 1.479 1.618 1.479 1.769 0 .152.201.276.446.276.246 0 .447.169.447.376 0 .367.494.702 2.157 1.463.451.206.819.546.819.756 0 .21.185.381.412.381.226 0 .481.268.567.595.086.328.369.596.63.596s.474.201.474.446c0 .246.205.447.456.447s.533.2.627.446c.098.254.542.446 1.032.446.663 0 .861.138.861.596 0 .336.199.595.456.595.251 0 .533.201.627.446.096.249.538.447.998.447.576 0 .873.18.982.595.113.433.406.595 1.076.595.62 0 .921.146.921.447 0 .297.298.446.893.446s.893.149.893.446c0 .309.31.447 1.007.447.756 0 1.045.148 1.162.595.112.428.406.595 1.045.595.515 0 .961.188 1.06.447.116.304.592.446 1.488.446s1.372.143 1.488.447c.128.333.662.446 2.115.446 1.746 0 1.944.061 1.944.595 0 .535.199.596 1.944.596 1.453 0 1.987.112 2.115.446.258.672 18.492.672 18.75 0 .128-.333.661-.446 2.102-.446 1.68 0 1.951-.078 2.086-.596.134-.51.406-.595 1.916-.595 1.29 0 1.806-.119 1.932-.446.116-.304.592-.447 1.488-.447s1.372-.142 1.488-.446c.099-.259.545-.447 1.06-.447.639 0 .933-.167 1.045-.595.117-.447.406-.595 1.162-.595.697 0 1.007-.138 1.007-.447 0-.297.298-.446.893-.446s.893-.149.893-.446c0-.301.301-.447.921-.447.67 0 .963-.162 1.076-.595.109-.415.406-.595.982-.595.46 0 .902-.198.998-.447.094-.245.376-.446.627-.446.257 0 .456-.259.456-.595 0-.458.198-.596.861-.596.49 0 .934-.192 1.032-.446.094-.246.343-.449.553-.452.461-.006 1.72-1.286 1.72-1.748 0-.181.201-.33.447-.33a.448.448 0 0 0 .446-.446c0-.249.265-.447.598-.447.329 0 .828-.268 1.108-.595.28-.327.681-.595.89-.595.209 0 .38-.201.38-.447 0-.245.128-.446.284-.446.279 0 1.8-1.39 1.8-1.645 0-.071.468-.613 1.041-1.203.573-.589 1.042-1.329 1.042-1.642 0-.313.201-.57.446-.57.246 0 .447-.2.447-.446 0-.245.204-.446.454-.446.269 0 .528-.374.637-.919.101-.505.366-.988.588-1.073.222-.086.404-.342.404-.57 0-.228.201-.415.447-.415.311 0 .446-.314.446-1.041 0-.843.113-1.042.595-1.042.336 0 .596-.198.596-.456 0-.25.2-.533.446-.627.245-.094.446-.492.446-.883 0-.392.268-.98.596-1.308.327-.327.595-.846.595-1.154 0-.307.201-.725.446-.929.257-.213.447-.862.447-1.525 0-.827.126-1.154.446-1.154.336 0 .447-.36.447-1.453 0-1.203.102-1.48.595-1.609.487-.127.595-.406.595-1.532 0-.949.139-1.43.446-1.548.332-.127.447-.654.447-2.042 0-1.389.115-1.915.446-2.042.386-.148.447-1.639.447-10.905 0-9.265-.061-10.756-.447-10.904-.332-.127-.446-.657-.446-2.074 0-1.493-.096-1.903-.447-1.903-.338 0-.446-.366-.446-1.515 0-1.266-.098-1.542-.595-1.672-.493-.129-.595-.406-.595-1.609 0-1.094-.111-1.454-.447-1.454-.281 0-.446-.283-.446-.765 0-.421-.201-.966-.447-1.212-.245-.245-.446-.75-.446-1.123 0-.372-.268-.919-.595-1.215-.328-.296-.596-.786-.596-1.088 0-.302-.201-.549-.446-.549-.301 0-.446-.301-.446-.921 0-.67-.162-.963-.596-1.076-.421-.11-.595-.406-.595-1.014 0-.564-.153-.858-.446-.858-.248 0-.447-.265-.447-.595 0-.394-.198-.595-.586-.595-.384 0-.53-.146-.423-.424.089-.233-.116-.701-.456-1.042-.34-.34-.618-.819-.618-1.064a.448.448 0 0 0-.447-.447.448.448 0 0 1-.446-.446.447.447 0 0 0-.446-.446c-.246 0-.447-.214-.447-.475s-.268-.544-.595-.63c-.327-.085-.595-.341-.595-.567 0-.227-.201-.412-.447-.412-.248 0-.446-.264-.446-.595 0-.331-.199-.595-.447-.595-.502 0-1.637-1.032-1.637-1.488 0-.164-.2-.298-.446-.298-.245 0-.446-.213-.446-.474s-.268-.545-.596-.63c-.327-.086-.595-.341-.595-.568 0-.226-.201-.411-.446-.411a.448.448 0 0 1-.447-.447c0-.245-.168-.446-.375-.446-.206 0-.542-.268-.746-.595-.205-.328-.555-.596-.779-.596-.224 0-.575-.201-.778-.446-.204-.246-.607-.447-.895-.447-.288 0-.594-.267-.68-.595-.105-.402-.406-.595-.927-.595-.488 0-.772-.164-.772-.446 0-.246-.254-.447-.563-.447-.31 0-.641-.201-.735-.446-.098-.256-.542-.447-1.039-.447-.617 0-.912-.171-1.023-.595-.103-.394-.406-.595-.896-.595-.407 0-.817-.201-.911-.447-.1-.261-.546-.446-1.074-.446-.603 0-.902-.148-.902-.446 0-.336-.36-.447-1.453-.447-1.203 0-1.481-.102-1.609-.595-.112-.428-.406-.595-1.045-.595-.515 0-.961-.188-1.06-.447-.128-.334-.662-.446-2.115-.446-1.457 0-1.944-.103-1.944-.412 0-.569-.947-.77-3.646-.775-1.85-.003-2.307-.092-2.307-.45 0-.385-1.009-.447-7.301-.447-6.215 0-7.326.067-7.472.447m119.768.044c-.383.382-.992.477-2.766.43-2.072-.055-2.29-.005-2.436.551-.14.537-.393.612-2.069.612-1.422 0-1.953.114-2.08.446-.117.305-.594.447-1.507.447-1.085 0-1.364.111-1.491.595-.117.447-.406.595-1.162.595-.697 0-1.007.138-1.007.447 0 .297-.298.446-.893.446s-.893.149-.893.446c0 .288-.291.448-.818.451-1.275.006-2.158.323-2.158.775 0 .226-.268.411-.595.411-.331 0-.596.199-.596.447 0 .298-.298.446-.902.446-.51 0-.973.186-1.066.428-.091.236-.555.514-1.033.619-.477.105-.868.381-.868.614 0 .232-.205.422-.456.422-.25 0-.532.201-.627.447-.094.245-.357.446-.586.446-.228 0-.414.268-.414.596 0 .464-.199.595-.902.595-.528 0-.974.185-1.074.446-.094.246-.358.447-.586.447-.228 0-.414.128-.414.284 0 .369-1.43 1.799-1.8 1.799-.156 0-.284.201-.284.446a.448.448 0 0 1-.446.447.447.447 0 0 0-.446.446c0 .246-.214.447-.475.447s-.544.268-.63.595c-.085.327-.341.595-.567.595-.227 0-.412.201-.412.447a.448.448 0 0 1-.446.446c-.246 0-.447.252-.447.561 0 .31-.265.63-.595.716-.402.105-.595.406-.595.927 0 .488-.164.772-.447.772-.248 0-.446.265-.446.595 0 .328-.152.596-.338.596-.589 0-1.745 1.489-1.745 2.247 0 .45-.171.729-.447.729-.312 0-.446.314-.446 1.042 0 .843-.114 1.041-.595 1.041-.328 0-.596.187-.596.415 0 .228-.201.492-.446.586-.256.098-.447.542-.447 1.041 0 .499-.19.944-.446 1.042-.261.1-.446.546-.446 1.074 0 .572-.152.902-.415.902-.519 0-.776.648-.776 1.959 0 .706-.137 1.017-.446 1.017-.336 0-.447.36-.447 1.453 0 1.203-.102 1.481-.595 1.609-.483.127-.595.406-.595 1.487 0 .82-.172 1.473-.447 1.701-.335.278-.446 1.027-.446 3.013 0 2.15-.083 2.642-.446 2.642-.386 0-.447 1.091-.447 8.035 0 6.945.061 8.036.447 8.036.361 0 .446.477.446 2.509 0 1.833.12 2.628.446 2.955.27.269.447.997.447 1.834 0 1.139.107 1.417.595 1.544.493.13.595.406.595 1.619 0 1.026.134 1.514.447 1.634.272.104.446.555.446 1.157 0 1.28.26 1.927.776 1.927.262 0 .415.328.415.893 0 .595.148.892.446.892.312 0 .446.315.446 1.042 0 .728.135 1.042.447 1.042.301 0 .446.3.446.92 0 .671.162.964.596 1.077.327.085.595.341.595.567 0 .227.201.412.446.412.312 0 .447.314.447 1.042 0 .727.134 1.041.446 1.041.246 0 .447.201.447.447 0 .248.264.446.595.446.46 0 .595.199.595.878 0 .483.178.985.394 1.116.217.131.481.473.586.759.106.287.397.521.648.521.25 0 .455.201.455.446 0 .246.201.447.447.447.245 0 .446.201.446.446 0 .246.185.447.412.447.226 0 .482.268.567.595.086.327.369.595.63.595s.475.201.475.447c0 .245.2.446.446.446.248 0 .446.265.446.595 0 .328.187.595.415.595.228 0 .492.201.586.447.094.245.376.446.627.446s.456.201.456.447c0 .245.201.446.446.446.246 0 .447.205.447.456s.234.544.52.653c.287.108.706.38.932.603.225.223.606.331.846.239.272-.105.494.056.591.429.086.328.393.596.682.596.289 0 .596.268.681.596.106.402.406.595.928.595.488 0 .772.164.772.446 0 .246.201.447.446.447.246 0 .715.268 1.042.595.327.327.863.595 1.191.595.33 0 .595.199.595.447 0 .298.298.446.902.446.527 0 .973.186 1.073.446.098.255.542.447 1.033.447.562 0 .861.153.861.441 0 .518 1.187.876 2.237.675.573-.109.739-.016.739.413 0 .467.235.554 1.488.554 1.124 0 1.488.109 1.488.447 0 .336.362.446 1.468.446 1.207 0 1.502.106 1.657.595.168.529.45.596 2.518.596 1.796 0 2.368.102 2.501.446.258.674 18.047.674 18.047 0 0-.357.446-.446 2.229-.446 1.908 0 2.284-.086 2.602-.596.287-.459.694-.595 1.788-.595 1.061 0 1.416-.112 1.416-.446 0-.338.364-.447 1.488-.447 1.125 0 1.489-.109 1.489-.446 0-.288.291-.448.818-.451 1.274-.006 2.158-.323 2.158-.774 0-.26.332-.412.902-.412.527 0 .973-.186 1.073-.447.095-.245.476-.446.848-.446.371 0 .842-.201 1.046-.446.204-.246.555-.447.78-.447.226 0 .41-.268.41-.595 0-.482.199-.595 1.042-.595.685 0 1.042-.14 1.042-.41 0-.225.401-.489.892-.587.524-.105.893-.367.893-.633 0-.255.261-.454.596-.454.33 0 .595-.198.595-.446 0-.246.191-.446.424-.446.234 0 .47-.235.525-.521.055-.286.3-.533.543-.55 1.301-.087 1.484-.157 1.484-.566 0-.246.201-.447.446-.447a.448.448 0 0 0 .447-.446c0-.246.167-.449.372-.452.454-.006 1.711-1.291 1.711-1.748 0-.181.268-.33.595-.33.331 0 .596-.198.596-.446 0-.246.201-.447.446-.447.248 0 .447-.264.447-.595 0-.331.198-.595.446-.595a.448.448 0 0 0 .446-.447c0-.248.265-.446.596-.446.336 0 .595-.199.595-.456 0-.251.201-.533.446-.627.255-.098.447-.542.447-1.032 0-.567.152-.861.446-.861.248 0 .447-.265.447-.596 0-.396.198-.595.595-.595.327 0 .595-.186.595-.414 0-.228.201-.492.446-.586.261-.1.447-.546.447-1.074 0-.704.131-.902.595-.902.463 0 .595-.198.595-.893 0-.595.149-.893.447-.893.245 0 .446-.253.446-.563 0-.31.201-.641.447-.735.253-.097.446-.541.446-1.027 0-.478.263-1.094.595-1.395.37-.334.596-.917.596-1.534 0-.687.138-.996.446-.996.299 0 .446-.299.446-.905 0-.498.268-1.193.596-1.544.327-.352.599-1.049.604-1.55.006-.501.206-1.171.447-1.489.24-.318.437-1.206.437-1.973 0-.876.166-1.532.446-1.765.339-.281.447-1.044.447-3.161 0-2.244.084-2.791.433-2.791 1.002 0 1.085-12.797.087-13.525-.43-.314-.52-.853-.52-3.11 0-2.151-.095-2.766-.447-2.901-.317-.121-.446-.617-.446-1.719 0-.901-.183-1.79-.437-2.126-.241-.318-.441-.983-.447-1.479-.005-.552-.24-1.068-.604-1.331-.415-.299-.596-.77-.596-1.554 0-.801-.128-1.124-.446-1.124-.312 0-.446-.315-.446-1.042 0-.843-.114-1.042-.596-1.042s-.595-.198-.595-1.041c0-.728-.135-1.042-.446-1.042-.298 0-.447-.298-.447-.893s-.149-.893-.446-.893c-.248 0-.447-.264-.447-.595 0-.327-.267-.863-.595-1.19-.327-.328-.595-.781-.595-1.007 0-.227-.259-.48-.576-.563-.422-.11-.531-.323-.407-.796.127-.487.013-.687-.466-.812-.364-.095-.634-.404-.634-.726 0-.309-.201-.561-.447-.561a.457.457 0 0 1-.446-.464c0-.255-.112-.395-.249-.31-.137.084-.469-.31-.739-.875-.27-.566-.627-1.029-.793-1.029-.167 0-.303-.268-.303-.596 0-.33-.198-.595-.446-.595-.246 0-.446-.128-.446-.284 0-.369-1.431-1.799-1.8-1.799-.156 0-.284-.201-.284-.447 0-.245-.143-.446-.317-.446-.175 0-.76-.469-1.3-1.042-.541-.573-1.268-1.041-1.617-1.041-.366 0-.635-.19-.635-.447 0-.248-.264-.446-.595-.446-.397 0-.595-.199-.595-.595 0-.331-.199-.596-.447-.596a.448.448 0 0 1-.446-.446c0-.312-.314-.447-1.042-.447-.843 0-1.042-.113-1.042-.595 0-.327-.186-.595-.414-.595-.228 0-.492-.201-.586-.446-.1-.261-.546-.447-1.074-.447-.603 0-.902-.148-.902-.446 0-.312-.314-.447-1.041-.447-.844 0-1.042-.113-1.042-.595 0-.458-.198-.595-.861-.595-.491 0-.935-.192-1.032-.447-.101-.261-.546-.446-1.074-.446-.603 0-.902-.148-.902-.446 0-.306-.306-.447-.97-.447-.648 0-1.094-.198-1.342-.595-.271-.434-.694-.595-1.56-.595-.857 0-1.188-.125-1.188-.447 0-.353-.426-.446-2.048-.446-1.824 0-2.067-.068-2.211-.619-.138-.528-.371-.611-1.597-.568-3.28.113-4.263.009-4.263-.45 0-.706-13.94-.664-14.648.044M85.119 20.947c0 .509.914.77 2.717.775.857.003 1.517.173 1.747.451.246.295.912.446 1.971.446 1.225 0 1.601.105 1.601.446 0 .296.295.447.873.447.611 0 .929.178 1.061.595.133.417.451.595 1.062.595.577 0 .873.151.873.447 0 .309.31.446 1.007.446.756 0 1.045.148 1.162.595.114.434.406.596 1.077.596.62 0 .92.146.92.446 0 .246.201.447.447.447.245 0 .446.2.446.446 0 .248.265.446.596.446.327 0 .595.191.595.423 0 .233.402.511.893.619.491.108.893.386.893.619 0 .233.2.423.446.423.245 0 .446.201.446.446 0 .248.265.447.596.447.336 0 .595.198.595.455 0 .251.201.533.446.627.246.095.447.358.447.586 0 .228.268.415.595.415.397 0 .595.198.595.595 0 .331.199.595.447.595.245 0 .446.201.446.447 0 .245.201.446.446.446.246 0 .447.201.447.447 0 .245.268.714.595 1.041.328.328.595.797.595 1.042 0 .246.201.446.447.446.271 0 .446.278.446.708 0 .389.193.867.428 1.062.235.195.513.747.618 1.227.106.48.382.873.615.873.232 0 .423.251.423.558 0 .308.2.726.446.93.246.203.446.678.446 1.053 0 .993.302 1.625.776 1.625.299 0 .415.415.415 1.488 0 1.125.109 1.488.446 1.488.342 0 .447.378.447 1.616 0 1.069.157 1.773.466 2.082.696.696.696 12.051 0 12.44-.348.195-.466.748-.466 2.181 0 1.508-.096 1.919-.447 1.919-.334 0-.446.357-.446 1.422 0 1.054-.154 1.554-.595 1.932-.386.33-.596.878-.596 1.554 0 .73-.134 1.045-.446 1.045-.309 0-.446.31-.446 1.007 0 .756-.148 1.045-.596 1.162-.341.09-.595.406-.595.743 0 .322-.201.753-.446.957-.246.204-.447.608-.447.897 0 .29-.201.604-.446.699-.246.094-.447.51-.447.924 0 .555-.156.754-.595.754-.327 0-.595.186-.595.414 0 .228-.201.492-.447.586-.245.094-.446.377-.446.627a.452.452 0 0 1-.446.456c-.246 0-.447.169-.447.375s-.268.542-.595.746c-.337.211-.595.695-.595 1.114 0 .595-.149.741-.754.741-.414 0-.825.188-.913.417-.088.23-.419.485-.735.568-.316.082-.574.363-.574.624s-.201.475-.447.475c-.245 0-.446.2-.446.446 0 .248-.265.446-.596.446-.33 0-.595.199-.595.447 0 .245-.171.446-.381.446-.209 0-.573.268-.809.596-.236.327-.735.595-1.108.595-.404 0-.678.18-.678.446 0 .299-.299.447-.902.447-.528 0-.974.185-1.074.446-.097.255-.541.446-1.032.446-.663 0-.861.138-.861.596 0 .516-.198.595-1.488.595-1.124 0-1.488.109-1.488.446 0 .339-.367.447-1.516.447-1.266 0-1.542.098-1.672.595-.129.493-.406.595-1.609.595-1.093 0-1.453.111-1.453.447 0 .671-12.946.671-13.203 0-.126-.327-.642-.447-1.932-.447-1.51 0-1.782-.084-1.916-.595-.127-.487-.406-.595-1.532-.595-.949 0-1.43-.139-1.548-.447-.097-.254-.541-.446-1.032-.446-.474 0-1.129-.268-1.456-.595-.328-.328-.806-.596-1.063-.596-.257 0-.669-.2-.914-.446-.246-.245-.689-.446-.984-.446-.296 0-.705-.201-.908-.447-.204-.245-.689-.446-1.078-.446-.431 0-.708-.175-.708-.447a.448.448 0 0 0-.446-.446c-.246 0-.715-.268-1.042-.595-.328-.328-.796-.596-1.042-.596a.447.447 0 0 1-.446-.446.447.447 0 0 0-.447-.446c-.248 0-.446-.265-.446-.596 0-.336-.199-.595-.456-.595-.251 0-.533-.201-.627-.446-.094-.246-.358-.447-.586-.447-.228 0-.414-.201-.414-.446a.448.448 0 0 0-.447-.447.452.452 0 0 1-.446-.455c0-.251-.201-.533-.447-.627-.245-.095-.446-.358-.446-.586 0-.228-.268-.415-.595-.415-.397 0-.596-.198-.596-.595 0-.331-.198-.595-.446-.595a.447.447 0 0 1-.446-.447c0-.245-.268-.714-.596-1.042-.327-.327-.595-.796-.595-1.041a.448.448 0 0 0-.446-.447c-.294 0-.447-.294-.447-.861 0-.473-.188-.933-.418-1.021-.23-.088-.509-.572-.619-1.074-.11-.502-.391-.913-.623-.913-.254 0-.423-.301-.423-.753 0-.414-.201-.831-.447-.925-.276-.106-.446-.559-.446-1.19 0-.632-.17-1.085-.446-1.191-.297-.113-.448-.585-.451-1.404-.005-1.665-.279-2.572-.775-2.572-.318 0-.411-.575-.411-2.53 0-2.05-.085-2.53-.447-2.53-.375 0-.446-.657-.446-4.13 0-3.308.089-4.204.446-4.501.323-.268.447-.977.447-2.566 0-1.671.098-2.196.411-2.196.465 0 .769-.89.775-2.27.002-.512.216-1.107.476-1.322.304-.252.426-.704.343-1.267-.098-.666.003-.909.421-1.019.36-.094.55-.416.55-.93 0-.464.244-.939.595-1.158.337-.211.595-.694.595-1.114 0-.46.169-.741.447-.741.312 0 .446-.314.446-1.042 0-.727.135-1.042.447-1.042.245 0 .446-.14.446-.312s.469-.795 1.042-1.385c.573-.59 1.041-1.304 1.041-1.587 0-.283.268-.585.596-.671.327-.085.595-.369.595-.63s.201-.474.446-.474a.448.448 0 0 0 .447-.446c0-.246.201-.447.446-.447.248 0 .447-.264.447-.595 0-.397.198-.595.595-.595.327 0 .6-.168.607-.372.006-.205.676-.696 1.488-1.091.812-.396 1.476-.898 1.476-1.116 0-.219.201-.398.447-.398.245 0 .446-.2.446-.446s.254-.446.563-.446c.31 0 .641-.201.735-.447.094-.245.511-.446.925-.446.555 0 .753-.157.753-.596 0-.481.199-.595 1.042-.595.727 0 1.042-.134 1.042-.446 0-.301.3-.447.92-.447.671 0 .963-.161 1.077-.595.126-.482.406-.595 1.469-.595.894 0 1.369-.143 1.486-.447.116-.303.592-.446 1.488-.446s1.371-.143 1.488-.446c.123-.321.624-.447 1.779-.447 1.24 0 1.725-.136 2.118-.595.657-.767 10.496-.94 10.496-.184m120.622.184c.134.512.406.595 1.937.595 1.31 0 1.828.119 1.953.447.117.303.593.446 1.489.446.895 0 1.371.143 1.488.446.105.275.557.447 1.176.447.627 0 1.207.224 1.543.595.297.328.723.595.949.595.225 0 .486.201.581.447.097.254.541.446 1.032.446.546 0 .861.155.861.423 0 .233.411.513.913.623.502.111.985.389 1.073.619.089.23.331.419.539.419.208 0 .545.2.749.446.204.246.689.446 1.078.446.509 0 .708.167.708.596 0 .33.198.595.446.595.245 0 .446.201.446.446 0 .248.265.447.596.447.33 0 .595.198.595.446 0 .298.297.447.893.447.694 0 .893.132.893.595 0 .331.198.595.446.595.246 0 .446.201.446.447 0 .245.268.714.596 1.041.327.328.595.796.595 1.042 0 .245.201.446.446.446.246 0 .447.201.447.447 0 .248.264.446.595.446.397 0 .595.199.595.595 0 .331.199.596.447.596.297 0 .446.297.446.892 0 .596.149.893.447.893.245 0 .446.257.446.571 0 .887.321 1.513.776 1.513.263 0 .414.329.414.902 0 .527.186.973.447 1.073.245.095.446.416.446.714s.179.721.398.94c.219.219.478.994.576 1.722.097.728.387 1.478.643 1.665.308.225.467.812.467 1.722 0 1.006.116 1.381.43 1.381.485 0 .687 4.674.521 12.053-.074 3.265-.171 4.018-.521 4.018-.323 0-.43.408-.43 1.637 0 1.195-.111 1.637-.412 1.637-.499 0-.769.909-.775 2.604-.003.924-.124 1.265-.45 1.265-.272 0-.447.277-.447.708 0 .389-.201.874-.446 1.078-.246.203-.447.54-.447.748 0 .208-.188.451-.418.539-.23.088-.506.56-.613 1.049-.108.488-.388.962-.624 1.052-.242.093-.428.556-.428 1.067 0 .603-.148.902-.446.902-.246 0-.447.185-.447.412 0 .226-.268.481-.595.567-.327.086-.595.355-.595.598s-.201.52-.447.614c-.245.094-.446.51-.446.925 0 .554-.157.753-.595.753-.328 0-.596.186-.596.414 0 .229-.2.492-.446.586-.246.095-.446.377-.446.627 0 .251-.186.456-.412.456-.227 0-.485.282-.575.625-.098.374-.301.541-.505.415-.191-.118-.535.065-.781.416-.242.345-.7.628-1.018.628-.318 0-.578.2-.578.446a.452.452 0 0 1-.456.446c-.251 0-.533.201-.627.447-.095.245-.358.446-.586.446-.228 0-.415.268-.415.596 0 .481-.198.595-1.041.595-.728 0-1.042.134-1.042.446 0 .289-.29.447-.821.447-.488 0-.967.232-1.178.57-.239.383-.563.517-.982.407-.465-.121-.668 0-.792.471-.128.49-.395.635-1.173.635-.696 0-1.007.138-1.007.446 0 .348-.399.447-1.813.447-1.563 0-1.835.082-1.969.595-.132.502-.406.595-1.758.595-1.226 0-1.602.105-1.602.447 0 .383-.926.446-6.548.446s-6.548-.063-6.548-.446c0-.335-.355-.447-1.416-.447-1.094 0-1.501-.135-1.788-.595-.305-.488-.694-.595-2.155-.595-1.387 0-1.783-.099-1.783-.447 0-.289-.29-.446-.822-.446-.499 0-.967-.234-1.193-.595-.204-.328-.691-.596-1.081-.596s-.787-.2-.881-.446c-.1-.261-.546-.446-1.074-.446-.619 0-.902-.146-.902-.466 0-.264-.224-.442-.521-.412-1.173.12-1.562-.032-1.562-.61 0-.331-.199-.596-.447-.596a.448.448 0 0 1-.446-.446c0-.248-.265-.447-.595-.447-.331 0-.596-.198-.596-.446 0-.298-.297-.446-.892-.446-.695 0-.893-.133-.893-.596 0-.33-.199-.595-.447-.595a.448.448 0 0 1-.446-.446c0-.248-.265-.447-.595-.447-.397 0-.596-.198-.596-.595 0-.331-.198-.595-.446-.595a.447.447 0 0 1-.446-.447c0-.248-.265-.446-.596-.446-.438 0-.595-.199-.595-.753 0-.415-.201-.831-.446-.925-.246-.094-.447-.362-.447-.595 0-.234-.201-.501-.446-.596-.246-.094-.447-.358-.447-.586 0-.228-.267-.414-.595-.414-.464 0-.595-.199-.595-.902 0-.528-.186-.974-.447-1.074-.245-.094-.446-.424-.446-.732 0-.309-.268-.728-.595-.933-.328-.204-.595-.591-.595-.859s-.201-.654-.447-.857c-.245-.204-.446-.689-.446-1.078 0-.431-.175-.708-.447-.708-.336 0-.446-.361-.446-1.464 0-1.741-.214-2.405-.776-2.405-.304 0-.415-.436-.415-1.637 0-1.229-.107-1.637-.43-1.637-.35 0-.447-.753-.521-4.018-.166-7.379.036-12.053.521-12.053.315 0 .43-.38.43-1.417 0-1.094.136-1.501.596-1.788.487-.305.595-.694.595-2.155 0-1.387.099-1.783.446-1.783.246 0 .447-.187.447-.415 0-.228.201-.491.446-.586.256-.098.447-.542.447-1.038 0-.618.171-.913.595-1.024.433-.113.595-.406.595-1.076 0-.62.146-.921.446-.921.294 0 .447-.293.447-.858 0-.608.174-.903.595-1.014.328-.085.595-.369.595-.63 0-.26.201-.474.447-.474a.448.448 0 0 0 .446-.446c0-.246.201-.447.447-.447.248 0 .446-.264.446-.595 0-.335.199-.595.454-.595.266 0 .528-.369.632-.893.099-.491.363-.893.588-.893.225 0 .409-.268.409-.595 0-.463.199-.595.893-.595.68 0 .893-.136.893-.568 0-.421.154-.527.595-.411.414.108.596.009.596-.326 0-.265.213-.481.474-.481s.544-.268.63-.595c.085-.328.398-.596.695-.596.296 0 .74-.2.985-.446.246-.246.595-.446.775-.446.181 0 .402-.193.493-.429.09-.235.555-.514 1.032-.619.477-.104.868-.38.868-.613 0-.247.295-.423.708-.423.389 0 .874-.201 1.078-.446.203-.246.621-.447.926-.447.306 0 .724-.267.928-.595.265-.424.695-.595 1.491-.595.796 0 1.119-.129 1.119-.447 0-.331.348-.446 1.349-.446.924 0 1.402-.14 1.52-.446.125-.328.643-.447 1.953-.447 1.531 0 1.803-.083 1.937-.595.149-.569.406-.595 5.741-.595s5.592.026 5.741.595m119.557-.155c0 .55 1.121.848 2.647.702.874-.083 1.247.02 1.493.415.226.361.704.526 1.526.526.79 0 1.256.152 1.369.446.115.301.587.447 1.444.447 1.048 0 1.302.112 1.438.633.132.503.331.602.965.481.609-.116.833-.02.945.408.106.405.417.561 1.119.561.722 0 1.012.153 1.128.595.089.342.406.596.742.596.323 0 .754.201.957.446.204.246.555.447.781.447.225 0 .41.2.41.446s.201.446.446.446c.246 0 .447.125.447.278 0 .56 1.89 1.665 3.05 1.783.123.013.224.224.224.469 0 .246.2.447.446.447.248 0 .446.264.446.595 0 .331.199.595.447.595.245 0 .446.201.446.447 0 .248.265.446.596.446.396 0 .595.198.595.595 0 .331.198.595.446.595.246 0 .447.248.447.55 0 .302.468 1.032 1.041 1.622.573.59 1.042 1.213 1.042 1.385 0 .172.201.312.446.312.301 0 .447.301.447.921 0 .671.162.963.595 1.077.42.109.595.406.595 1.003 0 .523.213.962.556 1.145.392.21.514.52.412 1.052-.106.556-.018.755.337.755.336 0 .481.269.481.893 0 .496.265 1.157.595 1.488.437.436.595.992.595 2.083 0 1.124.11 1.488.447 1.488.36 0 .446.464.446 2.391 0 1.85.101 2.429.447 2.561.367.141.446.905.446 4.306 0 3.477-.071 4.135-.446 4.135-.362 0-.447.48-.447 2.53s-.084 2.53-.446 2.53c-.35 0-.447.409-.447 1.899 0 1.65-.078 1.921-.595 2.056-.437.114-.595.406-.595 1.098 0 .518-.201 1.142-.446 1.388-.246.245-.447.705-.447 1.02 0 .316-.201.574-.446.574-.301 0-.447.301-.447.921 0 .67-.162.963-.595 1.076-.422.111-.595.406-.595 1.014 0 .565-.153.858-.447.858a.448.448 0 0 0-.446.447c0 .245-.268.714-.595 1.041-.328.328-.596.797-.596 1.042 0 .246-.2.447-.446.447-.248 0-.446.264-.446.595 0 .33-.199.595-.447.595a.448.448 0 0 0-.446.446.453.453 0 0 1-.456.447c-.251 0-.542.224-.647.498-.244.636-1.188 1.585-1.576 1.585-.163 0-.297.186-.297.412 0 .226-.268.482-.596.567-.327.086-.595.369-.595.63s-.201.475-.446.475c-.246 0-.447.2-.447.446s-.247.446-.549.446c-.302 0-.791.268-1.088.596-.296.327-.718.595-.939.595-.22 0-.4.201-.4.446 0 .294-.294.447-.861.447-.474 0-.933.188-1.022.418-.088.23-.571.509-1.073.619-.502.11-.913.324-.913.475 0 .15-.268.273-.595.273-.328 0-.863.268-1.191.596-.33.33-.992.595-1.488.595-.595 0-.893.149-.893.446 0 .336-.36.447-1.453.447-1.203 0-1.48.102-1.609.595-.134.512-.406.595-1.937.595-1.31 0-1.828.119-1.954.447-.257.671-13.285.671-13.285 0 0-.336-.36-.447-1.453-.447-1.203 0-1.48-.102-1.609-.595-.13-.497-.406-.595-1.672-.595-1.149 0-1.516-.108-1.516-.447 0-.329-.343-.446-1.304-.446-1.055 0-1.335-.114-1.461-.595-.113-.434-.406-.596-1.076-.596-.62 0-.921-.145-.921-.446 0-.312-.314-.446-1.041-.446-.728 0-1.042-.135-1.042-.447 0-.245-.247-.446-.549-.446-.302 0-.792-.268-1.088-.595-.296-.328-.719-.596-.939-.596-.22 0-.4-.201-.4-.446 0-.248-.265-.447-.595-.447-.331 0-.596-.198-.596-.446a.447.447 0 0 0-.446-.446c-.246 0-.447-.176-.447-.391 0-.534-1.622-1.693-2.368-1.693-.413 0-.608-.194-.608-.607 0-.747-1.159-2.369-1.693-2.369-.214 0-.39-.205-.39-.456 0-.25-.201-.533-.446-.627-.246-.094-.447-.358-.447-.586 0-.228-.268-.414-.595-.414-.439 0-.595-.199-.595-.754 0-.414-.201-.83-.447-.924-.245-.095-.446-.368-.446-.608 0-.239-.201-.636-.447-.882-.245-.245-.446-.771-.446-1.169 0-.524-.163-.723-.595-.723-.482 0-.596-.198-.596-1.041 0-.728-.134-1.042-.446-1.042-.31 0-.446-.312-.446-1.021 0-.561-.201-1.221-.447-1.466-.245-.246-.446-.914-.446-1.485 0-1.332-.254-1.981-.776-1.981-.312 0-.415-.479-.415-1.934 0-1.521-.095-1.935-.446-1.935-.383 0-.447-.878-.447-6.122 0-5.045.079-6.201.447-6.569.285-.285.446-1.019.446-2.027 0-1.331.094-1.606.595-1.737.484-.126.596-.406.596-1.491 0-.912.141-1.389.446-1.506.296-.114.447-.581.447-1.381s.151-1.267.446-1.38c.246-.095.446-.425.446-.735s.191-.563.423-.563c.233 0 .509-.391.614-.868.104-.478.383-.942.619-1.033.242-.093.428-.556.428-1.066 0-.604.148-.903.446-.903.246 0 .447-.2.447-.446 0-.245.267-.714.595-1.042.327-.327.595-.796.595-1.041 0-.246.201-.447.447-.447.245 0 .446-.185.446-.411 0-.227.268-.482.595-.568.328-.085.595-.369.595-.63s.201-.474.447-.474c.245 0 .446-.187.446-.415 0-.228.201-.491.447-.586.245-.094.446-.376.446-.627 0-.257.259-.455.595-.455.331 0 .596-.199.596-.447 0-.245.201-.446.446-.446.246 0 .446-.19.446-.423 0-.233.391-.509.868-.613.478-.105.942-.384 1.033-.619a.717.717 0 0 1 .62-.429c.251 0 .456-.2.456-.446s.205-.446.455-.446c.251 0 .533-.201.628-.447.094-.245.504-.446.911-.446.49 0 .793-.202.896-.596.117-.447.406-.595 1.162-.595.697 0 1.007-.137 1.007-.446 0-.301.301-.447.921-.447.67 0 .963-.161 1.076-.595.117-.447.406-.595 1.163-.595.697 0 1.007-.138 1.007-.447 0-.335.36-.446 1.452-.446.927 0 1.585-.161 1.822-.446.23-.278.89-.448 1.747-.451 1.803-.005 2.717-.266 2.717-.775 0-.334.972-.411 5.208-.411 4.402 0 5.209.068 5.209.44M71.205 182.643c-.204.08-.372.334-.372.566 0 .329-.526.422-2.39.422-1.85 0-2.429.101-2.562.446-.125.328-.643.447-1.953.447-1.531 0-1.803.083-1.937.595-.117.447-.406.595-1.163.595-.696 0-1.007.138-1.007.447 0 .331-.348.446-1.348.446-.924 0-1.403.141-1.52.447-.099.259-.545.446-1.06.446-.639 0-.933.168-1.045.595-.111.424-.406.595-1.023.595-.497 0-.941.191-1.039.447-.094.245-.496.446-.893.446s-.793.188-.881.417c-.088.23-.419.485-.735.568-.316.082-.575.364-.575.624 0 .329-.274.475-.892.475-.596 0-.893.148-.893.446 0 .248-.265.447-.596.447-.396 0-.595.198-.595.595 0 .33-.198.595-.446.595a.448.448 0 0 0-.447.446c0 .283-.284.447-.776.447-.812 0-2.186 1.071-2.195 1.711-.003.205-.273.372-.6.372-.331 0-.595.199-.595.447a.448.448 0 0 1-.447.446.448.448 0 0 0-.446.446.448.448 0 0 1-.447.447c-.248 0-.446.264-.446.595 0 .397-.198.595-.595.595-.331 0-.596.199-.596.447 0 .245-.2.446-.446.446-.248 0-.446.265-.446.595 0 .397-.199.596-.596.596-.327 0-.595.186-.595.414 0 .228-.201.492-.446.586-.246.094-.447.319-.447.5 0 .18-.201.529-.446.774-.246.246-.447.705-.447 1.021 0 .315-.152.574-.337.574-.589 0-1.746 1.489-1.746 2.247 0 .45-.171.729-.446.729-.248 0-.447.265-.447.595 0 .328-.186.595-.414.595-.455 0-.776.626-.776 1.513 0 .314-.201.571-.447.571-.298 0-.446.298-.446.902 0 .529-.186.973-.448 1.074-.247.095-.533.705-.638 1.356-.104.65-.371 1.253-.593 1.338-.227.087-.404.584-.404 1.133 0 .595-.175 1.045-.447 1.15-.295.113-.446.579-.446 1.371 0 .803-.197 1.396-.596 1.795-.448.448-.595.992-.595 2.2 0 1.152-.126 1.654-.446 1.776-.354.136-.447.762-.447 3.009 0 2.323-.08 2.836-.446 2.836-.384 0-.446.96-.446 6.855 0 5.818.067 6.88.446 7.026.347.133.446.721.446 2.648 0 1.804.122 2.597.447 2.923.276.276.446 1.006.446 1.909 0 1.086.154 1.603.595 2.002.372.336.596.917.596 1.544 0 .619.171 1.071.446 1.176.301.115.447.588.447 1.447 0 .859.145 1.332.446 1.447.246.094.446.523.446.952 0 .531.191.832.596.937.447.117.595.406.595 1.163 0 .697.137 1.007.446 1.007.301 0 .447.301.447.921 0 .67.162.963.595 1.076.388.101.595.406.595.874 0 .396.201.796.447.89.245.095.446.425.446.735s.19.563.423.563c.232 0 .511.402.619.893.108.491.386.893.619.893.232 0 .422.268.422.595 0 .331.199.596.447.596.245 0 .446.205.446.455 0 .251.201.533.447.628.245.094.446.357.446.585 0 .228.268.415.595.415.331 0 .596.198.596.446 0 .246.201.447.446.447.246 0 .446.244.446.541 0 .786 1.581 2.435 2.334 2.435.444 0 .643.184.643.595 0 .397.198.596.595.596.331 0 .595.198.595.446 0 .245.201.446.447.446.245 0 .446.149.446.33 0 .458 1.258 1.742 1.711 1.749.205.002.372.206.372.451 0 .301.301.447.921.447.67 0 .963.161 1.076.595.086.327.341.595.568.595.226 0 .412.201.412.446 0 .312.314.447 1.041.447.843 0 1.042.113 1.042.595 0 .343.198.595.468.595.257 0 .668.201.914.447.245.245.704.446 1.02.446.316 0 .574.201.574.447 0 .311.314.446 1.042.446.691 0 1.041.139 1.041.414 0 .43 1.327.911 1.766.64.137-.085.32.112.405.438.126.482.407.591 1.522.591 1.017 0 1.367.115 1.367.447 0 .331.347.446 1.339.446.943 0 1.516.177 1.935.596.436.436.992.595 2.083.595 1.124 0 1.488.109 1.488.446 0 .372.595.447 3.572.447 2.842 0 3.571.084 3.571.411 0 .618.978.771 4.911.771s4.91-.153 4.91-.771c0-.327.729-.411 3.572-.411 2.976 0 3.571-.075 3.571-.447 0-.348.4-.446 1.814-.446 1.563 0 1.835-.082 1.969-.595.128-.491.406-.596 1.577-.596.989 0 1.474-.136 1.593-.446.117-.304.592-.447 1.488-.447s1.372-.142 1.488-.446c.095-.246.51-.446.923-.446.428 0 .91-.256 1.122-.596.226-.361.694-.595 1.193-.595.532 0 .821-.157.821-.446 0-.45.304-.56 1.267-.462.288.029.604-.156.702-.412.098-.256.304-.466.457-.466.153 0 .565-.267.917-.595.351-.327.881-.595 1.178-.595.296 0 .539-.201.539-.447 0-.248.265-.446.598-.446.329 0 .828-.268 1.108-.595.28-.328.681-.595.89-.595.209 0 .38-.201.38-.447 0-.248.265-.446.595-.446.331 0 .596-.199.596-.447 0-.245.186-.446.414-.446.228 0 .493-.203.588-.451.095-.248.511-.58.924-.737.414-.157.752-.414.752-.57 0-.157.268-.37.595-.474.328-.104.596-.381.596-.616 0-.234.134-.426.297-.426.287 0 2.679-2.244 2.679-2.513 0-.073.468-.642 1.04-1.265.572-.623 1.041-1.367 1.042-1.653.001-.287.202-.521.448-.521a.448.448 0 0 0 .446-.447c0-.245.204-.446.454-.446.249 0 .576-.322.725-.715.15-.394.415-.803.588-.911.174-.107.316-.423.316-.701 0-.278.268-.673.596-.878.336-.21.595-.694.595-1.113 0-.461.169-.742.446-.742.253 0 .447-.267.447-.616 0-.339.201-.818.446-1.063.246-.246.447-.742.447-1.104 0-.361.267-.85.595-1.086.339-.245.595-.77.595-1.224 0-.438.201-.873.446-.967.256-.098.447-.542.447-1.041 0-.499.19-.944.446-1.042.304-.117.447-.592.447-1.485 0-1.064.113-1.344.595-1.47.519-.136.595-.406.595-2.118 0-1.546.095-1.962.447-1.962.361 0 .446-.48.446-2.53 0-1.964.093-2.53.415-2.53 1.059 0 1.225-14.824.18-16.152-.477-.607-.595-1.208-.595-3.026 0-1.742-.104-2.309-.446-2.44-.321-.123-.447-.624-.447-1.774 0-1.28-.12-1.678-.595-1.974-.424-.265-.595-.695-.595-1.491 0-.796-.129-1.119-.447-1.119-.331 0-.446-.348-.446-1.349 0-.924-.141-1.402-.447-1.52-.245-.094-.446-.413-.446-.71 0-.857-.327-1.481-.776-1.481-.263 0-.414-.329-.414-.902 0-.527-.186-.973-.447-1.073-.254-.098-.446-.542-.446-1.033 0-.566-.153-.861-.447-.861-.248 0-.446-.264-.446-.595 0-.327-.268-.863-.595-1.19-.328-.328-.596-.796-.596-1.042a.448.448 0 0 0-.446-.446c-.246 0-.447-.169-.447-.375s-.267-.542-.595-.747c-.327-.204-.595-.624-.595-.932 0-.309-.201-.638-.446-.733-.246-.094-.447-.376-.447-.627a.452.452 0 0 0-.446-.455.448.448 0 0 1-.447-.447c0-.248-.264-.446-.595-.446-.397 0-.595-.199-.595-.596 0-.33-.199-.595-.447-.595a.448.448 0 0 1-.446-.446.448.448 0 0 0-.446-.447c-.246 0-.447-.213-.447-.474s-.268-.544-.595-.63c-.328-.085-.595-.341-.595-.567 0-.227-.201-.412-.447-.412a.448.448 0 0 1-.446-.446c0-.248-.265-.447-.595-.447-.397 0-.596-.198-.596-.595 0-.331-.198-.595-.446-.595a.448.448 0 0 1-.447-.447c0-.248-.264-.446-.595-.446-.33 0-.595-.199-.595-.447 0-.297-.298-.446-.893-.446-.694 0-.893-.132-.893-.595 0-.328-.186-.595-.414-.595-.228 0-.492-.201-.586-.447-.098-.255-.542-.446-1.039-.446-.617 0-.912-.172-1.023-.596-.086-.327-.369-.595-.63-.595s-.474-.201-.474-.446c0-.294-.295-.447-.861-.447-.491 0-.935-.192-1.033-.446-.098-.256-.542-.447-1.039-.447-.617 0-.912-.171-1.023-.595-.112-.427-.406-.595-1.044-.595-.532 0-.961-.187-1.068-.465-.098-.256-.414-.442-.701-.413-1.342.137-2.16-.038-2.16-.461 0-.309-.31-.447-1.007-.447-.757 0-1.046-.148-1.163-.595-.134-.513-.406-.595-1.969-.595-1.413 0-1.813-.099-1.813-.447 0-.361-.476-.446-2.495-.446-2.234 0-2.512-.062-2.649-.588-.148-.564-16.331-.93-17.699-.4m119.941.108c-.368.146-.67.404-.67.573 0 .185-.945.307-2.39.307-1.85 0-2.429.101-2.562.446-.12.313-.607.447-1.627.447-1.258 0-1.457.081-1.457.595 0 .584-.788.78-2.455.611-.296-.03-.521.147-.521.412 0 .333-.295.465-1.041.465-.728 0-1.042.135-1.042.447 0 .3-.301.446-.921.446-.67 0-.963.162-1.076.595-.11.422-.406.595-1.014.595-.564 0-.858.153-.858.447 0 .312-.314.446-1.042.446-.727 0-1.041.135-1.041.447 0 .245-.257.446-.571.446-.887 0-1.513.321-1.513.776 0 .228-.201.415-.446.415a.448.448 0 0 0-.447.446c0 .301-.3.447-.92.447-.671 0-.963.161-1.077.595-.085.327-.341.595-.567.595-.227 0-.412.201-.412.446 0 .248-.264.447-.595.447-.327 0-.595.19-.595.423 0 .232-.402.511-.893.619-.491.107-.893.386-.893.618 0 .233-.205.423-.456.423-.25 0-.533.201-.627.447-.094.245-.358.446-.586.446a.421.421 0 0 0-.414.426c0 .235-.268.512-.596.616-.327.104-.595.381-.595.615a.437.437 0 0 1-.446.426c-.246 0-.447.187-.447.415 0 .228-.201.492-.446.586-.246.094-.447.376-.447.627s-.19.456-.422.456c-.233 0-.511.402-.619.893-.108.491-.387.892-.619.892-.233 0-.423.268-.423.596 0 .33-.198.595-.446.595-.246 0-.447.169-.447.375s-.268.542-.595.746c-.336.21-.595.694-.595 1.114 0 .46-.169.741-.447.741a.44.44 0 0 0-.446.432c0 .237-.207.547-.461.689-.253.142-.484.571-.513.953-.029.385-.288.757-.581.834-.375.098-.528.43-.528 1.145 0 .696-.138 1.007-.447 1.007-.296 0-.446.296-.446.878 0 .496-.208.994-.478 1.145-.288.161-.54.819-.634 1.652-.101.898-.299 1.384-.564 1.384-.265 0-.408.353-.408 1.01 0 .623-.171 1.075-.446 1.181-.329.126-.446.645-.446 1.966 0 1.597-.066 1.796-.596 1.796-.533 0-.595.198-.595 1.902 0 1.417-.114 1.947-.446 2.074-.386.148-.447 1.639-.447 10.904 0 9.266.061 10.757.447 10.905.333.128.446.66.446 2.102 0 1.68.077 1.95.595 2.086.493.129.596.406.596 1.609 0 1.093.11 1.453.446 1.453.337 0 .446.364.446 1.488 0 1.125.11 1.488.447 1.488.3 0 .446.301.446.921 0 .671.162.963.596 1.077.447.116.595.405.595 1.162 0 .697.137 1.007.446 1.007.299 0 .447.299.447.902 0 .528.185.974.446 1.074.246.094.446.504.446.911 0 .49.202.793.596.896.374.098.595.406.595.828 0 .371.201.84.446 1.044.246.204.447.555.447.78 0 .226.268.41.595.41.397 0 .595.199.595.596 0 .33.199.595.447.595.275 0 .446.279.446.729 0 .757 1.157 2.247 1.746 2.247.185 0 .337.201.337.446 0 .246.201.447.447.447.248 0 .446.264.446.595 0 .331.199.595.447.595.245 0 .446.201.446.447 0 .248.265.446.595.446.331 0 .596.199.596.447 0 .245.201.446.446.446.248 0 .447.265.447.595 0 .397.198.596.595.596.33 0 .595.198.595.446 0 .245.185.446.412.446.226 0 .481.268.567.596.086.327.369.595.63.595s.474.201.474.446c0 .298.298.447.893.447s.893.149.893.446c0 .246.185.447.412.447.226 0 .482.267.567.595.086.327.355.595.598.595.244 0 .52.201.614.446.098.256.542.447 1.039.447.617 0 .912.172 1.023.595.103.394.406.595.896.595.407 0 .817.201.911.447.094.245.427.446.74.446.312 0 .734.201.938.447.204.245.823.446 1.376.446.807 0 1.005.118 1.005.595 0 .482.199.596 1.042.596.727 0 1.041.134 1.041.446 0 .337.364.446 1.489.446 1.124 0 1.488.11 1.488.447 0 .336.36.446 1.453.446 1.203 0 1.48.103 1.609.596.127.483.406.595 1.491.595.912 0 1.39.141 1.507.446.138.361.827.447 3.603.447 2.713 0 3.432.085 3.432.409 0 .583 1.359.781 5.357.781s5.357-.198 5.357-.781c0-.324.719-.409 3.432-.409 2.776 0 3.465-.086 3.603-.447.12-.312.608-.446 1.628-.446 1.258 0 1.456-.081 1.456-.595 0-.516.199-.596 1.488-.596 1.125 0 1.488-.109 1.488-.446 0-.338.365-.447 1.498-.447 1.056 0 1.548-.131 1.669-.446.097-.254.541-.446 1.032-.446.662 0 .861-.138.861-.596 0-.479.198-.595 1.02-.595.562 0 1.222-.201 1.467-.446.246-.246.661-.447.924-.447a.75.75 0 0 0 .648-.446c.094-.246.491-.447.881-.447s.877-.267 1.081-.595c.205-.327.598-.595.874-.595.277 0 .68-.175.896-.389.216-.214.628-.477.914-.586.287-.108.521-.402.521-.653 0-.25.201-.455.447-.455a.448.448 0 0 0 .446-.447c0-.287.292-.448.818-.451.812-.006 2.158-1.096 2.158-1.749 0-.181.205-.33.456-.33s.533-.201.627-.446c.094-.246.358-.446.586-.446.228 0 .414-.268.414-.596 0-.33.199-.595.447-.595a.448.448 0 0 0 .446-.446c0-.248.265-.447.596-.447.33 0 .595-.198.595-.446 0-.246.201-.447.446-.447.248 0 .447-.264.447-.595 0-.397.198-.595.595-.595.331 0 .595-.199.595-.447 0-.245.201-.446.447-.446.248 0 .446-.265.446-.595 0-.331.198-.595.446-.595.298 0 .447-.298.447-.893 0-.619.146-.893.474-.893.261 0 .544-.268.63-.595.086-.328.341-.596.567-.596.227 0 .412-.253.412-.563 0-.31.201-.641.447-.735.245-.094.446-.494.446-.89 0-.468.207-.773.595-.874.394-.103.596-.406.596-.896 0-.407.2-.817.446-.911.255-.098.446-.542.446-1.039 0-.617.172-.912.596-1.023.433-.113.595-.406.595-1.077 0-.62.146-.92.446-.92.312 0 .447-.314.447-1.042 0-.727.134-1.042.446-1.042.336 0 .447-.359.447-1.453 0-1.203.102-1.48.595-1.609.483-.126.595-.406.595-1.491 0-.912.141-1.39.446-1.507.338-.129.447-.674.447-2.227 0-1.465.128-2.163.446-2.427.382-.316.447-1.888.447-10.76 0-8.961-.062-10.413-.447-10.561-.332-.127-.446-.657-.446-2.074 0-1.493-.096-1.902-.447-1.902-.326 0-.447-.341-.45-1.265-.005-1.696-.276-2.605-.775-2.605-.272 0-.411-.353-.411-1.041 0-.728-.135-1.042-.447-1.042-.331 0-.446-.348-.446-1.348 0-.925-.141-1.403-.447-1.52-.245-.095-.446-.414-.446-.711 0-.857-.327-1.48-.776-1.48-.275 0-.415-.35-.415-1.042 0-.702-.138-1.042-.422-1.042-.233 0-.511-.401-.619-.893-.108-.491-.387-.892-.619-.892-.233 0-.423-.268-.423-.596 0-.33-.198-.595-.446-.595-.276 0-.447-.279-.447-.729 0-.758-1.157-2.247-1.745-2.247-.186 0-.338-.268-.338-.595 0-.331-.199-.596-.447-.596-.245 0-.446-.256-.446-.569 0-.314-.469-1.053-1.042-1.643-.573-.59-1.041-1.204-1.041-1.364 0-.161-.201-.293-.447-.293-.245 0-.446-.213-.446-.474s-.268-.544-.595-.63c-.328-.085-.596-.341-.596-.567a.414.414 0 0 0-.414-.412c-.228 0-.492-.201-.586-.446-.094-.246-.377-.447-.627-.447a.452.452 0 0 1-.456-.446.448.448 0 0 0-.446-.447c-.246 0-.715-.268-1.042-.595-.327-.327-.729-.595-.893-.595-.164 0-.298-.201-.298-.447 0-.248-.264-.446-.595-.446-.335 0-.595-.198-.595-.454 0-.249-.322-.576-.715-.725-.394-.15-.803-.415-.911-.588-.107-.174-.455-.316-.773-.316-.317 0-.577-.187-.577-.415 0-.455-.626-.776-1.513-.776-.314 0-.571-.201-.571-.446a.458.458 0 0 0-.467-.447c-.257 0-.669-.201-.914-.446-.246-.246-.771-.447-1.167-.447-.398 0-.887-.266-1.092-.595-.248-.397-.694-.595-1.342-.595-.664 0-.97-.141-.97-.446 0-.312-.314-.447-1.042-.447-.727 0-1.041-.134-1.041-.446 0-.338-.364-.447-1.488-.447-1.29 0-1.488-.079-1.488-.595 0-.514-.199-.595-1.457-.595-1.02 0-1.507-.134-1.627-.447-.132-.342-.695-.446-2.413-.446-1.842 0-2.347-.106-2.834-.593-.647-.646-16.539-.898-18.083-.287m120.09.292c-.315.504-.699.588-2.686.588-1.786 0-2.358.102-2.49.446-.126.328-.644.447-1.953.447-1.531 0-1.804.083-1.937.595-.117.447-.406.595-1.163.595-.697 0-1.007.138-1.007.447 0 .331-.348.446-1.349.446-.924 0-1.402.141-1.52.447-.096.251-.539.446-1.012.446-.579 0-.9.185-1.03.595-.132.417-.45.595-1.061.595-.578 0-.873.152-.873.447 0 .312-.314.446-1.042.446-.688 0-1.042.14-1.042.412 0 .226-.267.482-.595.567-.327.086-.595.37-.595.63 0 .329-.274.475-.893.475-.595 0-.893.148-.893.446 0 .248-.264.447-.595.447-.397 0-.595.198-.595.595 0 .463-.199.595-.893.595-.595 0-.893.149-.893.446 0 .248-.265.447-.595.447-.331 0-.595.198-.595.446a.448.448 0 0 1-.447.447c-.248 0-.446.264-.446.595 0 .384-.199.595-.561.595-.319 0-.631.269-.724.625-.104.398-.296.544-.527.401-.24-.148-.287-.101-.139.139.143.231-.002.423-.4.527-.356.093-.625.405-.625.724 0 .362-.211.56-.596.56-.33 0-.595.199-.595.447a.448.448 0 0 1-.446.446c-.248 0-.447.265-.447.595 0 .331-.198.596-.446.596a.448.448 0 0 0-.447.446c0 .248-.264.447-.595.447-.336 0-.595.198-.595.455 0 .251-.201.533-.447.627-.245.095-.446.393-.446.664 0 .27-.268.659-.595.863-.328.205-.595.557-.595.784 0 .227-.201.489-.447.583-.245.094-.446.362-.446.595 0 .234-.201.502-.447.596-.261.1-.446.546-.446 1.073 0 .704-.131.902-.595.902-.458 0-.596.199-.596.861 0 .491-.192.935-.446 1.033-.261.1-.447.546-.447 1.073 0 .604-.147.902-.446.902-.309 0-.446.311-.446 1.007 0 .757-.148 1.046-.596 1.163-.486.127-.595.406-.595 1.523 0 1.017-.114 1.367-.446 1.367-.311 0-.447.313-.447 1.027 0 .654-.182 1.129-.503 1.308-.361.202-.526.754-.585 1.961-.049 1.016-.262 1.858-.538 2.135-.324.324-.46 1.08-.467 2.593-.006 1.405-.159 2.335-.446 2.714-.66.873-.651 16.238.01 16.238.361 0 .446.48.446 2.53s.085 2.53.446 2.53c.342 0 .447.377.447 1.612 0 1.887.203 2.554.776 2.554.293 0 .414.395.414 1.349 0 .924.141 1.403.447 1.52.259.099.446.545.446 1.06 0 .639.168.933.595 1.045.414.108.596.406.596.977 0 .452.201.988.446 1.192.246.204.446.664.446 1.021 0 .358.197.911.437 1.229.241.318.442.812.447 1.098.006.32.24.521.605.521.46 0 .595.199.595.878 0 .483.167.986.372 1.116.204.131.704.875 1.11 1.652.405.778.908 1.414 1.116 1.414.208 0 .378.201.378.446 0 .246.201.447.446.447.248 0 .447.264.447.592 0 .326.268.76.595.965.327.204.595.544.595.756 0 .211.201.461.447.555.245.094.446.285.446.424 0 .345 1.448 1.767 1.799 1.767.157 0 .285.201.285.447 0 .245.2.446.446.446.245 0 .446.192.446.426 0 .235.268.512.596.616.327.104.595.317.595.474 0 .156.338.413.752.57.413.157.829.489.924.737.095.248.427.451.737.451s.563.201.563.446c0 .246.201.447.446.447.246 0 .447.201.447.446 0 .248.264.447.595.447.335 0 .595.198.595.453 0 .267.37.528.893.633.491.098.893.363.893.588 0 .225.247.409.549.409.302 0 .792.268 1.088.595.296.328.704.595.907.595.203 0 .446.201.54.447.1.261.546.446 1.073.446.604 0 .903.148.903.447 0 .309.31.446 1.007.446.756 0 1.045.148 1.162.595.112.428.406.596 1.045.596.515 0 .961.187 1.06.446.117.306.596.446 1.52.446 1 0 1.348.116 1.348.447 0 .336.36.446 1.454.446 1.203 0 1.48.103 1.609.596.134.513.406.595 1.969.595 1.414 0 1.814.098 1.814.446 0 .372.595.447 3.571.447 2.843 0 3.572.084 3.572.411 0 .618.977.771 4.91.771 3.933 0 4.911-.153 4.911-.771 0-.327.729-.411 3.571-.411 2.977 0 3.572-.075 3.572-.447 0-.337.364-.446 1.488-.446 1.091 0 1.647-.159 2.083-.595.419-.419.992-.596 1.935-.596.992 0 1.339-.115 1.339-.446 0-.321.328-.447 1.169-.447.643 0 1.354-.184 1.58-.41.225-.225.837-.504 1.36-.619.525-.115.951-.398.951-.631 0-.285.34-.423 1.041-.423.728 0 1.042-.135 1.042-.446 0-.246.195-.447.434-.447.836 0 2.528-1.042 2.535-1.562.005-.396.258-.521 1.049-.521.727 0 1.041-.135 1.041-.447 0-.245.214-.446.475-.446s.544-.268.63-.595c.11-.422.406-.595 1.014-.595.564 0 .858-.153.858-.447 0-.248.264-.446.595-.446.331 0 .595-.199.595-.447 0-.245.201-.446.447-.446.248 0 .446-.265.446-.595 0-.331.198-.596.446-.596a.448.448 0 0 0 .447-.446c0-.248.264-.446.595-.446.397 0 .595-.199.595-.596 0-.411.199-.595.643-.595.753 0 2.334-1.649 2.334-2.435 0-.297.2-.541.446-.541a.448.448 0 0 0 .446-.447c0-.248.265-.446.596-.446.33 0 .595-.198.595-.446 0-.246.201-.447.446-.447.248 0 .447-.264.447-.595 0-.331.198-.595.446-.595.246 0 .447-.171.447-.381 0-.209.267-.609.595-.89.327-.28.595-.778.595-1.107 0-.334.198-.599.446-.599s.447-.264.447-.595c0-.327.137-.595.304-.595.167 0 .466-.368.663-.818.198-.451.53-.926.738-1.057.208-.131.378-.633.378-1.116 0-.582.151-.878.447-.878.311 0 .446-.314.446-1.042 0-.843.113-1.041.595-1.041.465 0 .596-.199.596-.903 0-.527.185-.973.446-1.073.298-.114.446-.583.446-1.407 0-.914.156-1.333.596-1.608.451-.282.595-.694.595-1.708 0-.99.116-1.337.446-1.337.351 0 .447-.413.447-1.935 0-1.521.095-1.934.446-1.934.362 0 .447-.478.447-2.515 0-2.086.088-2.565.52-2.806 1.002-.56.925-13.727-.08-13.727-.36 0-.44-.546-.44-2.976 0-2.447-.08-2.976-.447-2.976-.346 0-.446-.393-.446-1.749 0-1.192-.143-1.868-.447-2.12-.245-.204-.446-.823-.446-1.376 0-.608-.235-1.24-.595-1.6-.331-.331-.596-.992-.596-1.488 0-.596-.148-.893-.446-.893-.312 0-.446-.314-.446-1.039 0-.717-.185-1.155-.596-1.411-.397-.249-.595-.694-.595-1.342 0-.664-.141-.97-.446-.97-.275 0-.447-.279-.447-.723 0-.398-.175-.9-.388-1.116a3.117 3.117 0 0 1-.586-.914c-.109-.287-.403-.521-.653-.521-.309 0-.456-.29-.456-.902 0-.528-.186-.974-.447-1.074-.245-.094-.446-.358-.446-.586 0-.228-.268-.414-.595-.414-.439 0-.595-.199-.595-.754 0-.414-.201-.83-.447-.924-.245-.095-.446-.425-.446-.735s-.201-.563-.447-.563a.448.448 0 0 1-.446-.447c0-.248-.265-.446-.595-.446-.397 0-.596-.199-.596-.596 0-.33-.198-.595-.446-.595a.447.447 0 0 1-.446-.446.448.448 0 0 0-.447-.447c-.245 0-.446-.213-.446-.474s-.268-.544-.596-.63c-.327-.085-.595-.341-.595-.567 0-.227-.201-.412-.446-.412a.448.448 0 0 1-.447-.446c0-.248-.264-.447-.595-.447-.397 0-.595-.198-.595-.595 0-.331-.199-.595-.447-.595a.448.448 0 0 1-.446-.447c0-.312-.314-.446-1.042-.446-.727 0-1.041-.135-1.041-.447a.448.448 0 0 0-.447-.446c-.248 0-.446-.265-.446-.595 0-.328-.187-.595-.415-.595-.228 0-.491-.201-.586-.447-.1-.261-.546-.446-1.073-.446-.612 0-.902-.147-.902-.456 0-.251-.235-.542-.521-.647-.287-.106-.628-.369-.759-.586-.131-.217-.552-.395-.935-.395-.384 0-.778-.209-.877-.465-.098-.256-.413-.442-.701-.412-.957.097-1.196-.011-1.353-.611-.112-.427-.406-.595-1.045-.595-.515 0-.961-.187-1.06-.446-.117-.306-.596-.447-1.52-.447-1 0-1.348-.115-1.348-.446 0-.309-.311-.447-1.007-.447-.757 0-1.046-.148-1.163-.595-.134-.513-.406-.595-1.969-.595-1.414 0-1.814-.099-1.814-.447 0-.361-.479-.446-2.53-.446-1.963 0-2.529-.093-2.529-.415 0-1.041-17.285-1.208-17.931-.173M87.292 200.189c.149.254.775.406 1.674.406.915 0 1.572.163 1.808.447.234.282.891.446 1.787.446 1.167 0 1.445.105 1.573.595.113.434.406.596 1.076.596.62 0 .921.145.921.446 0 .294.294.446.861.446.491 0 .935.192 1.032.447.098.255.543.446 1.039.446.617 0 .912.172 1.023.596.114.433.406.595 1.077.595.62 0 .92.146.92.446 0 .246.186.447.412.447.226 0 .482.267.567.595.086.327.37.595.63.595.261 0 .475.201.475.447 0 .245.186.446.414.446.228 0 .492.201.586.446.094.246.377.447.627.447.251 0 .456.19.456.423 0 .232.387.507.859.611.648.142.902.404 1.034 1.065.102.511.365.877.629.877.256 0 .454.26.454.595 0 .331.199.595.447.595.245 0 .446.201.446.447 0 .245.201.446.446.446.246 0 .447.214.447.475 0 .26.268.544.595.63.328.085.595.391.595.679 0 .289.201.691.447.895.245.204.446.608.446.897 0 .29.201.604.447.699.245.094.446.523.446.952 0 .531.191.831.595.937.422.11.596.406.596 1.014 0 .564.152.858.446.858.312 0 .446.314.446 1.042 0 .645.227 1.268.596 1.637.414.414.595.992.595 1.902 0 .888.143 1.363.446 1.479.305.117.447.594.447 1.505 0 .925.149 1.417.486 1.606.712.399.692 12.015-.022 12.729-.324.324-.464 1.041-.464 2.377 0 1.503-.096 1.914-.447 1.914-.336 0-.446.361-.446 1.468 0 1.206-.106 1.501-.595 1.657-.419.132-.596.45-.596 1.071 0 .509-.188.954-.446 1.053-.254.098-.446.542-.446 1.032 0 .538-.156.861-.415.861-.455 0-.776.626-.776 1.513 0 .314-.201.571-.446.571-.312 0-.447.314-.447 1.041 0 .728-.134 1.042-.446 1.042a.448.448 0 0 0-.447.446c0 .246-.152.447-.338.447-.532 0-1.745 1.458-1.745 2.099 0 .628-.788 1.552-1.585 1.858-.274.105-.498.396-.498.647 0 .25-.201.455-.447.455-.245 0-.446.186-.446.412 0 .227-.268.482-.595.568-.328.085-.596.369-.596.629a.467.467 0 0 1-.455.475c-.251 0-.533.201-.627.446-.095.246-.419.447-.72.447-.302 0-.656.177-.787.394-.131.217-.472.481-.759.586-.286.105-.521.397-.521.647 0 .289-.275.456-.753.456-.414 0-.831.201-.925.446-.094.246-.425.447-.734.447-.31 0-.564.201-.564.446 0 .301-.301.447-.921.447-.67 0-.963.161-1.076.595-.108.415-.406.595-.982.595-.46 0-.902.198-.998.447-.107.28-.562.446-1.225.446-.685 0-1.232.208-1.563.595-.378.441-.878.595-1.932.595-1.065 0-1.422.112-1.422.447 0 .337-.364.446-1.488.446s-1.488.109-1.488.447c0 .489.184.477-7.111.467-3.415-.005-4.386-.098-4.786-.46-.298-.27-1.063-.454-1.891-.454-1.038 0-1.391-.113-1.391-.446 0-.336-.36-.447-1.453-.447-1.203 0-1.48-.102-1.609-.595-.127-.486-.406-.595-1.523-.595-1.017 0-1.367-.114-1.367-.446 0-.312-.314-.447-1.042-.447-.737 0-1.041-.133-1.041-.456 0-.25-.235-.544-.521-.653a3.104 3.104 0 0 1-.914-.586c-.217-.213-.638-.388-.936-.388-.298 0-.619-.201-.713-.447-.1-.261-.546-.446-1.074-.446-.52 0-.904-.157-.907-.372-.006-.454-1.291-1.711-1.748-1.711-.182 0-.33-.201-.33-.447 0-.297-.298-.446-.893-.446-.798 0-1.041-.253-.928-.967.019-.123-.233-.224-.56-.224-.331 0-.595-.198-.595-.446a.448.448 0 0 0-.447-.447c-.248 0-.446-.264-.446-.595 0-.33-.199-.595-.447-.595a.448.448 0 0 1-.446-.446c0-.246-.268-.715-.595-1.042-.328-.328-.596-.796-.596-1.042a.448.448 0 0 0-.446-.446.447.447 0 0 1-.446-.447c0-.248-.265-.446-.596-.446-.33 0-.595-.199-.595-.447a.448.448 0 0 0-.446-.446c-.312 0-.447-.314-.447-1.042 0-.727-.134-1.041-.446-1.041-.301 0-.447-.301-.447-.921 0-.67-.161-.963-.595-1.076-.447-.117-.595-.406-.595-1.163 0-.697-.138-1.007-.447-1.007-.31 0-.446-.312-.446-1.02 0-.562-.201-1.222-.446-1.467-.246-.246-.447-.914-.447-1.485 0-1.332-.254-1.98-.776-1.98-.322 0-.414-.566-.414-2.53 0-2.05-.085-2.53-.447-2.53-.377 0-.446-.711-.446-4.613 0-3.902.069-4.613.446-4.613.354 0 .447-.425.447-2.037 0-1.659.11-2.137.595-2.576.439-.398.595-.917.595-1.981 0-1.083.111-1.442.447-1.442.311 0 .446-.314.446-1.041 0-.573.131-1.042.292-1.042.161 0 .381-.354.489-.787.109-.433.446-1.036.75-1.34.304-.303.552-.805.552-1.115 0-.31.201-.641.447-.735.261-.1.446-.546.446-1.073 0-.604.148-.902.447-.902.248 0 .446-.265.446-.596 0-.33.198-.595.446-.595.246 0 .464-.134.484-.298a6.28 6.28 0 0 1 .112-.595c.041-.163.091-.431.111-.595.021-.164.238-.298.484-.298a.448.448 0 0 0 .446-.446c0-.246.152-.447.338-.447.315 0 1.746-1.354 1.746-1.652 0-.243 1.186-1.324 1.453-1.324.145 0 .333-.268.419-.595.085-.327.369-.595.63-.595.26 0 .474-.201.474-.447 0-.245.201-.446.446-.446a.448.448 0 0 0 .447-.446c0-.246.213-.447.474-.447s.544-.268.63-.595c.086-.328.398-.595.695-.595.297 0 .74-.201.986-.447.245-.245.657-.446.914-.446.269 0 .467-.253.467-.595 0-.482.199-.596 1.042-.596.728 0 1.042-.134 1.042-.446 0-.298.297-.447.893-.447.595 0 .892-.148.892-.446 0-.312.315-.446 1.042-.446.843 0 1.042-.114 1.042-.596 0-.529.198-.595 1.795-.595 1.321 0 1.84-.118 1.966-.446.12-.312.606-.447 1.613-.447.963 0 1.523-.146 1.688-.44.46-.823 13.972-.791 14.456.034m119.032-.494c1.055.006 1.414.121 1.414.454 0 .337.364.446 1.488.446 1.125 0 1.488.109 1.488.447 0 .334.356.446 1.417.446 1.094 0 1.501.136 1.788.595.204.328.672.6 1.039.605.367.005.927.206 1.245.446.317.241.82.437 1.116.437.296 0 .538.201.538.447 0 .293.294.446.858.446.608 0 .904.174 1.014.596.113.433.406.595 1.076.595.62 0 .921.146.921.446 0 .246.201.447.447.447.245 0 .446.201.446.446 0 .246.171.446.38.446s.61.268.89.596c.281.327.779.595 1.108.595.333 0 .598.198.598.446s.265.447.595.447c.397 0 .596.198.596.595 0 .331.198.595.446.595.246 0 .447.201.447.447 0 .245.185.446.411.446.227 0 .482.268.568.595.085.328.369.596.63.596.309 0 .474.262.474.753 0 .414.201.83.446.925.246.094.447.349.447.566 0 .217.268.479.595.583.327.104.595.381.595.615 0 .235.201.427.447.427.297 0 .446.297.446.893 0 .491.132.892.294.892.161 0 .489.469.729 1.042.239.573.576 1.042.748 1.042.172 0 .312.253.312.563 0 .31.201.641.447.735.245.094.446.503.446.91 0 .406.183.845.406.976.228.134.472.943.556 1.841.098 1.056.315 1.696.635 1.875.348.195.487.692.487 1.745 0 1.112.109 1.474.446 1.474.374 0 .446.629.446 3.878 0 3.745.024 3.888.67 4.148l.67.269-.67.019c-.66.019-.67.074-.67 4.037 0 3.373-.071 4.018-.446 4.018-.336 0-.446.36-.446 1.453 0 1.203-.103 1.48-.596 1.609-.483.127-.595.406-.595 1.491 0 .913-.141 1.39-.446 1.507-.261.1-.447.546-.447 1.073 0 .604-.147.903-.446.903-.294 0-.447.293-.447.858 0 .608-.173.903-.595 1.013-.433.114-.595.406-.595 1.077 0 .62-.146.921-.446.921-.248 0-.447.264-.447.595 0 .33-.198.595-.446.595s-.447.264-.447.593c0 .326-.268.76-.595.964-.327.205-.595.608-.595.896 0 .288-.201.523-.447.523-.245 0-.446.186-.446.412 0 .226-.268.482-.595.567-.328.086-.596.369-.596.63s-.2.475-.446.475-.446.134-.446.297c0 .376-1.098 1.488-1.468 1.488-.153 0-.363.268-.467.596-.104.327-.381.595-.615.595a.438.438 0 0 0-.427.446.448.448 0 0 1-.446.447.447.447 0 0 0-.446.446c0 .252-.267.446-.613.446-.337 0-.53.134-.429.298.101.164-.025.298-.28.298s-.464.134-.464.297c0 .164-.335.298-.744.298-.463 0-.744.169-.744.446 0 .298-.298.447-.893.447-.564 0-.893.152-.893.413 0 .237-.445.497-1.042.609-.623.117-1.041.369-1.041.628 0 .238-.252.433-.559.433-.307 0-.726.201-.929.447-.204.245-.836.446-1.404.446-.783 0-1.071.144-1.189.595-.131.503-.406.595-1.767.595-1.158 0-1.66.126-1.783.447-.119.312-.606.446-1.613.446-.984 0-1.522.145-1.696.456-.226.405-5.489.625-10.861.454-.286-.009-.521-.218-.521-.463 0-.338-.365-.447-1.497-.447-1.057 0-1.548-.131-1.669-.446-.125-.326-.637-.447-1.89-.447-1.469 0-1.742-.086-1.875-.595-.118-.451-.406-.595-1.189-.595-.568 0-1.2-.201-1.404-.446-.203-.246-.622-.447-.929-.447-.307 0-.559-.19-.559-.423 0-.232-.39-.508-.868-.613-.477-.105-.942-.383-1.032-.619-.093-.242-.556-.428-1.067-.428-.603 0-.902-.148-.902-.447 0-.277-.281-.446-.744-.446-.409 0-.744-.134-.744-.298 0-.163-.209-.297-.464-.297s-.381-.134-.28-.298c.101-.164-.025-.298-.28-.298a.456.456 0 0 1-.464-.446c0-.248-.264-.446-.595-.446-.331 0-.595-.199-.595-.447a.448.448 0 0 0-.447-.446.452.452 0 0 1-.446-.456c0-.251-.224-.542-.498-.647-.636-.244-1.586-1.188-1.586-1.576 0-.163-.2-.297-.446-.297s-.446-.214-.446-.475-.268-.544-.596-.63c-.327-.085-.595-.341-.595-.567 0-.226-.201-.412-.446-.412-.248 0-.447-.264-.447-.595 0-.385-.198-.595-.562-.595-.309 0-.556-.168-.548-.372.037-.995-.119-1.414-.527-1.414-.248 0-.446-.265-.446-.595 0-.331-.199-.595-.447-.595-.3 0-.446-.301-.446-.921 0-.671-.162-.963-.595-1.077-.422-.11-.595-.405-.595-1.013 0-.565-.153-.858-.447-.858-.299 0-.446-.299-.446-.903 0-.527-.186-.973-.447-1.073-.305-.117-.446-.594-.446-1.507 0-1.085-.112-1.364-.595-1.491-.493-.129-.596-.406-.596-1.609 0-1.093-.11-1.453-.446-1.453-.375 0-.446-.645-.446-4.018 0-3.625-.051-4.019-.521-4.027-.496-.009-.496-.023 0-.312.453-.265.521-.801.521-4.158 0-3.228.072-3.854.446-3.854.34 0 .446-.373.446-1.571 0-1.23.13-1.665.596-2.001.449-.323.595-.77.595-1.819 0-.962.138-1.444.446-1.562.246-.094.447-.427.447-.74 0-.312.201-.734.446-.938.246-.204.447-.622.447-.929 0-.308.14-.559.312-.559s.509-.469.748-1.042c.24-.573.568-1.042.729-1.042.162 0 .294-.401.294-.892 0-.492.152-.893.338-.893.402 0 1.745-1.394 1.745-1.811 0-.16.201-.368.447-.463.245-.094.446-.476.446-.848 0-.428.22-.735.595-.834.328-.085.596-.369.596-.63 0-.26.2-.474.446-.474s.446-.185.446-.412c0-.226.268-.481.596-.567.327-.086.595-.369.595-.63s.201-.474.446-.474a.448.448 0 0 0 .447-.447c0-.248.265-.446.598-.446.329 0 .827-.268 1.108-.595.28-.328.681-.596.89-.596.209 0 .38-.2.38-.446 0-.245.201-.446.446-.446a.448.448 0 0 0 .447-.447c0-.3.301-.446.921-.446.67 0 .963-.162 1.076-.595.11-.422.406-.596 1.014-.596.472 0 .858-.122.858-.271 0-.312 2.14-1.385 3.348-1.678.45-.109.819-.385.819-.613 0-.297.41-.414 1.456-.414 1.02 0 1.507-.134 1.627-.446.117-.305.594-.447 1.505-.447.843 0 1.422-.156 1.572-.422.313-.556 1.338-.632 7.381-.552 2.783.037 5.696.07 6.473.074m121.057.48c0 .305.401.42 1.456.42 1.02 0 1.508.134 1.628.447.126.328.645.446 1.966.446 1.597 0 1.795.066 1.795.595 0 .482.199.596 1.042.596.727 0 1.042.134 1.042.446s.314.446 1.041.446c.728 0 1.042.135 1.042.447 0 .297.297.446.893.446.694 0 .893.133.893.596 0 .383.198.595.558.595.308 0 .726.201.93.446.203.246.622.447.929.447.313 0 .559.208.559.474 0 .261.268.544.595.63.327.085.595.341.595.567 0 .227.201.412.447.412.245 0 .446.201.446.446 0 .248.265.447.595.447.397 0 .596.198.596.595 0 .327.128.595.286.595.364 0 2.69 2.337 2.69 2.702 0 .151.201.274.446.274.246 0 .447.201.447.447 0 .245.201.446.446.446.246 0 .446.201.446.447 0 .245.268.714.596 1.041.327.328.595.797.595 1.042 0 .246.201.447.446.447.301 0 .447.3.447.92 0 .671.162.963.595 1.077.419.109.595.406.595.999 0 .463.168.95.372 1.081.572.366 1.414 2.133 1.414 2.969 0 .497.199.799.595.903.511.134.595.406.595 1.916 0 1.29.12 1.806.447 1.932.337.129.446.673.446 2.222 0 1.626.093 2.052.447 2.052.364 0 .451.533.474 2.902.043 4.492-.044 5.543-.499 6.05-.291.324-.422 1.224-.422 2.902 0 1.963-.086 2.432-.446 2.432-.331 0-.447.347-.447 1.339 0 .942-.176 1.516-.595 1.934-.368.369-.595.993-.595 1.637 0 .728-.135 1.042-.446 1.042-.312 0-.447.314-.447 1.042 0 .727-.134 1.041-.446 1.041s-.447.315-.447 1.042c0 .843-.113 1.042-.595 1.042s-.595.198-.595 1.041c0 .728-.135 1.042-.447 1.042a.448.448 0 0 0-.446.446c0 .246-.149.447-.33.447-.441 0-1.742 1.25-1.748 1.679-.003.187-.213.42-.466.517-.253.097-.438.346-.411.553.102.78-.039 1.055-.616 1.206-.328.086-.596.369-.596.63s-.201.474-.446.474c-.246 0-.447.264-.447.586 0 .374-.147.53-.407.43-.242-.093-.472.093-.567.456-.111.421-.403.612-.942.612-.429 0-.858.201-.952.446-.094.246-.284.447-.422.447-.386 0-1.769 1.365-1.769 1.745 0 .186-.406.338-.902.338-.528 0-.974.185-1.074.446-.094.246-.417.447-.717.447s-.634.142-.741.316c-.107.174-.517.438-.91.588-.394.149-.716.476-.716.725 0 .307-.292.454-.902.454-.527 0-.973.186-1.073.447-.105.272-.556.446-1.157.446-1.281 0-1.927.26-1.927.776 0 .299-.415.414-1.488.414-1.125 0-1.488.11-1.488.447 0 .334-.357.446-1.422.446-.786 0-1.709.201-2.063.449-.575.403-4.921.583-11.024.458-.391-.008-.67-.2-.67-.46 0-.338-.364-.447-1.488-.447s-1.488-.109-1.488-.446c0-.331-.347-.447-1.339-.447-.943 0-1.516-.176-1.935-.595-.361-.361-.992-.595-1.605-.595-.623 0-1.075-.171-1.181-.446-.098-.256-.542-.447-1.039-.447-.617 0-.912-.172-1.023-.595-.113-.434-.406-.595-1.076-.595-.62 0-.921-.146-.921-.447a.452.452 0 0 0-.456-.446c-.251 0-.533-.201-.627-.447-.098-.254-.542-.446-1.032-.446-.512 0-.861-.158-.861-.391 0-.533-1.622-1.692-2.369-1.692-.342 0-.608-.196-.608-.447 0-.245-.2-.446-.446-.446-.248 0-.446-.265-.446-.595 0-.397-.199-.596-.596-.596-.33 0-.595-.198-.595-.446a.448.448 0 0 0-.446-.447.452.452 0 0 1-.447-.455c0-.251-.201-.533-.446-.627-.246-.095-.447-.358-.447-.586 0-.228-.267-.415-.595-.415-.433 0-.595-.198-.595-.729 0-.758-1.157-2.247-1.745-2.247-.186 0-.338-.201-.338-.447a.448.448 0 0 0-.447-.446c-.312 0-.446-.314-.446-1.042 0-.727-.135-1.041-.447-1.041-.3 0-.446-.301-.446-.921 0-.67-.162-.963-.595-1.076-.593-.155-.706-.396-.617-1.315a.683.683 0 0 0-.412-.66c-.271-.104-.459-.538-.459-1.058 0-.581-.179-.939-.524-1.049-.421-.133-.502-.43-.415-1.527.094-1.182.026-1.384-.518-1.526-.555-.145-.627-.382-.627-2.064 0-1.49-.096-1.9-.446-1.9-.383 0-.447-.925-.447-6.547s.064-6.548.447-6.548c.343 0 .446-.38.446-1.637 0-1.216.109-1.637.423-1.637.43 0 .939-1.565.658-2.02-.085-.137.105-.642.422-1.123s.578-1.31.579-1.842c.001-.66.143-.967.448-.967.294 0 .446-.294.446-.858 0-.608.174-.904.596-1.014.404-.106.595-.406.595-.937 0-.429.201-.858.446-.952.246-.095.447-.409.447-.699 0-.289.201-.693.446-.897.246-.204.447-.622.447-.929 0-.313.208-.559.474-.559.261 0 .544-.268.63-.595.085-.328.341-.596.567-.596.227 0 .412-.201.412-.446 0-.246.192-.447.426-.447.235 0 .508-.255.607-.567.099-.313.376-.643.615-.735.239-.092.435-.506.435-.92 0-.557.157-.754.598-.754.329 0 .828-.268 1.108-.595.281-.327.681-.595.89-.595.209 0 .38-.201.38-.447 0-.245.201-.446.447-.446a.448.448 0 0 0 .446-.446c0-.246.214-.447.475-.447.26 0 .544-.268.63-.595.085-.328.341-.595.567-.595.226 0 .412-.201.412-.447 0-.312.314-.446 1.041-.446.844 0 1.042-.114 1.042-.595 0-.482.198-.596 1.042-.596.727 0 1.041-.134 1.041-.446 0-.294.294-.447.861-.447.491 0 .935-.192 1.033-.446.1-.261.546-.446 1.073-.446.704 0 .902-.131.902-.596 0-.514.199-.595 1.452-.595.927 0 1.586-.161 1.822-.446.234-.283.891-.447 1.786-.447.885 0 1.552-.164 1.78-.44.674-.812 14.589-.793 14.589.02" fill="#fff" fill-rule="evenodd"/></svg>