<?xml version="1.0" standalone="no"?>
<!DOCTYPE svg PUBLIC "-//W3C//DTD SVG 20010904//EN"
 "http://www.w3.org/TR/2001/REC-SVG-20010904/DTD/svg10.dtd">
<svg version="1.0" xmlns="http://www.w3.org/2000/svg"
 width="398.000000pt" height="296.000000pt" viewBox="0 0 398.000000 296.000000"
 preserveAspectRatio="xMidYMid meet">

<g transform="translate(0.000000,296.000000) scale(0.100000,-0.100000)"
fill="#000000" stroke="none">
<path d="M0 1480 l0 -1480 1990 0 1990 0 0 1480 0 1480 -1990 0 -1990 0 0
-1480z m917 1425 c186 -44 334 -174 402 -355 21 -55 25 -83 25 -180 1 -174
-40 -279 -158 -396 -221 -220 -559 -220 -781 0 -175 173 -213 427 -98 649 113
217 373 338 610 282z m1179 4 c32 -6 95 -28 140 -49 64 -31 95 -54 150 -112
111 -118 154 -224 154 -383 0 -159 -51 -287 -155 -390 -223 -219 -571 -219
-791 1 -103 103 -154 231 -154 389 0 163 44 269 160 386 137 139 305 193 496
158z m1207 -4 c151 -32 299 -144 370 -282 115 -222 77 -474 -98 -648 -174
-175 -431 -215 -650 -102 -75 39 -194 155 -227 222 -52 103 -63 153 -62 275 0
97 4 125 25 180 101 266 367 414 642 355z m-2391 -1776 c156 -32 310 -152 378
-293 44 -92 60 -160 60 -249 -1 -247 -164 -462 -405 -533 -80 -24 -220 -24
-300 0 -235 69 -406 295 -405 535 0 72 27 180 62 251 62 129 217 251 361 286
66 16 180 17 249 3z m1213 -4 c198 -52 348 -200 400 -395 20 -74 19 -222 -1
-291 -53 -178 -176 -308 -354 -374 -65 -24 -90 -28 -180 -28 -87 0 -118 5
-177 26 -175 62 -304 198 -357 376 -10 34 -16 92 -16 152 0 107 24 197 76 286
62 107 205 212 335 247 72 19 201 20 274 1z m1177 4 c149 -31 312 -156 376
-289 80 -163 81 -332 2 -495 -92 -190 -282 -309 -495 -309 -262 1 -480 172
-540 425 -30 130 -17 245 45 375 66 137 211 253 363 290 66 16 180 17 249 3z"/>
<path d="M686 2740 c-238 -76 -350 -334 -239 -553 49 -97 136 -168 250 -202
126 -38 266 -1 371 99 125 119 155 295 78 451 -87 176 -281 262 -460 205z"/>
<path d="M1885 2743 c-184 -66 -287 -204 -286 -381 1 -110 41 -204 118 -279
214 -207 557 -116 650 172 18 54 17 171 -1 221 -41 117 -103 186 -213 241 -91
45 -188 54 -268 26z"/>
<path d="M3090 2746 c-116 -33 -203 -104 -256 -211 -109 -220 -1 -466 240
-548 169 -58 385 39 462 207 82 179 35 369 -119 483 -99 73 -221 98 -327 69z"/>
<path d="M675 961 c-100 -34 -181 -105 -229 -199 -111 -219 4 -478 247 -554
109 -34 212 -16 320 56 173 115 228 350 121 523 -30 48 -107 124 -148 145 -97
50 -218 62 -311 29z"/>
<path d="M1857 956 c-107 -45 -165 -97 -215 -191 -32 -62 -43 -109 -43 -183 1
-247 257 -446 484 -377 184 56 300 207 298 389 -2 150 -89 283 -229 349 -56
27 -81 32 -152 35 -72 2 -94 -1 -143 -22z"/>
<path d="M3074 965 c-91 -29 -177 -96 -228 -178 -106 -172 -53 -404 118 -522
105 -72 214 -91 323 -57 153 48 257 165 285 322 32 184 -92 379 -280 435 -57
18 -162 18 -218 0z"/>
</g>
</svg>
