<?xml version="1.0" standalone="no"?><!DOCTYPE svg PUBLIC "-//W3C//DTD SVG 1.1//EN" "http://www.w3.org/Graphics/SVG/1.1/DTD/svg11.dtd"><svg t="1533560503766" class="icon" style="" viewBox="0 0 1024 1024" version="1.1" xmlns="http://www.w3.org/2000/svg" p-id="4041" xmlns:xlink="http://www.w3.org/1999/xlink" width="200" height="200"><defs><style type="text/css"></style></defs><path d="M550.656 520m-104 0a104 104 0 1 0 208 0 104 104 0 1 0-208 0Z" fill="#ffffff" p-id="4042"></path><path d="M370.016 590.016m-62.016 0a62.016 62.016 0 1 0 124.032 0 62.016 62.016 0 1 0-124.032 0Z" fill="#ffffff" p-id="4043"></path><path d="M62.016 923.328m-62.016 0a62.016 62.016 0 1 0 124.032 0 62.016 62.016 0 1 0-124.032 0Z" fill="#ffffff" p-id="4044"></path><path d="M168.672 492.672m-47.328 0a47.328 47.328 0 1 0 94.656 0 47.328 47.328 0 1 0-94.656 0Z" fill="#ffffff" p-id="4045"></path><path d="M464.672 766.656m-47.328 0a47.328 47.328 0 1 0 94.656 0 47.328 47.328 0 1 0-94.656 0Z" fill="#ffffff" p-id="4046"></path><path d="M751.328 462.752m-71.328 0a71.328 71.328 0 1 0 142.656 0 71.328 71.328 0 1 0-142.656 0Z" fill="#ffffff" p-id="4047"></path><path d="M139.328 137.696m-71.328 0a71.328 71.328 0 1 0 142.656 0 71.328 71.328 0 1 0-142.656 0Z" fill="#ffffff" p-id="4048"></path><path d="M758.016 872.032m-71.328 0a71.328 71.328 0 1 0 142.656 0 71.328 71.328 0 1 0-142.656 0Z" fill="#ffffff" p-id="4049"></path><path d="M868.992 347.552m-35.68 0a35.68 35.68 0 1 0 71.36 0 35.68 35.68 0 1 0-71.36 0Z" fill="#ffffff" p-id="4050"></path><path d="M121.344 693.696m-35.68 0a35.68 35.68 0 1 0 71.36 0 35.68 35.68 0 1 0-71.36 0Z" fill="#ffffff" p-id="4051"></path><path d="M946.656 153.216m-35.68 0a35.68 35.68 0 1 0 71.36 0 35.68 35.68 0 1 0-71.36 0Z" fill="#ffffff" p-id="4052"></path><path d="M350.656 347.552m-35.68 0a35.68 35.68 0 1 0 71.36 0 35.68 35.68 0 1 0-71.36 0Z" fill="#ffffff" p-id="4053"></path><path d="M904.672 765.024m-35.68 0a35.68 35.68 0 1 0 71.36 0 35.68 35.68 0 1 0-71.36 0Z" fill="#ffffff" p-id="4054"></path></svg>