<?xml version="1.0" standalone="no"?><!DOCTYPE svg PUBLIC "-//W3C//DTD SVG 1.1//EN" "http://www.w3.org/Graphics/SVG/1.1/DTD/svg11.dtd"><svg t="1533566118509" class="icon" style="" viewBox="0 0 1024 1024" version="1.1" xmlns="http://www.w3.org/2000/svg" p-id="28081" xmlns:xlink="http://www.w3.org/1999/xlink" width="200" height="200"><defs><style type="text/css"></style></defs><path d="M412.451587 335.885776c-6.897076-3.916915-14.409471-5.873076-22.528-5.873076-10.465004 0-18.83609 4.109776-25.117847 12.320143s-9.422637 18.83609-9.422637 31.867982h0.528072c6.488395-9.936933 16.0993-14.905399 28.841901-14.905399 11.397166 0 20.438673 3.898547 27.133704 11.700233s10.037955 17.959031 10.037955 30.467444c0 13.674762-4.353148 24.970906-13.064035 33.883839-8.706296 8.908341-19.841722 13.367103-33.401687 13.367103-15.548269 0-27.455139-5.611336-35.725201-16.834009-8.270063-11.218081-12.40739-26.591857-12.40739-46.112144 0-22.968825 5.35878-41.62583 16.085524-55.975605 10.722152-14.349776 25.641327-21.522368 44.757525-21.522368 10.285919 0 18.376897 1.230637 24.282116 3.682727v23.93313zM356.342816 401.724843c0 7.011874 1.754117 12.976789 5.26235 17.885561 3.508233 4.908771 8.123121 7.365453 13.853847 7.365453 5.78583 0 10.345614-2.250045 13.679355-6.750135 3.329148-4.50009 4.996018-10.138978 4.996018-16.921256 0-15.254386-6.281758-22.881578-18.845274-22.881578-5.671031 0-10.244592 2.015857-13.720682 6.047569-3.489865 4.036305-5.225614 9.11957-5.225614 15.254386zM435.245919 380.684628c0-23.496897 4.325596-41.437561 12.97679-53.831175 8.646601-12.389022 21.155013-18.583534 37.520645-18.583534 31.206744 0 46.814709 23.088215 46.814709 69.260054 0 22.739229-4.23835 40.284987-12.71505 52.646457-8.472108 12.361471-20.71878 18.542206-36.730834 18.542207-31.909309 0-47.86626-22.679534-47.86626-68.034009z m28.667408-0.702565c0 31.326135 6.690439 46.989202 20.075911 46.989202 13.151283 0 19.722332-16.131444 19.722332-48.394332 0-32.377686-6.401148-48.568825-19.198853-48.568825-13.734457 0.004592-20.59939 16.664108-20.59939 49.973955zM547.463462 345.44617c0-11.103283 3.081184-20.002439 9.248143-26.692879 6.162368-6.695031 14.510493-10.037955 25.030601-10.037955 10.051731 0 17.867193 3.039857 23.450978 9.114978 5.579193 6.079713 8.371085 14.464574 8.371085 25.159175 0 10.988484-3.099552 19.786619-9.294063 26.389811-6.194511 6.603193-14.464574 9.904789-24.810188 9.90479-9.702744 0-17.463103-3.09496-23.276484-9.289471-5.817973-6.199103-8.720072-14.381919-8.720072-24.548449z m19.286099-0.964305c0 12.563516 4.614888 18.845274 13.849255 18.845274 9.408861 0 14.115587-6.543498 14.115588-19.635085 0-12.682906-4.50009-19.024359-13.500269-19.024359-9.643049 0-14.464574 6.603193-14.464574 19.81417z m110.899659-33.929757l-88.284413 135.888932h-22.00452l88.109919-135.888932h22.179014z m-46.024897 103.795946c0-11.218081 3.127103-20.149381 9.376717-26.784718 6.254206-6.630744 14.583964-9.950709 24.984682-9.950708 10.051731 0 17.871785 2.980161 23.450978 8.945076 5.579193 5.960323 8.371085 14.349776 8.371085 25.159175 0 11.103283-3.127103 19.974888-9.376718 26.605632-6.254206 6.635336-14.524269 9.950709-24.810188 9.950709-9.643049 0-17.389632-3.113327-23.230565-9.33539-5.845525-6.222063-8.765991-14.418655-8.765991-24.589776z m19.198852-0.964305c0 12.627803 4.647031 18.937112 13.941094 18.937112 9.349166 0 14.028341-6.543498 14.028341-19.635085 0-6.134816-1.244413-10.855318-3.728646-14.156915-2.484233-3.301596-5.804197-4.954691-9.950708-4.954691-9.528251 0-14.290081 6.603193-14.290081 19.809579z" fill="#ffffff" p-id="28082"></path><path d="M877.912395 770.213309H146.087605c-60.016502 0-108.842475-48.825973-108.842475-108.842475s48.825973-108.842475 108.842475-108.842475h731.82479c60.016502 0 108.842475 48.825973 108.842475 108.842475s-48.825973 108.842475-108.842475 108.842475zM146.087605 566.304143c-52.421453 0-95.066691 42.645238-95.06669 95.066691s42.64983 95.066691 95.06669 95.066691h731.82479c52.421453 0 95.066691-42.645238 95.06669-95.066691s-42.64983-95.066691-95.06669-95.066691H146.087605z" fill="#ffffff" p-id="28083"></path><path d="M515.117919 584.933596c-4.210798-0.720933-8.4767-1.313291-12.894134-1.313291H151.212197c-13.69313 0-26.371444 3.843444-37.543605 10.060915-23.859659 13.270673-40.206924 38.448215-40.206924 67.689614 0 39.389561 29.392933 71.601937 67.386547 76.70357 3.43017 0.463785 6.80983 1.051552 10.363982 1.051551h351.011588c14.611516 0 28.120969-4.284269 39.802834-11.286959 22.629022-13.587516 37.952287-38.145148 37.952287-66.468162 0-38.535462-28.088825-70.284054-64.860987-76.437238z" fill="#ffffff" p-id="28084"></path></svg>