<?xml version="1.0" standalone="no"?><!DOCTYPE svg PUBLIC "-//W3C//DTD SVG 1.1//EN" "http://www.w3.org/Graphics/SVG/1.1/DTD/svg11.dtd"><svg t="1533565588728" class="icon" style="" viewBox="0 0 1024 1024" version="1.1" xmlns="http://www.w3.org/2000/svg" p-id="17279" xmlns:xlink="http://www.w3.org/1999/xlink" width="200" height="200"><defs><style type="text/css"></style></defs><path d="M725.376 704c-41.024 0-77.952 15.872-106.24 41.216L416.192 637.76c13.184-28.544 21.12-60.096 21.12-93.76 0-56.256-21.44-107.008-55.616-146.304L669.44 171.52C685.696 184.128 705.856 192 728.064 192c52.992 0 96-43.008 96-96S781.056 0 728.064 0s-96 43.008-96 96c0 7.36 1.024 14.464 2.56 21.312L332.352 354.944C297.856 333.12 257.28 320.064 213.376 320.064 89.6 320.064 0 422.336 0 545.984 0 669.76 89.6 768 213.376 768c66.944 0 126.4-30.016 167.36-76.544l199.68 105.664c-9.408 20.352-15.04 42.944-15.04 66.88 0 88.384 71.616 160 160 160s160-71.616 160-160S813.76 704 725.376 704z" p-id="17280" fill="#ffffff"></path></svg>