<?xml version="1.0" standalone="no"?><!DOCTYPE svg PUBLIC "-//W3C//DTD SVG 1.1//EN" "http://www.w3.org/Graphics/SVG/1.1/DTD/svg11.dtd"><svg t="1533565632549" class="icon" style="" viewBox="0 0 1024 1024" version="1.1" xmlns="http://www.w3.org/2000/svg" p-id="17750" xmlns:xlink="http://www.w3.org/1999/xlink" width="200" height="200"><defs><style type="text/css"></style></defs><path d="M242.269842 710.260829a127.976884 127.976884 0 1 1-42.232372-48.119308l85.232605-71.347113A222.935732 222.935732 0 0 1 255.963368 479.966426c0-50.806823 16.892949-97.646363 45.431794-135.207578L139.056485 181.780286a95.982663 95.982663 0 1 1 44.34399-46.071678l163.49047 164.002377C384.068229 272.259943 430.075919 256.006879 479.922916 256.006879c54.518153 0 104.493126 19.452486 143.33411 51.830638l214.233304-179.295615a95.982663 95.982663 0 1 1 40.504684 49.527054l-211.92972 177.375962C689.932983 391.022492 703.882463 433.894748 703.882463 479.966426c0 50.10295-16.44503 96.366594-44.216014 133.671856l171.29706 171.936943a127.976884 127.976884 0 1 1-45.303817 45.175841l-171.169083-171.744979A222.999721 222.999721 0 0 1 479.922916 703.925973a223.191686 223.191686 0 0 1-155.299949-62.644684L242.269842 710.324818z" p-id="17751"></path></svg>