<?xml version="1.0" standalone="no"?><!DOCTYPE svg PUBLIC "-//W3C//DTD SVG 1.1//EN" "http://www.w3.org/Graphics/SVG/1.1/DTD/svg11.dtd"><svg t="1533565536871" class="icon" style="" viewBox="0 0 1024 1024" version="1.1" xmlns="http://www.w3.org/2000/svg" p-id="16933" xmlns:xlink="http://www.w3.org/1999/xlink" width="200" height="200"><defs><style type="text/css"></style></defs><path d="M904.704 432.64c-4.096 0-7.68 0.512-11.264 1.536l-90.624-138.752c9.216-9.728 14.848-23.04 14.848-37.376 0-30.72-24.576-55.296-55.296-55.296S706.56 227.328 706.56 258.048s24.576 55.296 55.296 55.296c5.12 0 10.24-1.024 15.36-2.048l92.16 140.288c-1.024 1.024-1.536 2.56-2.048 3.584L640 421.376c-2.048-49.152-42.496-88.064-92.16-88.064-45.056 0-82.432 32.256-90.624 74.752H340.992c-7.168-22.016-28.16-37.888-52.736-37.888-6.656 0-13.312 1.536-19.456 3.584L173.056 240.64c8.704-9.728 13.824-22.528 13.824-36.864 0-30.72-24.576-55.296-55.296-55.296s-55.296 24.576-55.296 55.296 24.576 55.296 55.296 55.296c5.632 0 10.752-1.024 15.872-2.56l97.28 134.656c-7.168 9.216-11.776 20.992-11.776 34.304 0 30.72 24.576 55.296 55.296 55.296 26.112 0 48.128-18.432 53.76-42.496H455.68c1.024 6.656 2.56 13.312 5.12 19.968l-294.4 173.568c-9.728-7.68-21.504-12.288-34.816-12.288-30.72 0-55.296 24.576-55.296 55.296 0 30.72 24.576 55.296 55.296 55.296s55.296-24.576 55.296-55.296c0-6.656-1.024-12.8-3.072-18.432l291.84-172.032c16.896 20.48 42.496 33.792 71.168 33.792 9.728 0 18.944-1.536 28.16-4.608l121.856 261.12c-10.752 10.24-17.92 24.576-17.92 40.448 0 30.72 24.576 55.296 55.296 55.296 30.72 0 55.296-24.576 55.296-55.296s-24.576-55.296-55.296-55.296c-3.584 0-7.168 0.512-10.752 1.024l-121.856-261.12c15.872-11.776 28.16-28.672 33.792-48.64l226.304 33.792c4.096 19.456 21.504 34.304 41.984 34.304 24.064 0 43.008-19.456 43.008-43.008 1.024-24.064-18.432-43.52-41.984-43.52z" fill="#ffffff" p-id="16934"></path></svg>