<?xml version="1.0" standalone="no"?><!DOCTYPE svg PUBLIC "-//W3C//DTD SVG 1.1//EN" "http://www.w3.org/Graphics/SVG/1.1/DTD/svg11.dtd"><svg t="1533565562212" class="icon" style="" viewBox="0 0 1024 1024" version="1.1" xmlns="http://www.w3.org/2000/svg" p-id="17106" xmlns:xlink="http://www.w3.org/1999/xlink" width="200" height="200"><defs><style type="text/css"></style></defs><path d="M382.526183 829.786717c-35.764552 0-64.079434 28.268834-64.079434 63.974033 0 35.706223 28.314883 63.974034 64.079434 63.974034 35.765575 0 64.079434-28.26781 64.079434-63.974034 0-34.218336-28.313859-63.974034-64.079434-63.974033z m511.144516-382.354268c35.764552 0 64.079434-28.266787 64.079434-63.974034 0-35.706223-28.314883-63.974034-64.079434-63.974033s-64.079434 28.26781-64.079434 63.974033c0 4.463662 0 7.439436 1.489934 10.415211l-122.197086 74.389244c-7.450692-35.70827-23.843034-66.949808-47.687093-93.729731l195.218171-194.896852c10.431583 7.439436 23.843034 11.903098 37.254485 11.903097 35.764552 0 64.079434-28.268834 64.079434-63.974033 0-34.218336-28.314883-62.486146-64.079434-62.486147s-64.079434 28.26781-64.079434 63.973011c0 13.389962 4.470825 26.779923 11.921517 37.193087L646.294612 361.143177c-29.803793-26.780947-65.569368-44.6315-107.295701-50.585095l74.509994-123.483383c7.450692 2.975774 14.902408 4.463662 23.844058 4.463662 35.765575 0 64.080457-28.268834 64.080457-63.974034 0-35.706223-28.314883-63.974034-64.080457-63.974033-35.764552 0-64.079434 28.26781-64.079434 63.974033 0 20.829398 10.431583 40.168862 26.823925 52.070936L521.117658 309.072241h-11.92254c-7.450692 0-14.901385 0-23.843035 1.485841l-77.491908-124.970247c20.863167-10.41521 35.765575-32.731472 35.765575-56.53562 0-35.7052-28.314883-63.97301-64.080458-63.973011-35.764552 0-64.078411 28.26781-64.078411 63.973011 0 35.706223 28.313859 63.974034 64.078411 63.974033 4.471848 0 8.94165 0 13.412475-1.486864l76.000951 121.996519c-41.72531 7.437389-78.981842 29.753651-107.296725 58.022484L169.426761 176.660512c13.412474-11.902074 22.353101-28.265764 22.3531-47.608297 0-35.7052-29.804816-63.97301-64.079434-63.973011-35.765575 0-64.079434 28.26781-64.079434 63.973011 0 35.706223 28.313859 63.974034 64.079434 63.974033 8.94165 0 16.391319-1.486864 23.843035-4.462638l199.688994 199.35949c-17.883299 22.317285-31.293727 49.095161-37.255508 78.851883l-123.687021-74.389245c0-2.975774 1.489934-5.950526 1.489934-8.926299 0-35.706223-28.313859-63.974034-64.079434-63.974034s-64.079434 28.26781-64.079434 63.974034c0 35.707246 28.313859 63.974034 64.079434 63.974033 26.823925 0 49.177026-16.365736 59.608609-40.168861l123.688044 74.387197c-1.489934 10.41521-2.980891 19.34151-2.980891 29.755698 0 11.902074 1.489934 23.803125 2.980891 34.218336l-117.727285 71.412446 7.450693 13.389962 113.25646-68.436672c8.94165 32.731472 23.845081 60.998259 46.197158 86.289272L164.955936 843.176678c-10.43056-7.439436-23.844058-11.902074-37.254486-11.902074-35.765575 0-64.079434 28.26781-64.079434 63.974033 0 34.218336 28.313859 62.486146 64.079434 62.486147s64.079434-28.26781 64.079435-63.974034c0-13.389962-4.470825-26.7789-11.922541-37.193087l196.709127-196.384739c23.843034 22.317285 53.647851 37.19411 86.432535 46.12041l-71.53115 114.558106 11.921517 7.439436 71.530127-117.532857c11.920494 1.486864 22.353101 2.975774 34.274618 2.975775 10.432607 0 20.863167-1.487887 29.804816-2.975775l74.509994 123.484406c-23.843034 8.9263-40.235376 32.731472-40.235376 59.510372 0 35.706223 28.314883 63.974034 64.079434 63.974033 35.765575 0 64.079434-28.26781 64.079434-63.974033 0-35.7052-28.313859-63.974034-64.079434-63.974034-2.980891 0-5.960759 0-8.94165 1.487887L555.391253 707.793268c29.804816-7.438413 56.627718-19.34151 78.981842-37.19411l199.688995 199.360513c-2.980891 7.439436-4.470825 16.363689-4.470825 23.803126 0 35.706223 28.314883 63.974034 64.079434 63.974033s64.079434-28.26781 64.079434-63.974033c0-35.7052-28.314883-63.974034-64.079434-63.974034-19.37221 0-35.764552 8.927323-47.687092 22.318308L650.765437 657.20715c29.804816-28.266787 50.667983-65.461921 58.118676-108.606557l123.688043 72.900333c-1.489934 5.950526-2.980891 10.41521-2.980891 16.365736 0 35.706223 28.314883 63.971987 64.079434 63.971987s64.079434-28.265764 64.079434-63.971987c0-35.707246-28.314883-63.974034-64.079434-63.974033-23.844058 0-44.706201 13.389962-55.137784 32.730449l-126.667911-75.875085c1.489934-7.439436 1.489934-14.878872 1.489933-22.317285 0-8.927323-1.489934-17.853623-1.489933-26.780947L837.042981 405.774677c8.940626 25.292036 31.29475 41.657772 56.627718 41.657772zM127.700427 703.326537c35.765575 0 64.079434-28.266787 64.079434-63.971987 0-35.70827-28.313859-63.974034-64.079434-63.974034s-64.079434 28.265764-64.079434 63.974034c0 34.218336 28.313859 63.971987 64.079434 63.971987z" fill="#ffffff" p-id="17107"></path></svg>