<?xml version="1.0" standalone="no"?><!DOCTYPE svg PUBLIC "-//W3C//DTD SVG 1.1//EN" "http://www.w3.org/Graphics/SVG/1.1/DTD/svg11.dtd"><svg t="1533565610086" class="icon" style="" viewBox="0 0 1024 1024" version="1.1" xmlns="http://www.w3.org/2000/svg" p-id="17577" xmlns:xlink="http://www.w3.org/1999/xlink" width="200" height="200"><defs><style type="text/css"></style></defs><path d="M942.08 643.413333c1.706667-17.066667 3.413333-35.84 3.413333-54.613333 0-172.373333-104.106667-320.853333-250.88-385.706667 0-6.826667 1.706667-11.946667 1.706667-18.773333C696.32 88.746667 619.52 11.946667 523.946667 11.946667S351.573333 88.746667 351.573333 184.32c0 6.826667 0 13.653333 1.706667 18.773333-150.186667 66.56-252.586667 213.333333-252.586667 387.413334 0 13.653333 0 27.306667 1.706667 40.96-52.906667 29.013333-88.746667 85.333333-88.746667 150.186666 0 95.573333 76.8 172.373333 172.373334 172.373334 32.426667 0 61.44-8.533333 87.04-23.893334 69.973333 51.2 157.013333 81.92 249.173333 81.92 88.746667 0 172.373333-27.306667 240.64-75.093333 22.186667 10.24 47.786667 17.066667 75.093333 17.066667 95.573333 0 172.373333-76.8 172.373334-172.373334 0-56.32-27.306667-105.813333-68.266667-138.24zM870.4 612.693333c-10.24-1.706667-22.186667-3.413333-32.426667-3.413333-95.573333 0-172.373333 76.8-172.373333 172.373333 0 40.96 13.653333 78.506667 37.546667 107.52C650.24 921.6 588.8 938.666667 523.946667 938.666667c-71.68 0-139.946667-22.186667-194.56-59.733334 18.773333-27.306667 30.72-61.44 30.72-98.986666 0-95.573333-76.8-172.373333-172.373334-172.373334h-11.946666c0-6.826667-1.706667-11.946667-1.706667-18.773333 0-139.946667 83.626667-261.12 203.093333-315.733333 30.72 49.493333 85.333333 81.92 146.773334 81.92 61.44 0 116.053333-32.426667 146.773333-81.92 119.466667 56.32 201.386667 175.786667 201.386667 315.733333 0 8.533333 0 15.36-1.706667 23.893333z" p-id="17578" fill="#ffffff"></path></svg>