<?xml version="1.0" standalone="no"?><!DOCTYPE svg PUBLIC "-//W3C//DTD SVG 1.1//EN" "http://www.w3.org/Graphics/SVG/1.1/DTD/svg11.dtd"><svg t="1533565737589" class="icon" style="" viewBox="0 0 1024 1024" version="1.1" xmlns="http://www.w3.org/2000/svg" p-id="18971" xmlns:xlink="http://www.w3.org/1999/xlink" width="200" height="200"><defs><style type="text/css"></style></defs><path d="M303.68 465.856h608.384v96H303.68zM303.68 209.856h608.128v96H303.68z" fill="#ffffff" p-id="18972"></path><path d="M175.68 252.48m-64 0a64 64 0 1 0 128 0 64 64 0 1 0-128 0Z" fill="#ffffff" p-id="18973"></path><path d="M183.04 707.776a64 64 0 1 0-3.456 127.872 64 64 0 0 0 3.456-127.872zM303.68 721.856h608.64v96h-608.64z" fill="#ffffff" p-id="18974"></path><path d="M175.68 508.48m-64 0a64 64 0 1 0 128 0 64 64 0 1 0-128 0Z" fill="#ffffff" p-id="18975"></path></svg>