<?xml version="1.0" standalone="no"?><!DOCTYPE svg PUBLIC "-//W3C//DTD SVG 1.1//EN" "http://www.w3.org/Graphics/SVG/1.1/DTD/svg11.dtd"><svg t="1533565903549" class="icon" style="" viewBox="0 0 1024 1024" version="1.1" xmlns="http://www.w3.org/2000/svg" p-id="21763" xmlns:xlink="http://www.w3.org/1999/xlink" width="200" height="200"><defs><style type="text/css"></style></defs><path d="M64 908.8h640v-53.333333h-640z m0-160.426667h855.893333v-53.333333H64z m0-160.426666h855.893333v-53.333334H64z m672.853333-264.96h170.666667a154.88 154.88 0 0 0-4.693333-50.773334 122.026667 122.026667 0 0 0-20.48-42.666666 98.133333 98.133333 0 0 0-36.693334-30.293334 110.08 110.08 0 0 0-52.053333-11.52 128 128 0 0 0-48.64 9.386667 112.64 112.64 0 0 0-37.973333 25.6 114.773333 114.773333 0 0 0-24.32 37.546667 133.973333 133.973333 0 0 0-8.533334 47.786666 138.666667 138.666667 0 0 0 8.533334 48.64 112.64 112.64 0 0 0 23.893333 37.973334 109.653333 109.653333 0 0 0 37.546667 24.32 142.506667 142.506667 0 0 0 49.92 8.533333 128 128 0 0 0 68.266666-17.493333 107.093333 107.093333 0 0 0 42.666667-58.88h-59.733333a38.826667 38.826667 0 0 1-17.066667 20.053333 58.026667 58.026667 0 0 1-33.706667 9.813333 56.746667 56.746667 0 0 1-42.666666-14.08 60.586667 60.586667 0 0 1-14.933334-43.946666z m104.96-39.68h-104.96a76.8 76.8 0 0 1 2.986667-14.933334 54.186667 54.186667 0 0 1 8.533333-16.213333 53.333333 53.333333 0 0 1 42.666667-17.493333 46.08 46.08 0 0 1 34.986667 12.373333 71.68 71.68 0 0 1 15.786666 36.266667z m-256 138.666666h64.426667V106.666667h-64z m-62.293333-228.266666V125.013333h-64.426667v68.693334h-38.826666v42.666666h38.826666v133.973334a58.026667 58.026667 0 0 0 5.973334 27.733333 42.666667 42.666667 0 0 0 16.213333 16.213333 66.133333 66.133333 0 0 0 23.466667 7.68 199.68 199.68 0 0 0 28.586666 0H573.013333V373.333333h-20.053333a33.706667 33.706667 0 0 1-21.76-5.12 32 32 0 0 1-5.546667-21.333333V235.52h47.36v-42.666667z m-179.2 228.266666h64.426667V193.706667H344.32z m0-263.68h64.426667V106.666667H344.32z m-183.04 6.826667v256h71.253333v-256h96.853334V106.666667H64v58.453333z" fill="#ffffff" p-id="21764"></path></svg>