<?xml version="1.0" standalone="no"?><!DOCTYPE svg PUBLIC "-//W3C//DTD SVG 1.1//EN" "http://www.w3.org/Graphics/SVG/1.1/DTD/svg11.dtd"><svg t="1533565687970" class="icon" style="" viewBox="0 0 1024 1024" version="1.1" xmlns="http://www.w3.org/2000/svg" p-id="18228" xmlns:xlink="http://www.w3.org/1999/xlink" width="200" height="200"><defs><style type="text/css"></style></defs><path d="M199.168 857.6c-1.024 0-2.56 0-3.584-0.512-107.52-18.432-185.344-111.104-185.344-220.16-0.512-92.672 58.88-176.128 145.92-207.36 22.528-92.16 81.92-171.008 164.864-218.112l3.072-1.536c79.872-44.544 172.544-54.784 260.096-29.696 83.968 24.064 154.112 77.824 198.656 152.064 130.56 16.384 229.376 125.44 230.912 258.56 1.024 70.656-25.6 137.216-74.752 187.392-49.152 50.688-115.2 78.848-185.344 79.872H199.168z m2.048-42.496h551.936c121.856-1.536 220.16-102.4 218.624-224.256-1.536-112.128-84.992-204.288-195.584-217.088-1.024 0-1.536 0.512-2.56 0.512-8.704 1.024-16.896-3.072-20.992-10.752-38.912-70.144-102.912-120.832-179.712-142.848-76.8-22.016-158.208-12.8-228.352 26.112l-2.56 1.536C265.728 291.328 212.48 364.544 194.56 450.048c-1.536 7.68-7.168 13.824-14.848 15.872-75.264 22.016-128 92.672-127.488 171.008 0 88.064 62.464 162.816 148.992 178.176z" fill="#ffffff" p-id="18229"></path><path d="M351.744 506.88h-40.448v122.88c0 7.168-1.536 12.288-5.12 15.872-3.584 3.584-8.192 5.12-13.312 5.12s-9.728-1.536-13.312-5.12c-3.584-3.584-5.12-8.704-5.12-15.872V506.88h-40.448c-6.144 0-10.752-1.536-13.824-4.096-3.072-2.56-4.608-6.144-4.608-10.24 0-4.608 1.536-7.68 4.608-10.24 4.096-2.56 8.704-4.096 13.824-3.584h117.248c6.144 0 11.264 1.536 14.336 4.096 3.072 2.56 4.608 6.144 4.608 10.24s-1.536 7.68-4.608 10.24c-3.072 2.56-7.68 3.584-13.824 3.584z" fill="#ffffff" p-id="18230"></path><path d="M292.352 653.824c-5.12 0-10.24-2.048-14.336-6.144-4.096-4.096-6.144-9.728-6.144-17.408V509.44h-37.888c-6.656 0-12.288-1.536-15.872-4.608-3.584-3.072-5.632-7.68-5.632-12.288 0-5.12 2.048-9.216 5.632-12.288 4.608-3.072 10.24-4.608 15.872-4.608h117.248c7.168 0 12.288 1.536 15.872 4.608 3.584 3.072 5.632 7.168 5.632 12.288 0 4.608-2.048 9.216-5.632 12.288-3.584 3.072-8.704 4.608-15.872 4.608h-37.888V629.76c0 7.68-2.048 13.824-5.632 17.408-4.096 4.096-9.728 6.144-15.36 6.144 0.512 0.512 0 0.512 0 0.512zM232.96 481.28c-4.096 0-7.68 1.024-11.264 3.584-2.56 2.048-3.584 4.608-3.584 8.192 0 3.072 1.024 6.144 3.584 8.192 2.56 2.048 6.656 3.072 12.288 3.072h43.008V629.76c0 6.144 1.536 10.752 4.608 13.824 3.072 3.072 7.168 4.608 11.264 4.608 4.096 0 8.704-1.536 11.264-4.608 3.072-3.072 4.096-7.68 4.096-13.824V504.32h43.008c5.632 0 9.728-1.024 12.288-3.072 2.56-2.048 4.096-5.12 3.584-8.192 0-3.584-1.024-6.144-3.584-8.192-2.56-2.048-6.656-3.072-12.288-3.072H234.496c-0.512-0.512-1.024-0.512-1.536-0.512z" fill="#ffffff" p-id="18231"></path><path d="M482.816 607.744c-2.56 0-5.12 0.512-7.68 2.048-4.096 3.584-7.68 6.656-10.24 8.704-2.56 2.048-5.632 4.096-8.704 6.144-6.144 3.584-13.312 5.632-20.992 5.632-5.632 0-11.776-1.536-16.384-4.096-5.12-2.56-9.216-6.656-12.288-12.288-3.072-5.632-4.608-12.288-4.608-18.944h66.56c8.704 0 15.872-1.024 20.48-3.584 5.12-2.56 7.168-7.68 7.168-15.36 0-8.704-2.56-16.896-7.168-25.088-4.608-8.192-11.776-14.848-21.504-19.968-9.728-5.12-20.992-7.68-34.304-7.68-10.24 0-19.456 1.536-27.648 4.608-8.192 3.072-15.36 7.168-20.992 13.312-5.632 5.632-10.24 12.288-12.8 20.48-3.072 8.192-4.608 16.384-4.608 26.112 0 19.968 6.144 35.328 17.92 47.104 12.288 11.776 29.184 17.408 50.688 17.408 9.728 0 17.92-1.024 25.088-3.584 6.656-2.048 12.8-5.12 18.432-8.704 4.096-3.072 8.192-6.656 10.752-10.752 2.048-3.072 3.584-6.144 3.584-10.24 0-3.072-1.024-5.632-3.072-7.68-1.536-3.072-4.608-3.584-7.68-3.584z m-70.656-55.296c5.632-5.632 13.312-8.192 20.992-8.192 8.192-0.512 15.872 2.56 21.504 8.192 5.632 5.12 8.704 13.312 9.216 24.064h-61.44c1.024-10.24 4.096-18.432 9.728-24.064z" fill="#ffffff" p-id="18232"></path><path d="M436.736 653.824c-22.528 0-39.936-6.144-52.736-17.92-12.8-12.288-18.944-28.672-18.944-49.152 0-9.728 1.536-18.432 4.608-26.624 3.072-8.192 7.68-15.36 13.824-21.504 6.144-6.144 13.312-10.752 22.016-13.824 8.704-3.072 18.432-4.608 28.672-4.608 13.824 0 25.6 2.56 35.328 8.192 9.728 5.632 17.408 12.8 22.528 20.992 5.12 8.704 7.168 17.408 7.168 26.624 0 9.216-3.072 14.848-8.704 17.92-5.12 2.56-12.288 3.584-22.016 3.584H404.992c0.512 5.12 1.536 10.24 4.096 14.848 2.56 5.12 6.656 8.704 11.264 11.264 4.608 2.56 9.728 3.584 15.36 3.584 7.168 0.512 13.824-1.536 19.456-5.12 3.072-2.048 6.144-3.584 8.192-5.632 2.56-2.048 6.144-5.12 10.24-8.704 3.072-2.048 6.144-3.072 9.216-2.56 3.584 0 7.168 1.024 10.24 3.072 2.56 2.048 4.096 5.632 4.096 9.728-0.512 4.096-1.536 8.192-4.096 11.776-3.072 4.608-7.168 8.704-11.264 11.776-5.632 4.096-12.288 7.168-18.944 9.216-7.68 1.536-16.384 3.072-26.112 3.072z m-2.56-128.512c-9.728 0-18.944 1.536-27.136 4.608-7.68 3.072-14.848 7.168-19.968 12.288-5.632 5.632-9.728 11.776-12.288 19.456-3.072 7.68-4.096 15.872-4.096 25.088 0 18.944 5.632 34.304 17.408 45.056 11.776 10.752 28.16 16.384 49.152 16.384 9.216 0 17.408-1.024 24.576-3.072 6.144-2.048 12.288-4.608 17.408-8.192 4.096-2.56 7.68-6.144 10.24-10.24 2.048-2.56 3.072-5.632 3.072-8.704 0-2.048-0.512-4.096-2.048-5.12-2.048-1.536-4.096-2.048-6.656-2.048-2.048 0-4.096 0.512-5.632 1.536-4.096 3.584-7.68 6.656-10.24 8.704-2.56 2.048-5.632 4.096-9.216 6.144-6.656 4.096-14.336 6.144-22.528 5.632-6.144 0-12.288-1.536-17.92-4.608-5.632-3.072-9.728-7.68-13.312-13.312-3.072-6.144-5.12-13.312-5.12-20.48v-2.56h69.12c8.704 0 14.848-1.024 19.456-3.072 4.096-2.048 5.632-6.144 5.632-12.8 0-8.192-2.048-16.384-6.656-24.064s-11.264-14.336-20.48-18.944c-9.216-5.12-19.968-7.68-32.768-7.68z m32.768 54.272H399.36l0.512-3.072c1.024-11.264 4.608-19.968 10.752-25.6a29.696 29.696 0 0 1 23.04-8.704c8.192-0.512 16.896 3.072 23.04 8.704 6.144 5.632 9.216 14.336 10.24 26.112v2.56z m-61.44-5.632H460.8c-1.024-8.704-4.096-15.36-8.192-19.456-5.12-5.12-12.288-7.68-19.456-7.168-7.168 0-14.336 2.56-18.944 7.168-4.608 4.608-7.68 11.264-8.704 19.456z" fill="#ffffff" p-id="18233"></path><path d="M595.456 637.952l-24.576-33.792-25.088 33.792c-3.584 4.608-6.656 8.192-9.216 10.24-2.56 2.048-6.144 3.072-9.728 3.072-4.096 0-8.192-1.536-10.752-3.584-3.072-2.56-4.608-5.632-4.608-8.704 0-3.072 2.56-8.192 7.168-14.336l30.72-40.96-27.136-34.304c-4.608-5.632-7.168-10.752-7.168-14.848 0-3.072 1.536-6.656 4.096-8.704 3.072-2.56 7.168-3.584 11.264-3.584 4.096 0 7.168 1.024 9.728 3.072 2.56 2.048 5.632 5.12 9.216 9.728l22.016 28.16 21.504-28.16c2.56-3.584 5.632-7.168 9.216-9.728 3.072-2.048 6.144-3.072 9.728-3.072 4.608 0 8.192 1.024 11.264 3.584 3.072 2.56 4.608 5.12 4.608 8.704 0 2.56-0.512 4.608-1.536 6.656-1.024 2.048-3.072 4.608-5.632 7.68l-27.136 34.304 30.72 40.96c4.608 6.144 7.168 11.264 7.168 14.336 0 3.584-1.536 6.656-4.608 8.704-3.072 2.56-7.168 3.584-11.264 3.584-3.584 0-7.168-1.024-9.728-3.072-4.608-2.56-7.68-6.144-10.24-9.728z" fill="#ffffff" p-id="18234"></path><path d="M527.36 653.824h-0.512c-4.608 0-9.216-1.536-12.288-4.096-3.584-3.072-5.632-6.656-5.632-10.752s2.56-9.216 7.68-15.872l29.696-39.424-26.112-32.256c-5.12-6.144-7.68-11.264-7.68-16.384 0-4.096 2.048-8.192 5.12-10.752 3.584-3.072 8.192-4.096 12.8-4.096 4.608 0 8.192 1.024 11.264 3.584 2.56 2.048 6.144 5.632 9.728 10.24l19.968 25.088 19.456-25.088c2.56-3.584 6.144-7.168 9.728-10.24 3.584-2.56 7.68-3.584 11.776-3.584 5.12 0 9.216 1.536 12.8 4.096 3.584 3.072 5.12 6.656 5.12 10.752 0 3.072-0.512 5.632-2.048 8.192-1.536 2.56-3.072 5.12-5.632 8.192l-26.112 32.256 29.696 39.424c5.12 6.656 7.68 12.288 7.68 15.872 0 4.096-2.048 8.192-5.632 10.752-3.584 2.56-8.192 4.096-12.8 4.096-4.096 0-8.192-1.024-11.264-3.584-3.584-3.072-7.168-6.656-9.728-10.752l-22.528-30.72-23.04 30.72c-4.096 5.12-7.168 8.704-9.728 10.752-4.096 2.048-8.192 3.584-11.776 3.584z m87.04-5.632c3.584 0 6.656-1.024 9.728-3.072 2.048-1.536 3.584-4.096 3.584-6.656 0-1.536-1.024-5.12-6.656-12.8L588.8 583.68l28.672-35.84c2.56-2.56 4.096-5.12 5.12-7.168 1.024-1.536 1.536-3.584 1.536-5.632 0-2.56-1.024-4.608-3.584-6.656-2.56-2.048-6.144-3.072-9.728-3.072-3.072 0-5.632 1.024-7.68 2.56-3.072 2.56-6.144 5.632-8.704 9.216l-23.552 30.72-24.064-30.72c-3.072-4.096-6.144-7.168-8.704-9.216-2.048-1.536-4.608-2.56-8.192-2.56-3.584 0-6.656 1.024-9.216 3.072-2.048 1.536-3.072 4.096-3.072 6.656 0 3.584 2.048 7.68 6.656 12.8l28.672 35.84-31.744 42.496c-5.12 7.168-6.656 10.752-6.656 12.8 0 2.56 1.024 4.608 3.584 6.656 2.56 2.048 6.144 3.072 9.728 3.072 2.56 0 5.632-1.024 7.68-2.56 2.048-1.536 5.12-5.12 8.704-9.728l27.136-36.352 26.624 36.352c2.56 3.584 5.632 6.656 8.704 9.216 2.048 2.048 5.12 2.56 7.68 2.56z" fill="#ffffff" p-id="18235"></path><path d="M656.384 525.312h3.584v-18.944c0-5.12 0-9.216 0.512-11.776 0-2.56 1.024-5.12 2.56-7.68 1.536-2.048 3.072-4.096 5.632-5.12 6.656-3.584 14.336-2.56 19.968 2.56 2.048 2.048 3.584 4.608 4.608 7.168 0.512 3.072 1.024 7.168 1.024 12.288v21.504h12.288c4.608 0 8.704 1.024 11.264 3.072 2.56 2.048 3.584 5.12 3.584 8.192 0 4.096-2.048 7.168-5.632 8.704-5.12 2.048-10.24 2.56-15.36 2.56h-6.144v57.856c0 5.12 0 8.704 0.512 11.264 0.512 2.56 1.536 4.608 3.072 6.656 1.536 1.536 4.096 2.56 7.68 2.56 2.048 0 4.608-0.512 8.192-1.024 3.584-0.512 6.144-1.024 8.192-1.024 2.56 0 5.12 1.024 7.168 3.072 2.048 2.048 3.584 4.608 3.072 7.68 0 5.12-3.072 9.216-8.704 11.776-6.144 2.56-14.336 4.096-25.6 4.096-10.752 0-18.432-1.536-24.064-5.12-5.12-3.072-9.216-8.192-10.752-13.824-2.048-7.68-2.56-15.36-2.56-23.552V547.84h-5.12c-5.12 0-8.704-1.024-11.264-3.072-2.56-2.048-4.096-5.12-3.584-8.192 0-3.072 1.536-6.144 4.096-8.192 3.584-2.048 7.68-3.072 11.776-3.072z" fill="#ffffff" p-id="18236"></path><path d="M697.344 653.824c-11.264 0-19.456-1.536-25.6-5.12-5.632-3.584-10.24-8.704-11.776-15.36-2.048-8.192-3.072-15.872-2.56-24.064v-57.856h-2.048c-5.632 0-9.728-1.536-12.8-4.096-3.072-2.56-4.608-6.144-4.608-10.24s2.048-7.68 5.12-10.24c4.096-2.56 8.704-4.096 13.312-3.584h1.024V506.88c0-4.608 0-9.216 0.512-12.288 0-3.072 1.024-6.144 3.072-8.704 1.536-2.56 3.584-4.608 6.656-6.144 7.68-4.096 16.896-3.072 23.04 3.072 2.56 2.048 4.608 5.12 5.12 8.704 0.512 3.072 1.024 7.68 1.024 12.8v18.944h9.728c5.632 0 9.728 1.024 12.8 3.584 3.072 2.56 4.608 6.144 4.608 10.24 0 5.12-2.56 9.216-7.168 11.264-5.632 2.048-11.264 3.072-16.896 2.56h-3.584v55.296c0 5.12 0 8.704 0.512 10.752 0 2.048 1.024 3.584 2.048 5.12 1.024 1.024 3.072 1.536 6.144 1.536 1.536 0 4.096-0.512 7.68-1.024s6.656-1.024 8.704-1.024c3.584 0 6.656 1.024 9.216 3.584 2.56 2.56 4.096 6.144 4.096 9.728 0 4.096-2.048 10.24-10.752 13.824-6.144 3.584-14.848 5.12-26.624 5.12z m-42.496-125.44c-3.072 0-6.144 1.024-9.216 2.56-2.048 1.536-3.072 3.584-3.072 6.144s1.024 4.608 3.072 6.144c2.048 1.536 5.12 2.56 9.728 2.56h7.168v62.976c0 7.68 0.512 15.36 2.56 23.04 1.536 5.12 4.608 9.216 9.728 12.288 5.12 3.072 12.8 4.608 23.04 4.608 10.752 0 18.944-1.536 24.576-3.584 5.12-2.048 7.168-5.12 7.168-9.216 0-2.048-1.024-4.096-2.56-5.632-1.536-1.536-3.584-2.56-5.632-2.56-1.536 0-4.096 0.512-7.68 1.024s-6.656 1.024-8.704 1.024c-4.608 0-7.68-1.024-9.728-3.072-2.048-2.048-3.584-5.12-3.584-8.192-0.512-2.56-0.512-6.656-0.512-11.776v-60.416h8.704c5.12 0.512 9.728-0.512 14.336-2.56 2.56-1.024 3.584-3.072 3.584-6.656 0-2.56-1.024-4.608-3.072-6.144-2.048-1.536-5.12-2.56-9.216-2.56H691.2v-24.064c0-5.12-0.512-8.704-1.024-11.776-0.512-2.048-1.536-4.096-3.584-5.632-4.608-4.096-11.776-5.12-16.896-2.048-2.048 1.024-3.584 2.56-4.608 4.096-1.024 2.048-2.048 4.096-2.048 6.144-0.512 3.072-0.512 7.168-0.512 11.776v21.504h-6.656-1.024zM306.688 685.056c-1.024-1.024-2.56-1.536-4.608-1.536-1.536 0-3.584 0.512-4.608 2.048-1.024 1.536-1.536 3.072-1.536 5.632v17.92c-2.048-2.048-4.608-4.096-7.168-5.632-2.56-1.024-5.632-2.048-9.216-2.048-6.144 0-11.264 2.048-15.36 6.656-4.096 4.096-5.632 10.24-5.632 17.92 0 3.584 0.512 6.656 1.536 10.24 1.024 3.072 2.56 5.632 4.096 8.192 3.584 4.608 9.216 7.168 15.36 7.168 4.096 0 8.192-1.024 11.776-3.584 2.048-1.536 3.584-3.072 5.12-4.608v1.024c0 2.048 0.512 4.096 1.536 5.12 1.024 1.024 2.56 2.048 4.096 2.048 1.536 0 3.072-0.512 4.096-1.536 1.024-1.024 1.536-3.072 1.536-5.12V691.2c1.024-3.072 0-4.608-1.024-6.144z m-12.8 50.176c-1.024 2.048-2.56 4.096-4.608 5.12-2.048 1.024-4.096 1.536-6.144 1.536-4.608 0-8.704-2.56-10.752-7.168-1.024-2.56-1.536-5.12-1.536-8.704 0-3.072 0.512-5.632 1.536-8.192 1.024-2.048 2.56-4.096 4.096-5.632 2.048-1.024 4.096-2.048 6.144-2.048 2.048 0 4.096 0.512 6.144 2.048 2.048 1.536 3.584 3.072 4.608 5.632 1.024 2.56 1.536 5.632 1.536 8.192 1.024 3.584 0.512 6.144-1.024 9.216zM361.984 734.72c-1.024 0-2.048 0-2.56 1.024l-4.096 3.584c-1.024 1.024-2.048 1.536-3.072 2.56-2.56 1.536-5.12 2.048-7.68 2.048-4.608 0-8.704-2.56-10.752-6.656-1.024-2.048-1.536-4.608-1.536-7.168h25.088c2.56 0 5.12-0.512 7.68-1.536 2.048-1.024 2.56-3.072 2.56-6.144 0-7.168-4.096-14.336-10.752-17.408-3.584-2.048-7.68-3.072-12.8-3.072-3.584 0-7.168 0.512-10.24 1.536-6.144 2.048-10.752 7.168-12.8 12.8-1.024 3.072-1.536 6.656-1.536 10.24-0.512 6.656 2.048 13.312 6.656 18.432 4.608 4.608 10.752 6.656 18.944 6.656 3.072 0 6.656-0.512 9.216-1.536 2.56-0.512 4.608-2.048 6.656-3.584 1.536-1.024 3.072-2.56 4.096-4.096 1.024-1.024 1.024-2.56 1.536-4.096 0-1.024-0.512-2.048-1.024-3.072-1.024-0.512-2.56-0.512-3.584-0.512z m-26.624-21.504c2.048-2.048 4.608-3.072 7.68-3.072s6.144 1.024 8.192 3.072c2.048 2.048 3.072 5.12 3.584 9.216h-23.04c0-3.072 1.536-6.656 3.584-9.216zM418.816 735.232c0 3.584-1.024 6.144-2.56 8.704-2.048 2.56-4.608 4.608-7.68 5.632-4.096 1.536-8.192 2.048-12.288 2.048-4.096 0-8.192-0.512-11.776-2.048-2.56-1.024-5.12-2.56-7.168-5.12-1.536-1.536-2.048-3.584-2.56-6.144 0-1.536 0.512-2.56 1.536-3.584 1.024-1.024 2.56-1.536 3.584-1.536 1.536 0 2.56 0.512 3.072 1.024 1.024 0.512 1.536 1.536 2.048 2.56 1.536 2.048 3.072 3.584 4.608 5.12 2.048 1.024 4.096 1.536 7.68 1.536 2.56 0 4.608-0.512 6.144-1.536s2.56-2.56 2.56-3.584c0-2.048-1.024-3.584-2.56-4.608-2.56-1.536-5.632-2.048-8.192-2.56l-10.752-3.072c-2.56-1.024-4.608-2.56-6.656-4.608-1.536-2.048-2.56-4.608-2.56-7.168 0-2.56 1.024-4.608 2.048-7.168 1.536-2.56 4.096-4.096 6.656-5.12 3.584-1.536 7.168-2.048 10.752-2.048 3.072 0 6.144 0.512 8.704 1.024s4.608 1.536 6.656 2.56c1.536 1.024 3.072 2.048 4.096 3.584 1.024 1.024 1.536 2.56 1.536 4.096 0 1.536-0.512 2.56-1.536 3.584-1.024 1.024-2.56 1.536-4.096 1.536-1.024 0-2.56-0.512-3.072-1.024l-3.072-3.072c-1.024-1.024-2.048-2.048-3.584-3.072-1.536-1.024-3.584-1.024-5.12-1.024-2.048 0-4.096 0.512-5.632 1.536-1.536 1.024-2.048 2.048-2.048 3.584 0 1.536 0.512 2.56 1.536 3.072s2.56 1.536 4.608 2.048c2.048 0.512 4.608 1.024 7.68 2.048 3.584 0.512 6.656 2.048 9.728 3.072 2.048 1.024 4.096 2.56 5.632 4.608 1.536 1.024 2.048 3.072 2.048 5.12zM442.368 708.608v35.328c0 2.56-0.512 4.096-2.048 5.632-1.024 1.024-3.072 2.048-4.608 2.048-1.536 0-3.584-0.512-4.608-2.048-1.024-1.536-1.536-3.072-1.536-5.632v-34.816c0-2.56 0.512-4.096 1.536-5.632 1.024-1.024 3.072-2.048 4.608-2.048 2.048 0 3.584 0.512 4.608 2.048 1.536 1.536 2.048 3.072 2.048 5.12zM436.224 695.808c-1.536 0-3.072-0.512-4.608-1.536-1.024-1.024-2.048-2.56-2.048-4.608 0-1.536 0.512-3.072 2.048-4.096 1.024-1.024 3.072-1.536 4.608-1.536 1.536 0 3.072 0.512 4.608 1.536 1.536 1.024 2.048 2.56 2.048 4.608 0 1.536-0.512 3.072-2.048 4.608-1.536 0.512-3.072 1.024-4.608 1.024zM496.128 701.44c-1.536 0-3.072 0.512-4.096 1.536-1.024 1.024-1.536 2.56-1.536 5.12v1.536c-2.048-2.56-4.608-5.12-7.168-6.144-2.56-1.536-5.632-2.048-9.216-2.048-3.072 0-5.632 0.512-8.192 1.536-2.56 1.024-4.608 2.56-6.656 4.608s-3.584 4.608-4.608 7.68c-1.024 3.072-1.536 6.144-1.536 9.728 0 4.608 1.024 8.704 2.56 12.8 1.536 3.584 4.096 6.656 7.168 8.704 3.072 2.048 7.168 3.072 11.264 3.072 3.072 0 6.144-0.512 9.216-2.048 2.56-1.536 5.12-3.584 6.656-6.144 0 3.072 0 5.632-0.512 8.704 0 1.536-0.512 3.584-1.536 5.12-1.024 1.536-2.048 3.072-3.584 3.584-2.048 1.024-4.096 1.536-7.68 1.536-1.536 0-3.072 0-4.096-0.512-2.048-0.512-4.096-1.536-5.632-3.584-1.024-1.024-1.536-1.536-2.048-2.56-1.536-1.536-3.072-2.56-5.12-2.56-1.536 0-2.56 0.512-3.584 1.536-1.024 1.024-1.536 2.048-1.536 3.584 0 2.048 1.024 4.096 2.56 5.632 2.048 2.048 5.12 3.584 8.192 4.608 3.584 1.024 7.68 2.048 11.776 1.536 4.096 0 8.192-0.512 11.776-1.536 3.072-0.512 5.632-2.048 7.68-4.096 2.048-2.048 3.584-4.608 4.096-7.168 1.024-3.072 1.536-6.656 1.536-10.24v-35.328c0-2.048-0.512-4.608-1.024-6.656-1.024-0.512-2.56-1.536-5.12-1.536z m-8.192 33.28c-2.048 4.096-6.144 6.656-10.752 6.656-3.584 0-6.656-1.024-8.704-3.584-2.048-2.56-3.584-6.144-3.584-11.264-0.512-4.096 1.024-8.192 3.072-11.264 2.048-2.56 5.12-4.096 8.704-4.096s6.656 1.536 9.216 4.096c2.56 3.584 3.584 7.68 3.584 11.776 0.512 2.56 0 5.12-1.536 7.68zM526.848 708.608v1.536c2.048-2.56 4.608-4.608 7.168-6.144 3.072-1.536 6.144-2.048 9.216-2.048 3.584 0 6.144 0.512 9.216 2.048 2.56 1.536 4.608 3.584 5.632 6.144 1.024 1.536 1.536 3.072 1.536 5.12 0.512 1.536 0.512 4.096 0.512 6.656v22.528c0 2.56-0.512 4.096-1.536 5.632-1.024 1.024-3.072 2.048-4.608 2.048-1.536 0-3.584-0.512-4.608-2.048-1.024-1.536-1.536-3.072-1.536-5.632v-20.48c0-3.072-0.512-6.144-1.536-9.216-1.024-2.048-3.584-3.072-7.168-3.072-2.048 0-4.096 0.512-6.144 2.048-2.048 1.536-3.584 3.072-4.096 5.12-1.024 3.584-1.024 6.656-1.024 10.24v15.36c0 2.56-0.512 4.096-2.048 5.632-1.024 1.024-3.072 2.048-4.608 2.048-1.536 0-3.584-0.512-4.608-2.048-1.024-1.536-1.536-3.072-1.536-5.632v-35.328c0-2.56 0.512-4.096 1.536-5.12 1.024-1.024 2.56-2.048 4.096-1.536 2.048 0 4.096 1.024 5.12 3.072 0.512 0.512 1.024 1.536 1.024 3.072zM778.752 479.232h35.328c1.536 0 3.072 0.512 3.584 1.024 1.024 0.512 1.024 1.536 1.024 3.072 0 1.024-0.512 2.048-1.024 3.072-1.024 0.512-2.048 1.024-3.584 1.024h-35.328c-1.536 0-3.072-0.512-3.584-1.024-1.024-0.512-1.024-2.048-1.024-3.072 0-1.024 0.512-2.048 1.536-3.072 0.512-0.512 2.048-1.024 3.072-1.024zM805.888 503.296c-1.536-4.096-4.608-7.168-8.704-8.192-2.048-0.512-4.096-1.024-6.656-1.024-4.608 0-8.704 1.536-12.288 4.096-3.072 3.072-4.608 7.168-4.608 12.288 0 2.048 0 4.096 1.024 6.144 0.512 1.536 1.024 3.072 2.048 4.608 0.512 1.024 1.536 2.048 2.56 2.56 1.024 0.512 1.536 1.024 2.56 1.024 0.512 0 1.536 0 2.048-1.024 0.512-0.512 0.512-1.024 0.512-2.048 0-0.512 0-1.536-0.512-1.536l-2.048-2.56c-0.512-0.512-1.024-1.536-1.536-2.048-1.024-1.536-1.536-3.072-1.536-5.12 0-1.536 0.512-2.56 1.024-4.096 0.512-1.024 2.048-2.048 3.072-3.072 1.536-0.512 3.072-1.024 5.12-1.024v15.872c0 1.536 0 3.584 1.024 5.12 0.512 1.024 2.048 1.536 4.096 2.048 4.608 0 9.216-2.56 11.776-6.656 1.536-2.56 2.048-5.12 2.048-8.192 0-2.56-0.512-5.12-1.024-7.168z m-6.656 11.776c-1.536 1.536-4.096 2.048-6.144 2.048v-14.848c2.048 0 4.608 1.024 6.144 2.56 1.536 1.024 2.048 3.072 2.048 5.12 0 1.536-0.512 3.584-2.048 5.12z" fill="#ffffff" p-id="18237"></path><path d="M790.016 558.592h-10.752c-1.536 0-3.072-0.512-4.096-1.024-1.024-1.024-1.536-2.048-1.024-3.072 0-1.024 0.512-2.048 1.536-3.072 1.024-1.024 2.048-1.024 3.584-1.024h17.408c1.024 0 2.048-0.512 2.56-1.024 0.512-0.512 1.024-1.536 1.024-3.072 0-2.56-1.024-4.608-2.56-5.12-2.56-1.024-5.12-1.536-7.68-1.024h-10.752c-1.536 0-3.072-0.512-3.584-1.024-1.024-0.512-1.536-2.048-1.536-3.072 0-1.024 0.512-2.048 1.536-3.072 1.024-1.024 2.048-1.024 3.584-1.024h23.04c1.536 0 2.56 0.512 3.584 1.024 1.024 0.512 1.024 1.536 1.024 2.56s-0.512 2.048-1.024 2.56c-1.024 1.024-2.048 1.024-3.072 1.024h-1.024c3.072 2.048 5.12 6.144 5.12 9.728 0 2.048-0.512 3.584-1.024 5.12-1.024 1.536-2.048 2.56-3.584 3.584 1.536 1.024 2.56 2.56 3.584 4.608 1.024 1.536 1.024 3.584 1.024 5.12 0 2.048-0.512 4.096-1.536 5.632-1.024 1.536-2.048 3.072-3.584 3.584-2.048 1.024-4.608 1.024-6.656 1.024h-15.872c-1.536 0-3.072-0.512-4.096-1.024-1.024-1.024-1.536-2.048-1.024-3.072 0-1.024 0.512-2.048 1.536-3.072 1.024-1.024 2.048-1.024 3.584-1.024h17.92c1.024 0 2.048-0.512 2.56-1.024 0.512-0.512 1.024-1.536 1.024-3.072 0-1.024-0.512-2.048-1.024-3.072-0.512-1.024-1.536-1.536-2.56-2.048-2.56-1.024-5.12-1.536-7.168-1.536z" fill="#ffffff" p-id="18238"></path><path d="M805.888 592.896c-1.536-4.096-4.608-7.168-8.704-8.192-2.048-0.512-4.608-1.024-6.656-1.024s-4.608 0.512-6.656 1.024c-4.096 1.536-7.168 4.608-8.704 8.192-1.024 2.048-1.024 4.096-1.024 6.656 0 2.048 0.512 4.608 1.024 6.656 1.536 4.096 4.608 6.656 8.704 8.192 2.048 0.512 4.608 1.024 6.656 1.024s4.608-0.512 6.656-1.024c4.096-1.536 7.168-4.608 8.704-8.192 1.024-2.048 1.024-4.096 1.024-6.656 0-2.048-0.512-4.096-1.024-6.656z m-7.68 12.8c-2.048 1.536-5.12 2.56-7.68 2.048-3.072 0-5.632-0.512-7.68-2.048-2.048-1.536-2.56-3.584-3.072-6.144 0-3.072 2.048-6.144 5.12-7.168 1.536-0.512 3.584-1.024 5.632-1.024 2.048 0 3.584 0.512 5.632 1.024 1.536 0.512 2.56 1.536 3.584 2.56 1.024 1.024 1.024 2.56 1.024 4.096 0 3.072-1.024 5.12-2.56 6.656z" fill="#ffffff" p-id="18239"></path><path d="M802.304 629.76h-1.024c1.536 1.024 3.072 2.56 4.096 4.608 1.024 1.536 1.536 3.584 1.536 5.632 0 2.048-0.512 4.096-1.536 5.632-1.024 1.536-2.048 3.072-4.096 3.584-1.024 0.512-2.048 1.024-3.072 1.024-1.536 0-3.072 0.512-4.608 0.512h-14.848c-1.536 0-3.072-0.512-3.584-1.024-1.024-0.512-1.536-1.536-1.024-3.072 0-1.024 0.512-2.048 1.536-3.072s2.048-1.024 3.584-1.024h13.312c2.56 0 4.608-0.512 6.144-1.024 1.536-1.024 2.048-2.048 2.048-4.608 0-1.536-0.512-2.56-1.536-4.096-1.024-1.024-2.048-2.048-3.584-2.56-2.048-0.512-4.608-0.512-6.656-0.512h-10.24c-1.536 0-3.072-0.512-3.584-1.024-1.024-0.512-1.536-2.048-1.024-3.072 0-1.024 0.512-2.048 1.536-3.072 1.024-0.512 2.048-1.024 3.584-1.024h23.552c1.536 0 2.56 0.512 3.584 1.024 1.024 0.512 1.024 1.536 1.024 2.56 0 0.512 0 1.536-0.512 2.048l-1.536 1.536c-1.024 1.024-2.048 1.024-3.072 1.024z" fill="#ffffff" p-id="18240"></path><path d="M484.864 427.008c0 2.048-0.512 4.096-1.536 6.144-1.536 2.56-3.072 4.608-5.632 6.144-2.56 2.048-5.632 3.584-9.216 4.608-4.096 1.024-8.192 2.048-12.288 2.048-9.728 0-17.408-2.56-22.528-8.192-5.632-5.632-8.192-13.312-8.192-22.528 0-6.144 1.024-11.776 3.584-16.896 2.56-4.608 6.144-8.704 10.752-11.264 5.12-2.56 10.752-4.096 16.896-4.096 4.096 0 7.68 0.512 11.264 1.536 3.072 1.024 6.144 2.56 8.704 4.608 2.048 1.536 4.096 3.584 5.632 6.144 1.024 1.536 1.536 3.584 2.048 6.144 0 2.048-0.512 3.584-2.048 4.608-1.536 1.024-3.072 2.048-5.12 2.048-1.024 0-2.56-0.512-3.072-1.024l-3.072-3.072c-1.536-2.56-3.584-4.608-6.144-6.656-2.56-1.536-5.12-2.048-8.192-2.048-4.608 0-8.704 2.048-11.264 5.632-3.072 4.096-4.608 9.216-4.096 14.848 0 3.072 0.512 5.632 1.024 8.192 0.512 2.048 1.536 4.608 3.072 6.144 1.536 1.536 3.072 3.072 5.12 4.096 2.048 1.024 4.096 1.536 6.656 1.536 3.072 0 5.632-0.512 8.192-2.048 2.56-1.536 4.608-4.096 6.144-6.656 1.024-1.536 2.048-3.072 3.072-4.096 1.024-1.024 2.56-1.536 4.096-1.536 2.048 0 3.584 0.512 4.608 2.048 0.512 0 1.536 2.048 1.536 3.584z" fill="#ffffff" p-id="18241"></path><path d="M456.704 448.512h-0.512c-10.24 0-18.432-3.072-24.064-9.216-5.632-6.144-8.704-13.824-8.704-24.064 0-6.656 1.536-12.8 4.096-17.92s6.656-9.216 11.776-12.288c5.632-3.072 11.776-4.608 17.92-4.096 4.096 0 8.192 0.512 11.776 2.048 3.584 1.024 6.656 2.56 9.216 5.12 2.56 1.536 4.096 4.096 6.144 6.656 1.536 2.048 2.048 4.608 2.048 7.168 0 2.56-1.024 4.608-2.56 6.144-2.048 1.536-4.096 2.56-6.656 2.56-1.536 0-3.072-0.512-4.608-1.536-1.536-1.024-2.56-2.56-3.584-3.584-1.536-2.56-3.072-4.096-5.632-6.144-2.048-1.024-4.096-2.048-6.656-1.536-3.584 0-7.168 1.536-9.728 4.608-2.56 3.584-4.096 8.704-3.584 13.312 0 3.072 0.512 5.12 1.024 7.68 0.512 2.048 1.536 4.096 3.072 5.632 1.024 1.536 2.56 2.56 4.096 3.072 2.048 1.024 3.584 1.024 6.144 1.024s4.608-0.512 6.656-2.048c2.048-1.536 4.096-3.584 5.12-5.632 1.024-1.536 2.048-3.072 3.584-4.608 1.536-1.536 3.584-2.048 5.632-2.048 2.56 0 4.608 1.024 6.144 3.072 1.536 1.536 2.56 3.584 2.56 6.144s-0.512 5.12-2.048 7.168c-1.536 2.56-3.584 5.12-6.144 6.656-3.072 2.56-6.144 4.096-9.728 5.12-4.096 0.512-8.192 1.536-12.8 1.536z m-0.512-63.488c-5.12 0-10.24 1.536-14.848 3.584-4.096 2.56-7.68 6.144-9.728 10.24-2.56 4.608-3.584 9.728-3.584 15.872 0 8.704 2.56 15.872 7.68 20.992 5.12 5.12 12.8 7.68 21.504 7.68 3.584 0 7.68-0.512 11.264-1.536 3.072-1.024 5.632-2.56 8.192-4.608 2.048-1.536 3.584-3.584 4.608-5.632 1.024-1.536 1.536-3.584 1.536-5.12 0-1.024-0.512-2.048-1.536-3.072-1.024-1.024-2.048-1.536-3.072-1.536-1.024 0-2.048 0.512-2.56 1.024-1.024 1.024-2.048 2.048-2.56 3.584-1.536 3.072-4.096 5.632-6.656 7.168-3.072 1.536-6.144 2.56-9.216 2.56-2.56 0-5.12-0.512-7.168-1.536-2.048-1.024-4.096-2.56-5.632-4.608-1.536-2.048-3.072-4.608-3.584-7.168-1.024-2.56-1.024-5.632-1.024-8.704-1.024-4.608 0.512-10.24 4.096-14.848 3.072-4.096 7.68-6.144 12.8-6.144 3.072 0 6.144 0.512 9.216 2.56 2.56 2.048 5.12 4.608 6.656 7.168 0.512 1.024 1.536 2.048 2.56 2.56 0.512 0.512 1.024 0.512 2.048 0.512 1.536 0 2.56-0.512 3.584-1.536 1.024-1.024 1.536-2.048 1.536-3.072 0-1.536-0.512-3.072-1.536-4.608-1.536-2.048-3.072-4.096-5.12-5.632-2.56-2.048-5.12-3.072-8.192-4.096-3.072-1.024-6.656-1.536-10.24-1.536-0.512-0.512-1.024-0.512-1.024-0.512z" fill="#ffffff" p-id="18242"></path><path d="M495.616 436.736V369.664c0-3.072 0.512-5.632 2.048-7.168 1.536-1.536 3.584-2.56 5.632-2.56 2.56 0 4.096 1.024 5.632 2.56 1.536 1.536 2.048 4.096 2.048 7.168v67.072c0 3.072-0.512 5.632-2.048 7.168-1.536 1.536-3.584 2.56-5.632 2.56-2.048 0-4.096-1.024-5.632-2.56-1.536-1.536-2.048-4.096-2.048-7.168z" fill="#ffffff" p-id="18243"></path><path d="M503.296 448.512h-0.512c-2.56 0-5.12-1.024-6.656-3.072-1.536-2.048-2.56-4.608-2.56-8.192V370.176c0-3.584 1.024-6.656 2.56-8.704 2.048-2.048 4.608-3.072 7.168-3.072 3.072 0 5.632 1.024 7.168 3.072 2.048 2.048 2.56 4.608 2.56 8.704v67.072c0 3.584-1.024 6.656-2.56 8.704-1.536 1.536-4.096 2.56-7.168 2.56z m0-4.096c1.536 0 3.072-0.512 4.096-1.536 1.024-1.024 1.536-3.072 1.536-5.632V369.664c0-2.56-0.512-4.608-1.536-5.632-1.024-1.024-2.56-1.536-4.608-1.536-1.536 0-3.072 0.512-3.584 1.536-1.024 1.024-1.536 3.072-1.536 5.632v68.608c0 2.048 0.512 3.584 1.536 4.608 1.024 0.512 2.56 1.536 4.096 1.536z" fill="#ffffff" p-id="18244"></path><path d="M583.68 401.92c-2.56-7.68-8.704-13.312-16.384-16.384-4.096-1.536-8.192-2.048-12.8-2.048-4.608 0-8.704 0.512-12.8 2.048-7.68 3.072-13.312 8.704-15.872 16.384-1.536 4.096-2.048 8.192-2.048 12.8 0 4.096 0.512 8.704 2.048 12.8 2.56 7.68 8.704 13.312 16.384 16.384 4.096 1.536 8.192 2.56 12.8 2.048 4.608 0 8.704-0.512 12.8-2.048 7.68-3.072 13.312-8.704 16.384-16.384 1.536-4.096 2.048-8.192 2.048-12.8-0.512-4.608-1.024-8.704-2.56-12.8z m-17.92 27.648c-2.56 3.584-6.656 5.12-11.264 5.12-3.072 0-5.632-1.024-8.192-2.56s-4.096-4.096-5.12-7.168c-1.024-3.072-2.048-6.656-2.048-10.752 0-3.584 0.512-7.168 2.048-10.752 1.024-2.56 3.072-5.12 5.632-7.168 2.56-1.536 5.12-2.56 8.192-2.56 4.608 0 8.704 2.048 11.264 5.12 3.072 4.096 4.608 9.728 4.096 14.848 0 6.144-1.536 11.264-4.608 15.872z" fill="#ffffff" p-id="18245"></path><path d="M555.008 448.512h-1.024c-4.608 0-8.704-1.024-12.8-2.56-8.192-3.072-14.336-9.728-17.408-17.92-1.536-4.096-2.56-8.704-2.048-13.312 0-5.12 1.024-9.728 2.048-13.824 3.072-8.192 9.216-14.336 17.408-17.408 4.608-1.536 8.704-2.56 13.824-2.56 5.12 0 9.728 1.024 13.824 2.56 8.192 3.072 14.336 9.728 17.408 17.92 1.536 4.096 2.048 8.704 2.048 13.312 0 4.608-0.512 9.216-2.048 13.312-3.072 8.192-9.216 14.336-17.408 17.92-4.608 1.536-9.216 2.56-13.824 2.56z m-0.512-4.096c4.096 0 8.192-0.512 12.288-2.048 6.656-2.56 12.288-8.192 14.848-15.36 1.536-4.096 2.048-7.68 2.048-11.776 0-4.608-0.512-8.704-2.048-12.288-2.56-7.168-8.192-12.8-14.848-15.36-3.584-1.536-8.192-2.048-12.8-2.048-4.096 0-7.68 0.512-11.776 2.048-7.168 2.56-12.288 8.192-14.848 14.848-1.536 3.584-2.048 7.68-2.048 12.288 0 4.096 0.512 8.192 2.048 11.776 2.56 7.168 8.192 12.288 14.848 15.36 4.096 1.536 8.192 2.56 12.288 2.56z m0-7.68c-3.072 0-6.144-1.024-9.216-2.56-2.56-1.536-4.608-4.096-6.144-7.68-1.536-3.584-2.048-7.168-2.048-11.264 0-4.096 0.512-7.68 2.048-11.776 1.024-3.072 3.584-6.144 6.144-7.68 2.56-2.048 6.144-3.072 9.216-2.56 5.12 0 9.728 2.048 12.8 6.144 3.584 4.608 5.12 10.24 4.608 16.384 0.512 5.632-1.536 11.264-4.608 15.872-3.072 3.072-7.68 5.12-12.8 5.12z m0-39.936c-2.56 0-4.608 0.512-6.656 2.048-2.048 1.536-3.584 3.584-4.608 6.144-1.024 3.072-2.048 6.656-1.536 9.728 0 4.096 0.512 7.168 1.536 9.728 1.024 2.56 2.56 4.608 4.608 6.144 2.048 1.536 4.608 2.048 7.168 2.048 4.096 0 7.168-1.536 9.728-4.608 2.56-4.096 4.096-8.704 3.584-13.312 0.512-5.12-1.024-9.728-3.584-13.824-2.56-2.56-6.144-4.096-10.24-4.096z" fill="#ffffff" p-id="18246"></path><path d="M638.976 437.76v-2.048c-1.536 2.048-3.584 4.096-6.144 6.144-2.048 1.536-4.096 2.56-6.656 3.584-2.56 1.024-5.632 1.024-8.192 1.024-3.584 0-7.168-0.512-10.24-2.56-3.072-1.536-5.12-3.584-7.168-6.656-2.048-4.608-3.072-9.216-3.072-14.336v-30.72c0-3.072 0.512-5.632 2.048-7.168 1.536-1.536 3.584-2.56 5.632-2.048 2.56 0 4.096 1.024 5.632 2.56 1.536 1.536 2.048 4.096 2.048 6.656v25.088c0 3.584 0.512 6.656 1.024 9.216s1.536 4.608 3.072 5.632c2.048 1.536 4.096 2.048 6.656 2.048s5.12-1.024 7.68-2.56c2.048-1.536 4.096-3.584 5.12-6.144 1.024-2.048 1.536-7.168 1.536-14.336v-18.944c0-3.072 1.024-5.632 2.048-7.168 1.536-1.536 3.584-2.56 5.632-2.56 2.048 0 4.096 0.512 5.632 2.048 1.536 1.536 2.048 4.096 2.048 7.168v45.056c0 3.072-0.512 5.12-2.048 6.656-1.536 1.536-3.072 2.048-5.12 2.048s-4.096-1.024-5.12-2.048c-1.536-1.024-2.048-3.584-2.048-5.632z" fill="#ffffff" p-id="18247"></path><path d="M646.656 448.512h-0.512c-2.56 0-5.12-1.024-6.656-3.072-1.024-1.536-2.048-3.072-2.56-4.608-1.024 1.024-2.048 1.536-2.56 2.56-2.048 1.536-4.608 3.072-7.68 4.096-3.072 1.024-6.144 1.536-9.216 1.024-3.584 0-7.68-1.024-11.264-2.56-3.072-1.536-6.144-4.096-7.68-7.168-2.56-5.12-3.584-10.24-3.072-15.36v-30.72c0-3.584 1.024-6.656 2.56-8.192 2.048-2.048 4.608-3.072 7.168-3.072 3.072 0 5.632 1.024 7.168 3.072 1.536 2.048 2.56 4.608 2.56 8.192v25.088c0 3.072 0.512 6.144 1.024 8.704 0.512 2.048 1.536 3.584 2.56 4.608 1.536 1.024 3.072 1.536 5.12 1.536 2.56 0 4.608-0.512 6.144-2.048 2.048-1.024 3.584-3.072 4.096-5.12 0.512-1.024 1.024-4.608 1.024-13.824v-18.944c0-3.584 1.024-6.656 2.56-8.192 2.048-2.048 4.608-3.072 7.168-3.072 2.56 0 5.12 1.024 7.168 3.072 2.048 2.048 2.56 4.608 2.56 8.192v45.056c0 3.584-1.024 6.144-2.56 8.192-0.512 1.536-2.56 2.56-5.12 2.56z m-0.512-4.608c1.536 0 3.072-0.512 3.584-1.536 1.024-1.024 1.536-3.072 1.536-5.12v-45.056c0-2.56-0.512-4.608-1.536-5.632-1.024-1.024-2.56-1.536-4.096-1.536-1.536 0-3.072 0.512-4.096 1.536-1.024 1.024-1.536 3.072-1.536 5.632v18.944c0 7.68-0.512 12.8-1.536 15.36-1.024 3.072-3.072 5.12-5.632 7.168-2.56 1.536-5.632 2.56-8.704 2.56-2.56 0-5.632-0.512-7.68-2.56-2.048-1.536-3.584-4.096-4.096-6.656-0.512-2.56-1.024-6.144-1.024-9.728v-25.088c0-2.56-0.512-4.096-1.536-5.632-1.024-1.024-2.56-1.536-4.608-1.536-1.536 0-3.072 0.512-4.096 1.536-1.024 1.024-1.536 3.072-1.536 5.632v30.72c-0.512 4.608 0.512 9.216 2.56 13.312 1.536 2.048 3.584 4.096 6.144 5.632 3.072 1.536 6.144 2.048 9.216 2.048 2.56 0 5.12-0.512 7.68-1.024 2.048-0.512 4.096-1.536 6.144-3.072 2.048-1.536 4.096-3.584 5.632-5.632l3.584-4.608v8.192h-0.512 1.024c0 2.048 0.512 3.584 1.536 5.12 1.024 0.512 2.56 1.024 3.584 1.024z" fill="#ffffff" p-id="18248"></path><path d="M724.992 362.496c-1.024-1.536-3.072-2.048-5.632-2.048-2.048 0-4.096 1.024-5.632 2.56-1.536 1.536-2.048 4.096-2.048 7.168v23.04c-3.072-3.072-6.144-5.632-9.216-7.168-3.072-1.536-7.168-2.56-11.264-2.56-7.168-0.512-14.336 2.56-18.944 8.192-4.608 5.632-7.168 12.8-7.168 22.528 0 4.096 0.512 8.704 2.048 12.8 1.024 3.584 3.072 7.168 5.12 10.24 4.608 5.632 11.264 9.216 18.432 9.216 5.12 0 10.24-1.536 14.336-4.608 2.048-1.536 4.096-3.584 6.144-5.632v1.536c0 3.072 0.512 5.12 2.048 6.656 1.536 1.536 3.072 2.56 5.12 2.048 2.048 0 4.096-0.512 5.12-2.048 1.536-1.536 2.048-3.584 2.048-6.656V369.152c1.536-3.072 0.512-5.12-0.512-6.656z m-15.872 62.976c-1.024 2.56-3.072 5.12-5.632 6.656-4.608 3.072-10.752 3.072-14.848 0-2.56-1.536-4.096-3.584-5.632-6.656-1.536-3.072-2.048-6.656-2.048-10.752 0-3.584 0.512-7.168 2.048-10.752 1.024-2.56 3.072-5.12 5.12-6.656 2.048-1.536 5.12-2.56 7.68-2.56s5.12 1.024 7.68 2.56 4.096 4.096 5.632 6.656c1.536 3.584 2.048 7.168 2.048 10.752 0 3.584-0.512 7.168-2.048 10.752z" fill="#ffffff" p-id="18249"></path><path d="M692.224 448.512h-1.024c-7.68 0-15.36-3.584-19.968-9.728-2.56-3.072-4.608-7.168-5.632-10.752-1.536-4.096-2.048-8.704-2.048-13.312 0-10.24 2.56-18.432 7.68-24.064 5.12-6.144 12.8-9.216 20.48-8.704 4.608 0 8.704 1.024 12.288 2.56 2.048 1.024 4.096 2.56 6.144 4.096v-17.92c0-3.584 1.024-6.656 2.56-8.704 1.536-2.048 4.608-3.584 7.168-3.072 3.584 0 5.632 1.536 7.168 3.072 1.536 2.048 2.56 4.608 2.56 8.192v68.608c0 3.584-1.024 6.144-2.56 8.192-2.048 2.048-4.608 3.072-7.168 3.072-2.56 0-5.12-1.024-6.656-3.072-1.024-1.024-2.048-2.56-2.048-4.608-1.024 1.024-2.048 2.048-3.072 2.56-5.12 1.536-10.752 3.584-15.872 3.584z m-1.024-4.096c4.608 0 9.728-1.536 13.312-4.096 2.048-1.536 4.096-3.584 5.632-5.632l3.584-4.096v7.168c0 2.56 0.512 4.096 1.536 5.12 1.024 1.024 2.048 1.536 3.584 1.536 1.536 0 3.072-0.512 4.096-1.536 1.024-1.024 1.536-2.56 1.536-5.12V369.152c0-2.56-0.512-4.096-1.536-5.12-1.024-1.024-2.048-1.536-4.096-1.536-1.536 0-2.56 0.512-3.584 1.536-1.024 1.024-1.536 3.072-1.536 5.632v28.16l-3.584-4.096c-2.56-3.072-5.632-5.12-8.192-6.656-2.56-1.536-6.144-2.048-10.24-2.048-6.656 0-12.8 2.56-17.408 7.168-4.608 5.12-6.656 12.288-6.656 21.504 0 4.096 0.512 8.192 1.536 12.288 1.024 3.584 2.56 6.656 5.12 9.728 4.096 5.632 10.24 8.704 16.896 8.704z m5.12-8.192c-3.072 0-6.144-1.024-8.704-2.56s-4.608-4.096-6.144-7.68c-1.536-3.072-2.048-7.168-2.048-11.776 0-3.584 0.512-7.68 2.048-11.264 1.024-3.072 3.072-5.632 6.144-7.68 2.56-2.048 5.632-2.56 9.216-3.072 3.072 0 6.144 1.024 8.704 2.56 2.56 2.048 5.12 4.608 6.144 7.68 1.536 3.584 2.048 7.68 2.048 11.264 0 4.096-0.512 8.192-2.048 11.776-1.024 3.072-3.584 5.632-6.144 7.68-3.072 2.56-6.144 3.072-9.216 3.072z m-0.512-39.424c-2.048 0-4.608 0.512-6.144 2.048-2.048 1.536-3.584 3.584-4.608 6.144-1.024 3.072-1.536 6.144-1.536 9.728 0 4.096 0.512 7.168 2.048 9.728 1.024 2.56 2.56 4.608 4.608 5.632 4.096 2.56 8.704 2.56 12.8 0 2.048-1.536 3.584-3.072 4.608-5.632 1.536-3.072 2.048-6.656 2.048-10.24s-0.512-6.656-2.048-9.728c-1.024-2.56-2.56-4.608-4.608-6.144-2.56-0.512-4.608-1.536-7.168-1.536 0.512 0 0.512 0 0 0z" fill="#ffffff" p-id="18250"></path></svg>